<?xml version="1.0" encoding="utf-8"?>
<!-- Generator: Adobe Illustrator 21.1.0, SVG Export Plug-In . SVG Version: 6.00 Build 0)  -->
<svg version="1.1" id="Layer_1" xmlns="http://www.w3.org/2000/svg" xmlns:xlink="http://www.w3.org/1999/xlink" x="0px" y="0px"
	 viewBox="0 0 75.6 75.5" style="enable-background:new 0 0 75.6 75.5;" xml:space="preserve">
<style type="text/css">
	.st0{fill:#7F1416;}
</style>
<path id="path9013_8_" class="st0" d="M1.7,1.6v0.6V73v0.6h0.6h70.9h0.6V73V2.1V1.6h-0.6H2.3C2.3,1.6,1.7,1.6,1.7,1.6z M72.2,2.7
	h0.4v69.1c-0.1,0.3-0.3,0.4-1.7,0.5c-0.6,0-5.1,0.1-11.5,0.1H3c0-0.1-0.1-0.3-0.1-0.5V36.7c0-1.9,0.1-3.8,0.1-6.2
	C3.1,24,3.2,15.2,3.2,10.8l0.1-8l3.6-0.1c1.9,0,17.6,0,34.7,0H72.2L72.2,2.7z M38.3,3.6c-14.7,0-29.5,0-31.4,0H4.4L4.3,4.8
	C4,7.6,3.7,64,3.9,68.5l0.2,2.9l5.2,0.2c8.4,0.3,52.1,0.2,59.9-0.1l2.6-0.1v-1.1c0-0.6,0-9,0.1-18.5c0-10.4,0-14.5,0.1-16.2v-1.5v-1
	c-0.1-1-0.1-4.1-0.1-14.4V3.7h-2.7C67.6,3.6,53,3.6,38.3,3.6z M48.8,4.6c0.2,0,0.6,0.1,1.4,0.4c1,0.5,2,1.3,3.9,2.7
	c0.6,0.4,1.1,0.8,1.1,0.7c0.3-0.2-0.1-1.3-0.8-2.2c-0.3-0.5-0.6-0.9-0.6-0.9c0.6-0.5,3.2,1.8,4,3.4c0.3,0.6,0.7,1.1,0.7,1
	c0,0,0.2-0.6,0.3-1.3c0.1-0.8,0.3-1.3,0.7-1.6c0.8-0.6,0.9-0.4,0.3,0.5c-0.3,0.6-0.5,1-0.3,1.4c0.1,0.7,1.3,1.6,2,1.6
	c0.5,0,0.5,0.1,0.3,0.3c-0.1,0.2-0.1,0.7-0.1,1.1c0,0.4-0.1,0.8-0.2,0.8s-0.7-0.3-1.2-0.7c-0.6-0.4-1.1-0.7-1.2-0.7
	c-0.1,0-0.7-0.4-1.2-0.8c-1.1-0.9-1.6-1.1-1.2-0.4c0.1,0.2,0.9,0.8,1.8,1.3c2.4,1.3,3.9,2.9,2.9,2.9c-0.2,0-0.3,0.2-0.5,0.3
	c-0.1,0.2-0.8,0.4-1.8,0.6c-2.1,0.4-2.9,0.3-4.3-0.2c-2.1-0.9-2-1.3,0.3-1.4c1.6,0,1.7-0.3,0.2-0.5c-1-0.1-6.4,0-6-0.4
	c0.9-1,0.8-1.1-0.9-0.9c-0.7,0.1-1.9,0.1-2.8,0c-0.9-0.1-1.6-0.1-1.7-0.1c-0.1,0-0.1-0.1-0.1-0.2c0.1-0.3,1.5-0.8,3.1-1.2
	C47.6,10,48,9.8,48,9.7c0-0.3-2.1-0.8-3.3-0.8c-0.6,0-1.6,0.1-2.2,0.3c-1.6,0.4-3,0.3-5.1-0.7c-2.2-1-2.5-1-5.7,0.3
	c-1.6,0.6-4.4,0.2-5.8-0.9c-1-0.8-2.1-1-3.6-0.6c-1.5,0.4-2.8,0.5-3.3,0.2c-0.2-0.2,0-0.2,0.7-0.2c0.6,0,1.5-0.2,2-0.4
	c1.4-0.6,2.5-0.4,4.7,0.6c2.5,1.1,3.8,1.1,5.5,0.1c1.8-1,2.8-1.2,4.8-0.9c0.9,0.1,2.4,0.3,3.4,0.5l1.7,0.2l1.1-0.7
	c1.7-1.3,3.2-1.5,5.1-0.8c0.7,0.2,1.1,0.4,1.2,0.3c0,0-0.1-0.4-0.2-0.7C48.5,4.9,48.4,4.6,48.8,4.6z M69.8,5.7
	C69.8,5.7,69.8,5.8,69.8,5.7c0.3,0.2,0.2,1.6-0.1,2.1c-0.5,0.8-0.5,1,0.5,1.1c1,0.2,1,0.4,0,0.8c-0.5,0.2-1.1,0.7-1.6,1.2
	c-0.5,0.6-1,0.9-1.3,0.9c-0.5,0-2-1.1-2-1.4c0-0.1,0.3-0.3,0.7-0.6c0.9-0.5,1.4-1.7,1.1-2.7c-0.1-0.4-0.1-0.6,0.1-0.5
	c0.1,0.1,0.2,0.5,0.3,1l0.1,0.8l0.7-0.8c0.5-0.4,0.9-1.1,1-1.5C69.5,6,69.7,5.8,69.8,5.7z M45.6,7.2c-0.2,0-0.3,0-0.5,0.1
	c-0.1,0.1,0.6,0.2,1.6,0.3c1.1,0.1,2.1,0.3,2.9,0.7c1.4,0.6,5.9,2.9,8.4,4.4c1,0.5,1.9,1,2,1c0.6,0-1.5-1.3-3.3-2.1
	c-1.1-0.5-2.8-1.4-3.7-1.9c-2.9-1.7-3.6-2-5.7-2.2C46.6,7.2,46.1,7.2,45.6,7.2z M67.1,10.1c-0.1,0.1,0.1,0.3,0.3,0.5
	c0.3,0.3,0.7,0.5,0.8,0.4C68.5,10.9,67.4,10.1,67.1,10.1L67.1,10.1z M63.5,10.4c0.6,0,1.4,0.4,2,1.1c0.3,0.3,0.9,0.7,1.4,0.8
	c1.6,0.6,1.9,1.3,1.1,2.2c-0.3,0.4-0.7,0.5-1.4,0.5c-1.6,0-3.5-1.3-3.9-2.6C62.5,11.5,62.8,10.6,63.5,10.4
	C63.3,10.4,63.4,10.4,63.5,10.4z M62.5,14.6l1.5,2.7c1.7,3.1,2,3.9,2.5,5.5c0.3,1.3,0.7,1.6,0.5,0.5c-0.3-1.5-1-3.3-2.4-5.8
	c-0.7-1.4-1.4-2.7-1.2-2.9c0.1-0.3,1.9,1.9,2.5,3.1c0.2,0.5,0.7,1.6,1.1,2.6c0.3,1,0.8,1.6,0.8,1.5c0.1-0.4-0.7-2.4-1.7-4.3
	c-0.6-1-1-1.8-1-1.9c0-0.2,2-0.2,2.4,0c0.3,0.2,1.7,2.9,1.9,3.8c0.1,0.4,0,0.6-0.3,0.7c-0.6,0.2-0.6,0.5-0.1,0.6
	c0.6,0.2,1.1,1.3,0.8,1.6c-0.3,0.4-0.3,0.8,0.3,1.4s0.7,0.8,0.1,0.8c-0.4,0-0.4,0,0,0.9c0.6,1.1,0.6,2.9,0.1,3.8
	c-0.2,0.4-0.2,0.7-0.1,1.1c0.5,1.2,0.7,2.3,0.8,4.5c0,1.3,0,2.4,0,2.4s-0.2-0.2-0.3-0.5c-0.1-0.3-0.5-1-0.8-1.6
	c-0.9-1.7-1.2-3.1-1.4-4.6c0-1.7-0.1-1.6-0.3-1.6c-0.1,0-0.3,0.3-0.5,0.8l-0.2,0.8l-0.2-0.6C67,29.5,67,28.3,67,27.3
	c0.1-1.8,0.1-1.9-0.3-1.9c-0.4,0.1-1.1-0.4-1.1-0.8c0-0.2-0.1-0.7-0.2-1.1c-0.2-0.7-0.2-0.8-0.7-0.4c-0.3,0.3-0.5,0.3-0.8-0.3
	c-0.2-0.5-0.5-1.3-0.5-2.5c0-1-0.1-1.9-0.2-1.9c-0.1-0.1-0.3,0.1-0.7,0.2C62,19,61.8,19,61.4,18.8c-0.5-0.2-0.6-0.3-0.5-0.7
	c0.1-0.6,0-0.6-0.7-0.2c-0.6,0.4-2.2,0.4-2.4,0c-0.1-0.2-0.1-0.4,0-0.5c0.2-0.4,1.7-0.8,2.4-0.7l0.7,0.1l-0.6-0.3
	c-0.3-0.2-0.6-0.4-0.6-0.5c0-0.3,1.1-0.9,1.8-1L62.5,14.6z M67.7,22.3c-0.1,0,0,0.6,0.2,2.3c0.1,0.4,0.2,0.7,0.3,0.7
	C68.5,25.3,68,22.6,67.7,22.3C67.8,22.3,67.8,22.3,67.7,22.3z M70.8,37.4L70.8,37.4c0.1,0.1,0.1,0.3,0.1,0.4
	c-0.1,0.2-0.1,0.1-0.1-0.1C70.7,37.5,70.7,37.4,70.8,37.4z M70.8,38.5L70.8,38.5c0.1,0.3,0.1,0.7,0,0.9c0,0.3-0.1,0.1-0.1-0.4
	C70.7,38.7,70.8,38.4,70.8,38.5z M70.4,42.2c0,0,0.1,0.1,0.1,0.3c0,0.5-0.1,0.6-0.3,0.3c-0.1-0.1,0-0.3,0.1-0.5
	C70.4,42.3,70.4,42.2,70.4,42.2z M6.4,42.9c0,0,0.1,0,0.1,0.2c0.1,0.2,0.7,0.8,1.1,1.3c1.6,1.5,2.1,2.3,2.4,3.5
	c0.2,0.9,0.2,1.4,0.1,1.9c-0.2,0.9-0.2,2,0,2c0.1,0,0.2-0.1,0.3-0.3c0.1-0.2,0.2-0.3,0.3-0.3c0.3,0,0.4,1,0.1,2.3
	c-0.3,1.9-0.3,1.8,0.6,1.3c0.4-0.2,0.8-0.4,0.9-0.4c0.1,0,0,0.3,0,0.7c-0.1,0.8-0.9,2.1-1.5,2.5c-0.8,0.6-0.2,1.1,0.7,0.5
	c0.4-0.3,1.2-0.4,1.2-0.2c0,0.1-0.2,0.5-0.6,1c-0.4,0.7-0.6,1-0.3,1.2c0.2,0.3,0.1,1.3-0.6,2.7c-0.2,0.6-0.3,0.7-0.6,0.5
	c-0.2-0.4-0.4-0.2-0.4,0.7c0,0.5,0,0.8,0.2,0.9c0,0.1,0.1-0.1,0.1-0.4c0-0.3,0.1-0.6,0.3-0.8c1.1-1,1.6-2.8,1.9-3.5H14
	c-0.3,1.1-1.2,3-1.5,3.3c-0.2,0.3-0.4,0.6-0.4,0.6c0,0.1,0.3,0.2,0.8,0.2c0.4,0.1,0.8,0.2,0.8,0.3c0,0.1-0.6,0.7-1.1,1.3
	c-1.1,1.1-2,1.6-2.4,1.3c-0.1-0.1-0.9,0.5-0.9,0.7c0,0.3,0.8,0.2,2.7-0.6c1.1-0.4,2.2-0.8,2.6-0.8c0.3,0,0.8-0.2,1-0.4
	c0.4-0.5,1.7-1.8,1.5-0.8c-0.2,0.7-0.3,1.3-0.2,1.3c0,0,0.8,0,1.6-0.1c0.8-0.1,1.6-0.2,1.6-0.1c0.1,0.1-0.2,0.4-0.7,0.7
	c-0.6,0.4-0.7,0.6-0.4,0.7c0.3,0.1,3.3-0.4,3.9-0.7c0.6-0.3,0.7-0.1,0.2,0.3c-0.2,0.2-0.4,0.5-0.4,0.6c0,0.3,2.6,0,3.7-0.4
	c0.6-0.2,1-0.3,1-0.2c0.1,0.1,0,0.4-0.2,0.8c-0.2,0.4-0.3,0.8-0.3,0.9c0,0.3,0.4,0.2,1-0.3c0.5-0.4,0.7-0.5,3.5-0.5
	c2.6,0,3,0.1,3.3,0.4c0.1,0.2,0.4,0.4,0.7,0.4s0.6,0.1,0.9,0.2c0.2,0.1,1,0.4,1.7,0.6c0.7,0.2,1.2,0.4,1.3,0.5
	c0.2,0.6-3.7,0.8-5.7,0.4c-0.8-0.2-2.5-0.3-3.7-0.3c-2.2,0-2.2-0.1-2.9-0.7c-1.1-1-1.5-0.8-0.9,0.7c0.1,0.2,0,0.3-0.3,0.3
	c-0.8,0-2.5-0.6-3.4-1.1C21.2,69,20,68.7,20,69c0,0.1,0.1,0.5,0.3,0.9c0.2,0.4,0.2,0.8,0.1,0.8c-0.5,0.4-3.2-0.3-4.3-0.9
	c-1-0.5-1.9-0.6-2-0.3c-0.1,0.1,0,0.4,0.2,0.7c0.1,0.3,0.2,0.6,0.2,0.7c-0.2,0.2-2.5,0.1-3.3-0.2c-0.7-0.3-0.9-0.3-1.3,0
	c-0.3,0.2-0.8,0.3-1.5,0.2c-0.6-0.1-1.3-0.1-1.8,0c-0.6,0.1-1,0.1-1,0.1s-0.1-0.6-0.1-1.1c0-0.9,0-1,0.7-1.2S7,68.2,6.6,67
	c-0.1-0.3,0-0.6,0.5-1.1c0.3-0.3,0.6-0.7,0.6-0.9c0-0.1-0.3-0.6-0.8-1.1c-0.5-0.5-0.8-1.1-1-1.3c-0.3-0.5-0.3-5.8,0-5.8
	c0.1,0,0.5,0.3,0.7,0.7c0.6,0.7,0.8,1,1.1,1c0.2,0,0.2-1.3-0.1-2.5c-0.3-1.2-0.2-2,0.2-3.8c0.2-0.9,0.3-1.2,0.1-1.4
	c-0.3-0.3-0.3-2,0.1-2.9c0.6-1.2,0.5-2.1-0.5-2.9c-0.5-0.5-0.8-1-0.9-1.6C6.4,43.1,6.2,42.9,6.4,42.9z M70.4,43.8
	c0,0,0.1,0.1,0.1,0.2c0.1,0.3,0.1,0.9,0,1.4c-0.1,0.5-0.2,1-0.3,1.1c-0.1,0.1-0.2,0-0.1-0.2s0.2-0.9,0.2-1.5
	C70.3,44,70.3,43.8,70.4,43.8z M67.9,45.7c0.2,0,0.5,0.4,0.6,1.4c0.1,0.6,0.2,1.9,0.3,3c0.1,1,0.2,2.4,0.1,3.1
	c-0.2,1.8-0.9,4.2-1.3,4.4c-0.2,0.1-0.3,0.3-0.1,0.4c0.3,0.4,0.3,1,0,1.6c-0.1,0.3-0.2,0.7-0.1,0.9c0.1,0.4,0.2,0.3,0.5,0
	c0.3-0.4,0.3-0.4,0.2,0.3c-0.3,1.4-1,2.5-1.9,2.7c-0.5,0.1-1.2,0.5-1.9,0.8c-1,0.5-1.1,0.6-1,1.2c0,0.4,0,0.9-0.1,1.2
	c-0.2,0.5-0.2,0.4-1.4-0.8l-1.1-1.3l-1,0.1c-0.6,0.1-1.2,0.2-1.7,0.2c-0.6,0.1-0.6,0,0.9-1.3c1.5-1.3,1.9-1.9,1.4-1.9
	c-0.1,0-0.3,0.2-0.6,0.4s-0.9,0.7-1.4,1l-0.9,0.6l-0.1-0.5c-0.1-0.7,0.2-1.4,0.7-1.3c0.2,0.1,0.5,0,0.5-0.2c0.1-0.2,0.2-0.2,0.5-0.2
	c0.2,0.1,0.3-0.1,0.5-0.5c0.1-0.7,0.5-0.8,0.6-0.3c0,0.2,0.1,0,0.1-0.3c0-1,0.2-1.6,0.6-1.6c0.1,0,0.1,0.1,0,0.3
	c-0.2,0.5-0.2,1.3,0.1,1.6c0.2,0.2,0.2,0.1,0.1-0.2c-0.1-0.5,0.2-2.1,0.6-2.4c0.1-0.1,0.2,0.1,0.1,0.7c-0.1,0.9-0.1,0.9,0.2,0.5
	c0.2-0.2,0.3-0.5,0.3-0.7s0.1-0.4,0.2-0.5s0.2,0,0.2,0.2c0,0.2,0.1,0.3,0.2,0.3c0.1,0,0.2-0.2,0.2-0.5c0-0.3,0.1-0.5,0.2-0.5
	s0.1,0.3,0.1,0.7c0,0.4,0,0.7,0,0.7c0.2,0,0.8-1.2,0.7-1.4c-0.2-0.3,0.9-0.5,1.7-0.3c0.5,0.1,0.7,0,0.6-0.1c-0.1-0.4-2-0.4-2.9-0.1
	c-1.1,0.4-1.2,0.4-0.8-0.2c0.5-0.5,0.6-0.5,2.1-0.5c0.9,0,1.7-0.1,1.7-0.2c0-0.3-0.9-0.4-2-0.3c-0.9,0.1-1.1,0.1-1.1-0.2
	c0-0.4,0.6-0.7,1.1-0.6c0.2,0.1,0.5,0,0.6-0.1c0.1-0.1,0-0.2-0.3-0.2c-0.6,0-0.6,0,0.1-1c0.8-1.1,1.5-2.9,2.2-5.3
	c0-0.1,0.2-0.2,0.6-0.2c0.2,0,0.5-0.1,0.6-0.2c0.1-0.1-0.1-0.2-0.3-0.2c-0.3,0-0.4-0.1-0.4-0.4c0-0.2,0.1-0.4,0.3-0.4
	c0.2,0,0.3-0.1,0.3-0.2s-0.1-0.2-0.2-0.2c-0.3,0-0.3-0.8,0-0.9C67.7,45.7,67.8,45.7,67.9,45.7z M67.9,49.1c-0.2,0-0.4,0.1-0.4,0.2
	s0.2,0.2,0.4,0.2s0.5-0.1,0.5-0.2S68.1,49.1,67.9,49.1z M67.8,50.5c-0.3,0-0.6,0.1-0.6,0.2c0,0.1,0.2,0.2,0.6,0.2
	c0.3,0,0.6-0.1,0.6-0.2C68.3,50.6,68,50.5,67.8,50.5z M67.4,51.9c-0.2,0-0.5,0.1-0.5,0.2s0.2,0.2,0.5,0.2c0.2,0,0.4-0.1,0.4-0.2
	S67.7,51.9,67.4,51.9z M66.8,53.4c-0.2,0-0.3,0.1-0.3,0.2c0.1,0.1,0.2,0.2,0.5,0.2s0.3-0.1,0.3-0.2C67.2,53.5,67,53.4,66.8,53.4z
	 M66.1,54.8c-0.3,0-0.7,0.1-0.7,0.2s0.3,0.2,0.7,0.2c0.3,0,0.7-0.1,0.7-0.2S66.4,54.8,66.1,54.8z M65,57.5c0,0-0.1,0.1-0.3,0.5
	s-0.5,1-0.5,1.4c0.1,0.9,0.3,0.7,0.5-0.3c0.1-0.5,0.2-1.1,0.2-1.4C65,57.6,65,57.6,65,57.5z M65.8,58.2c-0.2,0-0.3,0.1-0.6,0.3
	c-0.2,0.3-0.2,1.5,0,1.9c0.1,0.1,0.1,0.1,0.2-0.1c0-0.2,0.2-0.6,0.4-0.9c0.2-0.4,0.3-0.8,0.3-0.9C66.1,58.2,66,58.2,65.8,58.2z
	 M66.9,58.4c0,0-0.1,0.1-0.3,0.3c-0.3,0.2-0.5,0.6-0.5,1.1c0,0.4,0.1,0.7,0.1,0.7c0.1,0,0.4-0.7,0.7-1.5
	C66.9,58.5,67,58.4,66.9,58.4z M62.5,60.1l-1.1,1.2c-1,1.1-1.4,1.7-0.7,1.7c0.1,0,0.5-0.3,0.8-0.6c0.3-0.3,0.8-0.6,0.9-0.6
	c0.2,0,0.2,0.1,0,0.2c-0.5,0.4-0.3,0.7,0.3,0.9c0.3,0.1,0.7,0.2,0.7,0.2c0.2,0.1,0.9-0.4,0.9-0.7c0-0.2,0.1-0.3,0.3-0.2
	c0.2,0.1,0.5-0.1,0.8-0.4c0.4-0.5,0.4-0.6,0-0.9c-0.2-0.2-1-0.5-1.7-0.6L62.5,60.1z M56.6,62.7c0.1,0,0.2,0.2,0.1,0.6
	c-0.1,0.3-0.2,0.7-0.3,0.8c-0.1,0.1-0.1,0-0.1-0.3c0.1-0.3,0.1-0.6,0.1-0.8C56.4,62.8,56.5,62.7,56.6,62.7z M62.5,63.1
	C62.4,63.1,62.4,63.1,62.5,63.1c-0.2,0.1-0.3,0.2-0.3,0.3s0.1,0.2,0.2,0.2s0.2-0.1,0.2-0.3C62.6,63.2,62.5,63.2,62.5,63.1z
	 M55.5,63.3C55.5,63.3,55.6,63.3,55.5,63.3c0.2,0,0.2,0.2,0.1,0.4c-0.1,0.3-0.8,0.6-0.8,0.4c0-0.1,0.1-0.3,0.3-0.6
	C55.3,63.4,55.4,63.3,55.5,63.3z M64.2,63.4c-0.1,0-0.3,0.1-0.6,0.2c-0.3,0.2-0.7,0.4-0.7,0.4c0,0.2,0.5,0.1,0.9-0.1
	C64.2,63.8,64.3,63.6,64.2,63.4C64.3,63.4,64.3,63.4,64.2,63.4z M65.5,64C65.6,64,65.6,64,65.5,64c0.1,0.2,0,0.3-0.2,0.4
	c-0.2,0.1-0.3,0.1-0.3,0c0,0,0.1-0.2,0.3-0.3C65.4,64,65.5,64,65.5,64z M54.2,64.1c0.1,0-0.1,0.2-0.3,0.4c-0.3,0.4-1.5,0.6-1.5,0.3
	C52.5,64.7,53.9,64.1,54.2,64.1z M66.7,64.2c0.1,0,0.1,0,0.2,0c0.2,0.2,0.1,0.2-0.1,0.2c-0.4,0-1.3,1-1.1,1.3c0.1,0.1,0.6-0.1,1-0.6
	c0.8-0.8,0.9-0.8,1.2-0.4c0.6,0.6,1.7,2.2,1.9,2.6c0.1,0.2,0,0.5-0.3,0.8c-0.6,0.5-0.8,0.5-2-0.3c-0.6-0.4-1.1-0.7-1.3-0.8
	c-0.2-0.1,0.1-0.4,0.7-1c0.6-0.5,0.9-0.9,0.8-1c-0.2-0.3-1,0.3-1.6,1l-0.6,0.8v-0.4c-0.1-0.3-0.1-0.7-0.2-0.9
	C65,65.1,66.1,64.2,66.7,64.2z M54.1,65.2C54.1,65.2,54.2,65.2,54.1,65.2c0.9,0.2,1.5,2.2,0.8,2.4c-0.2,0.1-0.3,0.2-0.3,0.4
	c0,0.1-0.3,0.5-0.9,0.8c-0.9,0.6-2,0.7-3.5,0.3c-0.5-0.1-1.4-0.2-2-0.2h-1.2l1-0.3c0.6-0.2,1.5-0.3,1.9-0.3c1.2,0,2.8-0.4,2.4-0.6
	c-0.1-0.1-0.6-0.1-0.9,0c-1,0.2-0.6-0.1,0.8-0.6c0.7-0.2,0.9-0.3,0.6-0.3l-0.7,0.1l0.6-0.4l0.6-0.4l-0.6,0.1
	c-0.3,0.1-0.9,0.1-1.4,0.2c-0.7,0.1-0.7,0.1-0.2-0.1c0.3-0.1,1-0.4,1.7-0.7C53.2,65.4,53.7,65.2,54.1,65.2z M58.8,65.7
	c0.2,0,0.5,0.2,0.7,0.7c0.2,0.4,0.8,1.1,1.2,1.6c0.9,0.9,2.2,1.3,3.7,1.3c0.3,0,0.6,0.1,0.6,0.2c0,0.3-2.8,0.2-3.7-0.1
	c-1.5-0.6-3.1-2.7-2.8-3.5C58.6,65.9,58.7,65.7,58.8,65.7z M56.2,66.1c0.1,0,0.3,0.5,0.7,1.1c0.3,0.6,0.8,1.4,1.2,1.8
	c0.5,0.4,0.8,0.9,0.8,1c0,0.1-0.2,0.2-0.6,0.2s-0.5-0.1-0.3-0.1c0.5-0.2,0.3-0.5-0.2-0.5c-0.3,0-0.5-0.1-0.3-0.3
	c0.1-0.2,0-0.3-0.1-0.3s-0.2-0.2-0.2-0.4c0-0.3-0.1-0.4-0.5-0.3c-0.3,0.1-0.5,0.1-0.2-0.1c0.3-0.3,0.3-0.6-0.1-0.6
	c-0.2,0-0.3-0.1-0.2-0.3c0.1-0.2,0-0.4-0.1-0.5C55.7,66.6,55.9,66.1,56.2,66.1z M67.4,66.1c-0.5,0-1.1,0.6-1.1,0.9s0.2,0.2,0.9-0.3
	C67.7,66.2,67.8,66.1,67.4,66.1z M50.1,66.5c0.2,0,0.2,0.1,0.1,0.2c-0.2,0.2-1.6,0.6-1.6,0.5c0,0,0.3-0.2,0.7-0.4
	C49.6,66.7,49.9,66.6,50.1,66.5z M68.1,66.5c-0.4,0-0.9,0.4-0.9,0.8c0,0.3,0.7,0.1,1.1-0.4C68.6,66.6,68.5,66.5,68.1,66.5z
	 M68.3,67.3c-0.2,0-0.5,0.1-0.5,0.2c0,0.1,0.1,0.2,0.3,0.2s0.3-0.1,0.4-0.2C68.7,67.4,68.6,67.3,68.3,67.3z M45.3,68
	c0.3,0,0.5,0.1,0.5,0.4c0,0.3,0.1,0.4,0.2,0.3c0.1-0.1,0.5-0.2,0.7-0.2c0.3-0.1,0.3-0.1,0.1,0.1c-0.2,0.1-0.2,0.2-0.1,0.2
	s0.1,0.1-0.1,0.2c-0.5,0.3-1.7,0.2-2.4-0.1c-0.3-0.2-1.2-0.4-1.9-0.4c-1.2-0.1-1.4-0.1-1.9,0.5c-0.7,0.7-1,0.7-2,0.3L37.6,69h0.9
	c0.6,0,1.1-0.2,1.4-0.4c0.6-0.5,1.5-0.7,2.7-0.5c0.6,0.1,1.4,0.1,1.6,0C44.7,68.1,45.1,68,45.3,68z M8.9,68.3
	c-0.1,0-0.3,0.1-0.5,0.2c-0.2,0.1-0.3,0.3-0.2,0.3C8.6,68.8,9.2,68.4,8.9,68.3C9.1,68.3,9.1,68.3,8.9,68.3z M16.8,68.3
	c-0.8,0-2.1,0.2-2.2,0.4c-0.1,0.1,0.2,0.1,0.8,0c0.4-0.1,1.2-0.1,1.7-0.1c0.6,0,0.7-0.1,0.4-0.2S17.2,68.3,16.8,68.3z M30.1,68.9
	c-0.3,0-1.9,0.7-1.9,0.9c0,0.1,0.2,0.2,0.3,0.2C29,70,30.3,69.1,30.1,68.9L30.1,68.9z M28.3,69c-0.3,0-0.8,0.4-0.7,0.6
	c0.1,0.1,0.3,0,0.6-0.2c0.2-0.2,0.3-0.4,0.2-0.4C28.3,69,28.3,69,28.3,69z M31.4,69c-0.3,0.1-1.4,0.6-1.4,0.8c0,0.1,0,0.1,0.1,0.1
	C30.4,70,31.7,69.2,31.4,69C31.6,69,31.6,69,31.4,69z M12.7,69.2c-0.2,0-0.8,0.1-1.1,0.2c-0.3,0.1-1.5,0.3-2.4,0.3
	c-1.6,0.1-1.8,0.1-1.9-0.2c-0.1-0.3-0.1-0.3-0.8,0.1c-0.3,0.3-0.7,0.6-0.7,0.7c0,0.2,0.1,0.2,0.3,0.1c0.2-0.1,1.3-0.2,2.6-0.3
	c2.5-0.2,3.3-0.3,3.9-0.7C13.1,69.2,13.1,69.2,12.7,69.2z M32.8,69.3c-0.1,0-0.2,0.1-0.6,0.2c-0.3,0.2-0.7,0.4-0.7,0.5
	c0,0.3,0.2,0.2,0.8-0.1C33,69.6,33.1,69.3,32.8,69.3z M34.1,69.8c-0.1,0-0.3,0.1-0.5,0.3c0,0.1,0,0.2,0.2,0.1
	C34.1,70.1,34.3,70,34.1,69.8C34.3,69.9,34.3,69.8,34.1,69.8z M35.2,70.2c-0.2,0-0.5,0.1-0.5,0.2s0.1,0.2,0.3,0.2s0.3-0.1,0.5-0.2
	S35.4,70.2,35.2,70.2z M36.7,16.7c0,0,0.3,0.3,0.8,0.6c0.6,0.6,0.8,0.7,2.1,0.7c0.9,0.1,1.8,0.2,2.4,0.5c0.5,0.2,1.2,0.5,1.6,0.6
	c1.5,0.4,2.6,1.8,3.2,3.7c0.3,1.2,0.2,3.7-0.2,6.1c-0.2,0.9-0.3,1.7-0.2,1.7c0,0.1,0.3-0.3,0.6-0.7c0.3-0.4,0.6-0.7,0.6-0.7
	c0.1,0.1-0.3,1.4-0.6,2c-0.6,1.2,1.2,0.1,2.2-1.4c0.5-0.6,0.7-0.9,0.8-0.7c0.1,1.2-0.3,2.5-1.2,3.4c-0.7,0.8-1.1,1-1.5,0.7
	c-0.3-0.2-0.9,0.1-0.6,0.3c0.1,0.1,0.6,0.3,0.9,0.5c1.2,0.6,1.2,0.8,0.1,1.5c-1.2,0.8-1.6,1.1-2.2,2.7c-0.3,0.7-0.7,1.6-0.8,2
	c-0.6,1.2-1.2,2.5-1.9,3.3c-0.6,0.7-1.4,2.2-1.1,2.2c0.1,0,0.3-0.3,0.6-0.8c0.6-1.2,2.6-3.6,3.4-4.2c0.5-0.3,0.9-0.5,1.1-0.5
	c0.7,0,1.6-0.5,1.7-1.1c0.2-0.8,0.5-0.6,0.5,0.3c0,1.3-0.7,2.3-1.8,2.6c-1.7,0.5-4.6,2.6-4.6,3.3c0,0.1-0.1,0.5-0.2,0.8
	c-0.2,0.6-0.2,0.6,0,0.9c0.2,0.2,0.3,0.2,0.5-0.1c0.2-0.6,1.1-1.7,1.6-2c0.2-0.2,0.8-0.3,1.2-0.3c0.7,0,1,0.1,2.2,0.7
	c0.2,0.1,0.2,0.1,0.1-0.1c-0.1-0.1-0.6-0.5-1.1-0.7c-0.8-0.4-0.9-0.5-0.5-0.5c0.2,0,0.5-0.1,0.3-0.2c0-0.1-0.3-0.2-0.7-0.2
	c-0.8,0-0.7-0.3,0-0.6c0.9-0.3,1.2-0.3,1.7,0.2c1.2,1.2,2.5,1.4,3.2,0.4c0.6-0.8,0.7-0.8,0.6,0c-0.3,2.2-2.2,3-4.2,1.9
	c-0.9-0.5-2.4-0.6-2.7-0.2c-0.1,0.2-0.1,0.2,0.3,0.1c1.1-0.3,2.4,0.9,1.8,1.9c-0.2,0.4-0.5,0.5-0.5,0.1c0-0.2,0.1-0.3,0.1-0.3
	c0.1,0,0.1-0.1,0.1-0.2c0-0.1-0.1-0.2-0.2-0.1c-0.1,0-0.2-0.1-0.2-0.2c0-0.2,0-0.2,0.1-0.1c0.1,0.1,0.1,0.1,0.1-0.1
	c0-0.2-0.3-0.3-1-0.3c-0.9,0-0.9,0-1.7,1c-0.5,0.5-0.8,1-0.9,1c-0.5,0-2.8-1.6-2.8-1.9c0-0.2,0.1-0.7,0.3-1.2c0.2-0.5,0.6-1.4,0.7-2
	c0.2-0.6,0.8-1.8,1.2-2.6c1-1.8,3.4-5.6,3.6-5.7c0.3-0.2,1-1,0.9-1.2c-0.1-0.2-2.1,2.4-3.3,4.2c-0.3,0.6-0.7,1-0.7,1s0.3-1,0.8-2.1
	c1.3-3.3,2.5-7,1.9-6.6c-0.1,0.1-0.2,0.4-0.2,0.6c-0.1,0.7-2,5.5-2.5,6.5c-0.7,1.3-0.8,1.6-1.2,2.6c-0.6,1.2-0.7,1.3-0.9,0.5
	c-0.1-0.6-0.2-0.6-0.3-0.3c-0.1,0.3-0.1,0.5,0,0.6c0.6,0.9,0.5,3-0.2,4.4c-0.6,1.1-0.8,1.4-1,1.4c-0.3,0-0.3-0.4-0.2-1.5
	c0.1-0.8,0.1-1.3,0-2.1c-0.3-2-0.3-2,0-2.4c0.2-0.2,0.6-0.7,0.7-1.1c2.8-6.9,4.2-10.5,4.4-11.6c0.1-0.7,0.3-1.4,0.5-1.4
	c0.1-0.1,0.2,0.8,0.2,2.1l0.1,2.2l0.5-1.1c0.7-1.7,0.8-2.8,0.8-4.8c0-1.5-0.1-2-0.3-2.8c-0.5-1.1-1.1-1.9-1.9-2.2
	c-0.7-0.2-1.2,0-2,1c-0.6,0.6-0.6,0.9-0.6,1.6c0,1.6,1,2.4,2.1,1.7c0.2-0.2,0.2-0.1-0.1,0.3c-0.5,0.4-0.6,0.5-1.2,0.4
	c-0.6-0.1-0.8-0.2-1-0.6c-0.8-1.4-0.8-1.4-0.8,0.1c0,1,0.2,2,0.7,3.3c0.7,2.2,0.9,3.2,0.8,4.2l-0.3,1.4l-0.3-0.5
	c-0.2-0.2-0.8-0.8-1.2-1.3c-0.9-0.8-0.9-0.8-1.2-2.4c-0.1-0.9-0.3-1.6-0.5-1.5c-0.2,0.2-0.1,1.8,0.2,2.5c0.3,0.7,0.5,3.1,0.1,3.1
	c-0.1,0-0.3-0.5-0.6-1c-0.3-0.9-0.3-1.2-0.3-2.9c0.1-1.3,0-1.9-0.1-2c-0.1-0.1-0.1-0.5,0.2-1.4c0.3-1.3,0.7-1.6,0.7-0.7
	c0,0.3,0.1,0.9,0.2,1.4c0.1,0.5,0.2,1.1,0.3,1.5c0.1,0.3,0.1,0.5,0.2,0.5c0.1-0.1,0-1-0.2-2.1c-0.2-1.1-0.3-2.1-0.3-2.3
	c0-1,2.9-4.3,3.8-4.3c0.2,0,0.3-0.1,0.3-0.2c0-0.1-0.3-0.2-0.7-0.2c-0.7,0-1,0.3-2.1,1.6c-0.3,0.4-0.9,0.9-1.4,1.2
	c-0.7,0.4-0.8,0.6-0.8,1.1c0,0.3-0.3,1.1-0.9,2.1c-1.2,2.1-1.2,2.1-0.8,1.8c0.2-0.1,0.3-0.2,0.5-0.2c0.3,0-0.2,1.7-1.6,4.5
	c-0.2,0.5-0.3,1-0.3,1c0.1,0,0.3-0.4,0.6-0.9c0.2-0.5,0.6-1,0.7-1.2c0.2-0.2,0.2-0.2,0.1,0.6c-0.2,2,0.4,0.4,0.9-2.1
	c0.1-0.7,0.1-0.6,0.1,0.9c0,1-0.1,2.3-0.1,2.9c-0.1,1-0.1,1.3,0.1,2.1c0.1,0.5,0.5,1.2,0.7,1.5c0.5,0.5,0.5,0.6,0.1,0.6
	c-0.6,0-1.3-1.3-1.6-2.5c-0.2-1-0.1,0.3-0.8,0.8c-2.1,1.8-3.5,1.2-5.1-1.3c-1-1.6-0.9-3.4,0.3-5.1c1.1-1.5,1.2-2.5,0.2-2.5
	c-0.3,0-0.5-0.1-0.5-0.3c0.1-1,1.4-0.7,1.7,0.4c0.2,0.9,0.2,1.4-0.1,1.8c-0.3,0.4-0.1,0.8,0.1,0.4c0.2-0.3,0.5-0.3,0.5,0
	c0,0.2-0.2,0.6-0.6,0.9c-1.7,1.9-1.8,2-1.7,3c0.2,1.7,1,2.5,1,1c0-0.6,0.1-0.8,0.3-0.9c0.4-0.2,0.6,0,0.3,0.5
	c-0.2,0.6-0.2,1,0.1,1.8c0.2,0.6,0.4,0.7,0.9,0.7c0.8,0,1-0.8,1-1.8c0-0.4-1-1.7-1-2.8c0-0.8,1.4-2.5,1.5-2.9l0.3-1.3l-0.8,0.2
	c-0.7,0.1-1,0.1-1-0.3c0-0.1,0.6-0.4,1-0.4c1,0,0.8-0.8,1.1-1.5c0.3-0.7,0.6-1,1-1.1c0.3-0.1,0.8-0.3,0.9-0.5c0.3-0.3,0.3-0.3,0-0.3
	c-0.2,0-0.6,0.1-0.9,0.3c-0.7,0.3-1.9,0.3-2.4-0.1c-0.5-0.5-0.3-0.8,0.3-0.7s1.8-0.4,2.6-1.3C36.8,20,37,20,38.1,20s1.6-0.1,1.6-0.5
	c0-0.1-0.2-0.1-0.6-0.1c-1.3,0.3-2.8-0.8-2.8-2.2C36.6,17,36.6,16.7,36.7,16.7z M47.9,32.2C47.8,32.2,47.8,32.2,47.9,32.2
	c-0.2,0.1-0.2,0.2-0.2,0.3c0,0.1,0.1,0.2,0.1,0.1C47.9,32.5,48,32.4,47.9,32.2L47.9,32.2z M38.8,36.6c0.1,0,0,0.3-0.5,0.8
	c-0.6,0.8-1.2,2.7-1,3.1c0,0.1,0,0.4,0,0.6c-0.1,0.5-0.3,0.5-0.7-0.1c-0.2-0.5-0.2-0.6,0-1.6c0.3-1.1,0.9-2.1,1.6-2.5
	C38.5,36.7,38.6,36.6,38.8,36.6z M33.6,37c0.1,0,0.1,0.3,0,0.8c-0.2,1.6,0.1,2,1.6,2.4c0.7,0.2,1.9,1.6,2.2,2.8
	c0.3,1,0.5,2.5,0.2,3.1c-0.2,0.4-0.2,0.2-0.1-0.9c0-0.9-0.3-2.2-0.8-2.8c-0.4-0.6-0.6-0.4-0.2,0.3c0.3,0.8,0.7,3.1,0.3,3.3
	c-0.3,0.3-0.1,0.7,0.5,0.9c0.6,0.2,0.6,0.2,0.6,0.6c-0.1,0.6,0.1,1.5,0.3,1.5c0.1,0,0.2-0.4,0.2-0.8c0-0.6,0.1-0.8,0.2-0.7
	c0.1,0,0.2,0.3,0.1,0.5c0,0.2,0,0.7,0.1,1c0.2,0.6,0.6,0.8,0.5,0.1c-0.1-0.5,0.2-0.6,0.3-0.1c0,0.2,0.2,0.3,0.3,0.4
	c0.1,0.1,0.2,0,0-0.6c-0.2-0.9-0.1-1,0.6-0.5c0.7,0.5,0.7,0.6,0.3,1.2c-0.2,0.4-0.2,0.7,0.1,0.7c0.1,0,0.2-0.2,0.3-0.5
	c0.1-0.3,0.2-0.5,0.3-0.5c0.1,0,0.1,0.2,0,0.5c-0.1,0.6,0.3,0.7,0.5,0.1c0.1-0.2,0.2-0.4,0.3-0.4c0.2,0,0.2,0.1,0.1,0.2
	c-0.1,0.1-0.2,0.4-0.2,0.5c0,0.4,0.3,0.3,0.5-0.1c0-0.2,0.2-0.4,0.3-0.4c0.2,0,0.2,0.1,0.1,0.4c-0.1,0.2-0.2,0.5-0.2,0.6
	c0,0.4,0.3,0.2,0.6-0.3c0.1-0.3,0.3-0.5,0.5-0.5c0.2,0,0.3,0.3,0,0.5c-0.2,0.2-0.2,0.7,0,0.7c0.1,0,0.2-0.2,0.2-0.5
	c0-0.3,0.2-0.5,0.3-0.5c0.2,0,0.3,0.3,0.1,0.5s-0.2,0.7,0,0.7c0.1,0,0.2-0.3,0.3-0.6c0.1-0.5,0.2-0.6,0.7-0.5
	c0.6,0.1,0.6,0.1,0.2,0.8c-0.1,0.3-0.2,0.6-0.1,0.7c0.1,0.2,0.8-0.7,0.8-1.1c0-0.2,0.1-0.3,0.2-0.3c0.2,0,0.2,0.4-0.1,0.9
	c-0.1,0.3-0.2,0.6-0.1,0.6c0.1,0.2,0.6-0.3,0.8-1c0.1-0.3,0.2-0.6,0.3-0.6c0.2,0,0.1,0.4-0.2,1.1c-0.3,0.5-0.3,0.6-0.1,1
	c0.2,0.4,0.3,2.7,0.1,2.7c-0.1,0-0.1-0.2-0.1-0.5c0-0.3,0-0.5-0.2-0.6c-0.3-0.2-0.6,0-0.6,0.5c0,0.2-0.1,0.4-0.2,0.4
	c-0.1,0-0.1-0.3-0.1-0.7c0.1-0.8-0.2-1.2-0.3-0.5c-0.5,0.1-0.5,0.1-0.6-0.6l-0.1-0.7l-0.3,0.7l-0.2,0.7l0.1-0.8
	c0.1-0.9-0.1-1-0.3-0.1l-0.2,0.7v-0.7c0-0.8-0.3-0.8-0.6,0c-0.1,0.4-0.1,0.3-0.2-0.5C43.4,51.1,43,51,43,52c0,1.1-0.5,0.6-0.5-0.5
	v-0.4l-0.1,0.4c-0.2,0.6-0.5,0.6-0.6-0.2c-0.1-0.5-0.1-0.6-0.2-0.3c-0.1,0.4-0.5,0.4-0.5-0.1s-0.1-0.5-0.6-0.1l-0.3,0.3l0.3,0.4
	l0.3,0.4l-0.5-0.1l-0.5-0.1l0.3,0.4c0.2,0.2,0.5,0.5,0.6,0.5c0.1,0.1,0.1,0.1,0,0.3c-0.1,0.1,0,0.3,0.5,0.7c0.3,0.3,0.6,0.5,0.3,0.4
	c-0.5-0.2-0.5,0.2,0,0.5c0.2,0.1,0.3,0.3,0.3,0.4c0,0.1,0.1,0.4,0.2,0.6c0.2,0.3,0.2,0.3-0.1,0.2c-0.2,0.2-0.3,0-0.2-0.2
	c0.1-0.5-0.6-0.9-1.1-0.6l-0.5,0.2l0.3-0.4c0.5-0.5,0.3-0.9-0.1-0.6c-0.5,0.3-0.7,0.2-0.2-0.1c0.5-0.4,0.2-0.6-0.3-0.3
	c-0.5,0.3-0.6-0.1-0.1-0.4c0.2-0.2,0.3-0.3,0.2-0.4s-0.3-0.1-0.6,0.1c-0.2,0.2-0.5,0.2-0.5,0.1c0-0.1,0.1-0.2,0.2-0.3
	s0.1-0.2,0.1-0.2c-0.1-0.1-0.2,0-0.3,0.1s-0.3,0.2-0.3,0.1c-0.1-0.1,0-0.2,0.1-0.3c0.1-0.1,0.2-0.2,0.1-0.3c-0.1-0.1-0.3,0-0.6,0.2
	c-0.7,0.5-0.7,0.4-0.1-0.3c0.7-0.7,0.6-1-0.2-0.5c-0.3,0.2-0.6,0.3-0.6,0.2s0.1-0.2,0.2-0.3c0.3-0.2,0.3-0.6-0.1-0.5
	c-0.2,0.1-0.5,0-0.6-0.2c-0.2-0.3-0.2-0.3-0.5,0c-0.3,0.6-0.2,1.6,0.2,2.3c0.5,0.7,0.8,1.4,0.6,1.6c0,0-0.3-0.1-0.7-0.4
	c-0.3-0.3-0.7-0.5-0.7-0.5c-0.1,0-0.1,0.6-0.1,1.3c0,0.9,0.1,1.5,0.3,2c0.2,0.4,0.3,0.8,0.3,0.8s-0.3-0.1-0.6-0.3
	c-0.5-0.3-0.6-0.7-0.9-1.8c-0.5-1.9-0.5-3.3,0.1-4.2c0.5-0.8,0.6-2,0.3-2.1c-0.1,0-0.2,0.1-0.2,0.2c0,0.2-0.2,1-0.5,1.9
	c-0.3,1.5-0.3,1.7-0.2,3.1c0.1,1.2,0.3,1.7,0.7,2.4c0.2,0.5,0.4,0.9,0.4,1c0,0-0.3-0.1-0.7-0.3c-0.9-0.6-1.5-1.7-1.5-3v-1L33,53.9
	c-0.9,0.2-2.1-0.3-2.5-1c-0.2-0.6-0.1-0.7,0.5-0.2c0.8,0.8,2.1-0.1,2.1-1.4c0-0.3,0.1-0.9,0.2-1.4c0.1-0.5,0.2-0.9,0.2-1
	c-0.2-0.2-0.5,0.2-0.6,0.9c-0.1,0.4-0.2,0.7-0.3,0.7c-0.2,0-0.1-0.2,0-0.9c0.2-0.9,0.2-1.3-0.1-1c-0.1,0.1-0.2,0.5-0.2,0.9
	c-0.1,1-0.5,1.1-1.2,0.3c-0.6-0.6-0.6-0.6-0.2-2.4c0.1-0.4,0-1.2-0.1-1.9c-0.1-0.7-0.3-1.7-0.3-2.1c-0.1-0.8-0.1-0.8,0.3-0.9
	c0.3,0,0.6,0.1,0.8,0.5c0.9,1.7,3,3.7,3.8,3.7c0.2,0,0.4-2.1,0.3-2.9c-0.1-0.7-0.3-1-1.1-1.5c-1.6-1-2.1-2.5-1.6-4.4
	C33.4,37.3,33.5,37,33.6,37z M41.8,39.4L41.8,39.4c0.1,0.1,0,0.3-0.2,0.6c-0.2,0.3-0.3,0.4-0.3,0.3C41.2,40,41.7,39.3,41.8,39.4z
	 M35.3,40.8c-0.1,0,0,0.2,0.2,0.4c0.5,0.5,0.7,0.5,0.2,0C35.6,41,35.4,40.8,35.3,40.8z M30.7,40.9c0,0,0.1,0.1,0.2,0.2
	c0.1,0.2,0.3,0.3,0.5,0.3c0.1,0,0.1,0.1,0.1,0.2s-0.2,0.2-0.4,0.3c-0.3,0.1-0.5,0-0.5-0.5C30.7,41,30.7,40.9,30.7,40.9z M40.9,41.1
	C41,41.1,41,41.1,40.9,41.1c0.1,0.2,0,0.3-0.1,0.3s-0.1,0-0.1-0.1C40.7,41.3,40.7,41.2,40.9,41.1C40.8,41.1,40.9,41.1,40.9,41.1z
	 M29.9,41.3c0.1,0,0.1,0.2,0.1,0.7c0,1.4,0,1.5,0.2,1.8c0.1,0.2,0.1,0.3,0,0.4c-0.1,0.1-0.2,0.3-0.2,0.5c-0.2,0.8-0.4,0.3-0.3-1.3
	C29.6,42.2,29.8,41.3,29.9,41.3z M38.9,41.8c-0.1,0-0.1,0.1-0.1,0.3c0,0.2,0.1,0.3,0.1,0.3c0.1,0,0.2-0.1,0.2-0.3
	C39,41.9,39,41.8,38.9,41.8z M31.7,42.8c-0.1,0-0.2,0.3-0.3,0.6c-0.1,0.3-0.2,0.6-0.1,0.6s0.2-0.3,0.3-0.6
	C31.7,43.1,31.7,42.8,31.7,42.8z M31.8,43.9c-0.1,0-0.3,0.2-0.4,0.6c-0.1,0.4-0.1,0.6,0.1,0.9c0.1,0.2,0.3,0.4,0.3,0.4
	c0.1,0.1,0.7-1.7,0.6-1.8c0-0.1-0.2,0-0.3,0.2c0,0.3-0.1,0.2-0.1,0C31.9,44,31.9,43.9,31.8,43.9z M30.3,44.5c0.1,0,0.1,0.3,0,0.8
	c-0.1,0.8-0.1,0.9,0.2,0.5c0.2-0.4,0.2-0.4,0.2,0.5c-0.1,0.6,0,1,0.1,1.1c0.1,0.1,0.1,0.2,0.1,0.3c-0.1,0.3-0.6,0.2-0.8-0.3
	c-0.5-0.8-0.5-1.3-0.2-1.7c0.1-0.2,0.2-0.5,0.2-0.7C30.1,44.9,30.2,44.6,30.3,44.5C30.3,44.6,30.3,44.5,30.3,44.5z M33.1,45.3
	c-0.2,0-0.7,0.2-0.8,0.5c-0.3,0.6-0.3,1.1,0,0.9c0.2-0.1,0.2,0,0.2,0.2s0,0.3,0.1,0.3c0.2,0,0.8-1.3,0.8-1.7
	C33.4,45.3,33.2,45.2,33.1,45.3z M33.7,45.7c-0.1,0-0.3,0.3-0.5,0.7c-0.1,0.4-0.2,0.8-0.2,0.9c0,0.3,0.5,0.3,0.5,0
	c0-0.1,0.1-0.1,0.2,0.1c0.2,0.4,0.5,0.5,0.5,0.2c0-0.1,0.1-0.1,0.3-0.1c0.2,0.1,0.3,0,0.3-0.4c0-0.3-0.1-0.5-0.2-0.5
	s-0.1,0.1-0.1,0.2S34.4,47,34.3,47s-0.1-0.1-0.1-0.3c0-0.2-0.1-0.3-0.1-0.3c-0.1,0-0.2-0.1-0.2-0.3C33.8,45.8,33.8,45.7,33.7,45.7z
	 M42.1,46.6C42.2,46.6,42.2,46.6,42.1,46.6c0.1,0.2,0,0.3-0.1,0.3s-0.1,0-0.1-0.1C41.9,46.8,42,46.7,42.1,46.6L42.1,46.6z
	 M35.3,46.7c-0.1,0-0.2,0.2-0.2,0.5c0,0.3,0.1,0.5,0.2,0.5s0.1-0.2,0.1-0.5C35.5,46.9,35.4,46.7,35.3,46.7z M36.5,46.8
	c-0.1,0-0.2,0.5,0,1.1l0.2,0.6l0.1-0.7c0-0.4,0-0.8-0.1-0.9S36.5,46.8,36.5,46.8z M35.9,46.9c-0.1,0-0.1,0.1-0.1,0.3
	c0,0.2,0.1,0.3,0.1,0.3c0.1,0,0.1-0.1,0.1-0.3C36.2,47,36.1,46.9,35.9,46.9z M37.2,46.9c-0.1,0-0.2,1.3,0,1.5
	c0.2,0.3,0.3,0.1,0.2-0.7C37.4,47.3,37.3,46.9,37.2,46.9z M31.8,47.7c-0.1,0-0.6,0.9-0.6,1.2c0,0.4,0.2,0.2,0.4-0.4
	C32,48,32,47.7,31.8,47.7z M32.5,47.9c-0.1,0-0.3,0.4-0.5,1.1c-0.1,0.6-0.1,0.8,0.1,0.8C32.2,49.8,32.7,48.2,32.5,47.9
	C32.5,48,32.5,47.9,32.5,47.9z M34.4,48.8c-0.1,0-0.2,0.3-0.2,0.7c-0.1,0.4-0.1,0.8-0.2,1c0,0.2,0,0.3,0.2,0.3
	c0.1,0,0.2-0.2,0.2-0.4s0-0.7,0.1-1C34.5,49,34.5,48.8,34.4,48.8z M35.2,49L35.2,49c-0.2,0.1-0.6,1.1-0.3,1.3c0.1,0.2,0.6-0.5,0.6-1
	C35.3,49.1,35.3,49,35.2,49z M36.5,49.6c-0.2,0-0.5,1.3-0.3,1.7c0.1,0.1,0.2-0.1,0.3-0.6C36.8,49.7,36.8,49.6,36.5,49.6z M45.5,50
	c-0.2,0-0.7,0.6-0.7,0.9c0,0.3,0.2,0.1,0.6-0.4C45.6,50.2,45.6,50,45.5,50z M49,50c0.2,0,0.3,0.2,0.2,0.4c-0.1,0.2-0.1,0.2-0.2,0
	c0-0.2-0.1-0.2-0.3,0.1c-0.1,0.2-0.3,0.2-0.3,0.1s0.1-0.3,0.2-0.5C48.8,50.1,48.9,50,49,50z M47.8,50.6c0.1,0,0,0.2,0,0.5
	c0,0.2-0.2,0.3-0.2,0.3c-0.2,0-0.1-0.3,0.1-0.6C47.6,50.7,47.6,50.6,47.8,50.6z M49.6,50.8c0.1,0,0,0.2-0.1,0.5
	c-0.1,0.3-0.3,0.5-0.5,0.5s0-0.2,0.1-0.5C49.3,51,49.4,50.8,49.6,50.8z M48.2,51c0.1,0,0,0.2-0.1,0.6c-0.1,0.3-0.2,0.6-0.3,0.6
	s0-0.5,0.1-0.9C48.1,51.1,48.2,51,48.2,51z M49.6,51.6c0.1,0,0.2,0.2,0.2,0.5c0,0.3-0.1,0.5-0.1,0.4c-0.1-0.1-0.2,0-0.3,0.1
	c-0.2,0.3-0.3-0.1,0-0.7C49.3,51.7,49.4,51.6,49.6,51.6z M48,52.9c0.1,0,0.1,0.1,0,0.2c0,0.2-0.1,0.4-0.1,0.5c0,0.1-0.1,0.2-0.2,0.2
	c-0.2,0-0.2-0.8,0.1-0.9C47.9,52.9,48,52.9,48,52.9z M48.5,53.8c0.2,0,0.3,0.2,0.2,0.5c-0.1,0.4-0.3,0.4-0.3-0.1
	C48.4,54,48.4,53.8,48.5,53.8z M42.1,56.5c0.1,0,0.1,0,0.2,0.1c0.1,0.2,0,0.3-0.3,0.5c-0.6,0.4-1.1,0.4-0.6,0.1
	c0.2-0.1,0.5-0.4,0.6-0.5C42,56.5,42,56.5,42.1,56.5z M41.3,56.7c0,0,0,0.1-0.1,0.2c-0.3,0.3-0.2,1,0.1,1c0.3,0,1.2-0.6,1.4-0.9
	c0.1-0.1,0.2-0.1,0.3,0.1c0.2,0.2,0.2,0.4,0,0.5c-0.2,0.3-0.5,0.3-0.3,0c0-0.1,0-0.2-0.1-0.2s-0.2,0.1-0.2,0.2
	c0,0.1-0.2,0.2-0.3,0.2s-0.5,0.2-0.7,0.4c-0.3,0.3-0.6,0.3-0.8,0.2c-0.2-0.1-0.3-0.3-0.3-0.4C40.3,57.7,40.9,57,41.3,56.7L41.3,56.7
	z M42.5,58c0.1,0,0.2,0,0.2,0.1c0,0.2-0.3,0.3-0.5,0.1C42.2,58.1,42.4,58,42.5,58z M38.4,62.8c2.8,0,5.2-0.6,7.3-1.9
	c2-1.2,3.8-2.9,5.2-4.9c1.3-2,2.5-4.3,3.2-6.9c0.7-2.6,1-5.3,1-8c0-2.9-0.5-6.9-1.2-9.6c-0.8-2.8-1.5-5.1-2.4-6.8
	c-1.2-2.4-3.6-5.7-5.8-7.3c-5-3.5-11-2.7-12.8-2.3c-3,0.7-3.6,5.3-3.8,6c-0.1,0.6-0.2,1.3-0.3,2.3c-0.1,1-0.2,2.2-0.3,3.5
	c-0.1,1.3-0.2,2.8-0.2,4.3c0,1.5-0.1,3.1-0.1,4.8c0,3.7,0,6.9,0,9.3c0,2.5,0.1,4.6,0.1,6.1c0,1.6,0.1,2.7,0.2,3.5
	c0.1,0.8,0.1,1.3,0.2,1.5c0.1,0.7,0.4,1.5,1,2.2s1.2,1.4,2.1,2c0.9,0.6,1.9,1.1,3,1.5C35.7,62.6,37,62.8,38.4,62.8z M16.5,15.8
	c-0.8,0-1.7,0.1-4.7,2.5c-1.8,1.4-1.9,1.8-1,2.3c1.3,0.7,0.6,2.8-1.1,2.8S7.3,21.9,8,19.9c0.3-0.7,0.3-1.1,0.2-1.3
	c-0.1-0.1-0.2-0.6-0.3-0.9c-0.1-0.4-0.3-0.8-0.6-1S6.9,16.2,6.8,16c-0.1-0.4-0.1-0.4,1.2-0.4c0.8,0,1.7-0.1,2.1-0.2
	c0.8-0.2,2.4-1.6,2.4-2c0-0.2-1.9-0.9-2.6-0.9c-0.4,0-1.3-0.9-1.5-1.5c-0.1-0.6,0-0.9,0.5-1.5c0.4-0.7,0.9-1,1.6-1
	c0.2,0,0.4,0,0.7,0.1c1.2,0.2,1.7,1.1,1.4,2.4l-0.2,0.6l1-0.1c0.6-0.1,1.7-0.3,2.6-0.4c1-0.2,3.4-0.4,6.1-0.4c2,0,2.4,1.1,3.1,1.2
	c1.8,0.2,2.4-0.8,4.3-0.8c9.2-0.7,14.9,0.5,19.6,3c3.1,1.7,6.4,4,8.7,6.7c1.9,2.2,4,5.6,5.1,8.2c1,2.7,1.5,5.4,1.5,8.3
	c0,3.4-0.7,6.8-1.9,10.1c-1.2,3.4-3.1,6.4-5.5,9.1c-2.4,2.7-5.3,4.9-8.7,6.6c-3.4,1.7-7.2,2.5-11.4,2.5c-0.9,0-2-0.1-3.4-0.2
	c-1.4-0.2-2.7-0.4-4.2-0.6c-1.5-0.3-2.8-0.6-4.2-0.9c-1.4-0.3-2.5-0.7-3.4-1c-1.1,0.6-2.5,1.2-4,1.8c-1.7,0.6-2-1.4-1.2-2
	c0.8-0.6,1.4-1.4,1.8-2.4c0.2-0.6,0.3-1.6,0.6-2.9c0.2-1.3,0.3-2.9,0.4-4.7s0.2-3.9,0.3-6.1c0.1-2.2,0.1-4.6,0.1-7.1
	c0-5.6-0.1-14.9-0.4-18s-0.7-5.1-1.2-5.4C17.6,16,16.8,15.8,16.5,15.8z M12.8,60.2c2.8-5.7-2.4-11.2-1.6-11.1c1,0.2,0-4.9,0.8-5.4
	c0.7-0.5,0.8-1,0.7-2.1c-0.1-0.7-0.2-0.9-0.7-1.3c-1.1-0.8-2.4-0.4-2.6,0.9c-0.1,0.3-0.1,0.2-0.1-0.3c0-0.6,0-0.7,0.5-1.2
	c0.3-0.4,0.7-0.5,1.1-0.5c1.6,0,1.6,0,0.4-0.7c-0.8-0.5-1.6-0.8-2.7-1.1C6.6,37,6,35.8,6,35.8s0.7,0.2,1.2,0
	c1.1-0.3,0.7-0.3,2.1-0.4c0.7,0.3,1.4,0.5,1.4,0.4c0-0.3-1.1-1-1.9-1.1c-0.7-0.1-2.5-1.2-2.2-1.4c0.1-0.1,0.6-0.1,1.1,0
	c0.9,0.2,1.1,0.3,2.2,1.2c0.9,0.7,1.4,1,1.5,0.9c0.2-0.1,0.3,0.1,0.9,0.8c0.7,1,0.7,1.3,0.1,0.9c-0.2-0.1-0.7-0.4-1.1-0.5
	c-0.4-0.1-1-0.3-1.2-0.5c-0.2-0.1-0.4-0.1-0.4,0c0,0.1,0.7,0.5,1.6,0.8c0.9,0.4,1.8,0.7,1.9,0.8c0.7,0.5,1,4.5,0.4,5.2
	c-0.1,0.2-0.2,0.4-0.1,0.4c0.1,0.1,0.3-0.1,0.6-0.4c0.4-0.5,0.4-0.9,0.3-2.5c0-0.4,0-1.2,0-1.7c0.1-0.7,0.1-0.9-0.2-1.2
	c-0.2-0.2-0.6-0.8-0.9-1.7c-0.7-2-0.7-2-0.8-1.5c0,0.2-0.1,0.4-0.1,0.5c-0.2,0.3-1-1.1-2.1-3.5c-0.2-0.5-0.4-0.8-0.4-0.7
	c-0.1,0.1,0,0.5,0.2,0.9c0.2,0.4,0.3,0.9,0.3,1.1c0,0.3,0,0.3-0.6-0.2c-1.2-1.2-0.6,0.1,0.9,1.7c0.4,0.5,0.3,0.4-0.8-0.3
	c-0.7-0.2-1.6-0.9-2-1.3c-0.6-0.6-0.9-0.8-1.6-1c-0.5-0.1-1-0.4-0.8-0.7c0.7-0.1,0.7-0.2,1.7,0.2c0.8,0.3,1.5-1.8,1.5-2.6
	c0.1-1.3,1.1-1.8,2.5-3.8c1.6-2.3,1.5-4.3,3.2-5.1c1.1,0,1.3,0.4,1.8,2.2c0.3,1.6,1,2.2,1.6,1.5c0.2-0.3,0.3-0.3,0.6-0.2
	c0.6,0.6-0.5,1.5-1.5,1.2c-0.8-0.2-1.1-0.5-1.2-1c-0.1-0.4-0.4-0.5-0.3-0.1c0,0.4-0.1,0.5-0.3,0.3c-0.1-0.1-0.2-0.5-0.2-0.9
	c-0.1-0.8-0.6-1.3-1-1c-1.9,1.6-1.9,5.1-0.9,5.8c0.4,0.3,0.6,0.5,0.4,0.7c-0.2,0.5-0.3,0.5-0.6,0c-0.2-0.5-0.6-0.7-1.4-0.8
	c-0.6-0.1-0.8,0-1,0.4c-0.6,0.6-0.3,1.9,0.3,2.4c0.2,0.2,0.8,0.8,1.1,1.4c0.3,0.6,0.9,1.3,1,1.5l0.3,0.4l0.4-0.6
	c0.4-0.6,1.4-1.2,1.7-1c0.1,0.1-0.1,0.4-0.4,0.8c-0.7,0.8-0.7,1.4-0.2,2.6c0.2,0.6,0.3,0.9,0.1,1.4c-0.1,0.3-0.2,0.8-0.2,1
	c0,0.4,0,0.4,0.2,0.1c0.1-0.2,0.3-0.5,0.4-0.9c0.2-0.7,1.1-1.7,1.6-1.8c0.6-0.1,0.8,0.2,0.3,0.6c-0.6,0.5-0.9,1.7-0.8,2.7
	c0.1,0.8,0,0.9-0.8,1.8c-0.8,0.9-1,1.3-0.7,1.5c0.1,0.1,0.2-0.1,0.4-0.4c0.7-1.2,1.3-1.1,2.2-0.4c0.2,0.2,0.3,0.3,0.3,0.4
	c0,0-0.6,0-1.1,0c-0.7,0-1.1,1.4-1.1,1.4c-0.7,0.7-0.9,0.9-1.5,1.2c-0.4,0.3-0.6,4-0.9,4.3c-1.2,0.9,3.4,6.9,1,12.4"/>
</svg>
