<?xml version="1.0" encoding="utf-8"?>
<!-- Generator: Adobe Illustrator 24.0.1, SVG Export Plug-In . SVG Version: 6.00 Build 0)  -->
<svg version="1.1" id="Layer_1" focusable="false" xmlns="http://www.w3.org/2000/svg" xmlns:xlink="http://www.w3.org/1999/xlink"
	 x="0px" y="0px" viewBox="0 0 640 512" style="enable-background:new 0 0 640 512;" xml:space="preserve">
<style type="text/css">
	.st0{fill:#404040;}
</style>
<path class="st0" d="M320,400c-75.9,0-137.2-58.7-142.9-133.1L72.2,185.8c-13.8,17.3-26.5,35.6-36.7,55.6c-4.6,9.2-4.6,20,0,29.2
	C89.7,376.4,197.1,448,320,448c26.9,0,52.9-4,77.9-10.5L346,397.4C337.4,399,328.7,399.9,320,400z M633.8,458.1l-110.5-85.4
	c33.6-28.3,61.2-63,81.2-102.1c4.6-9.2,4.6-20,0-29.2C550.3,135.6,442.9,64,320,64c-51.5,0.1-102.1,13-147.3,37.7L45.5,3.4
	c-7-5.4-17-4.2-22.5,2.8c0,0,0,0,0,0L3.4,31.5c-5.4,7-4.2,17,2.8,22.5l588.4,454.7c7,5.4,17,4.2,22.5-2.8c0,0,0,0,0,0l19.6-25.3
	C642.1,473.6,640.8,463.5,633.8,458.1z M450.1,316.1l-39.3-30.4c3.3-9.6,5.1-19.6,5.2-29.7c0.7-52.3-41.2-95.3-93.5-96
	c-9.4-0.1-18.8,1.2-27.8,3.8c6,8.2,9.3,18.1,9.3,28.2c-0.1,3.4-0.7,6.7-1.5,10l-73.6-56.9c25.6-21.4,57.8-33.1,91.2-33.1
	c79.5,0,144,64.4,144,143.8c0,0.1,0,0.1,0,0.2C464,277.6,458.7,297.8,450.1,316.1L450.1,316.1z"/>
</svg>
