<?xml version="1.0" encoding="utf-8"?>
<!-- Generator: Adobe Illustrator 24.0.1, SVG Export Plug-In . SVG Version: 6.00 Build 0)  -->
<svg version="1.1" id="Layer_1" xmlns="http://www.w3.org/2000/svg" xmlns:xlink="http://www.w3.org/1999/xlink" x="0px" y="0px"
	 viewBox="0 0 602.6 1844" style="enable-background:new 0 0 602.6 1844;" xml:space="preserve">
<style type="text/css">
	.st0{fill:#E8E9EC;stroke:#A0A0A0;stroke-width:60;stroke-miterlimit:10;}
	.st1{fill:#A0A0A0;}
</style>
<path class="st0" d="M529.7,1790H69.2c-6.6,0-12-5.4-12-12V61.1c0-6.6,5.4-12,12-12h460.5c6.6,0,12,5.4,12,12V1778
	C541.7,1784.6,536.3,1790,529.7,1790z"/>
<path class="st1" d="M234.3,994.7h-64c-17.7,0-32,14.3-32,32v64c0,17.7,14.3,32,32,32h64c17.7,0,32-14.3,32-32v-64
	C266.3,1009,252,994.7,234.3,994.7z"/>
<path class="st1" d="M234.3,1190h-64c-17.7,0-32,14.3-32,32v64c0,17.7,14.3,32,32,32h64c17.7,0,32-14.3,32-32v-64
	C266.3,1204.3,252,1190,234.3,1190z"/>
<path class="st1" d="M234.3,1385.3h-64c-17.7,0-32,14.3-32,32v64c0,17.7,14.3,32,32,32h64c17.7,0,32-14.3,32-32v-64
	C266.3,1399.6,252,1385.3,234.3,1385.3z"/>
<path class="st1" d="M426.3,994.7h-64c-17.7,0-32,14.3-32,32v64c0,17.7,14.3,32,32,32h64c17.7,0,32-14.3,32-32v-64
	C458.3,1009,444,994.7,426.3,994.7z"/>
<path class="st1" d="M426.3,1190h-64c-17.7,0-32,14.3-32,32v64c0,17.7,14.3,32,32,32h64c17.7,0,32-14.3,32-32v-64
	C458.3,1204.3,444,1190,426.3,1190z"/>
<path class="st1" d="M426.3,1385.3h-64c-17.7,0-32,14.3-32,32v64c0,17.7,14.3,32,32,32h64c17.7,0,32-14.3,32-32v-64
	C458.3,1399.6,444,1385.3,426.3,1385.3z"/>
<path class="st1" d="M234.3,348.8h-64c-17.7,0-32,14.3-32,32v64c0,17.7,14.3,32,32,32h64c17.7,0,32-14.3,32-32v-64
	C266.3,363.1,252,348.8,234.3,348.8z"/>
<path class="st1" d="M234.3,544.1h-64c-17.7,0-32,14.3-32,32v64c0,17.7,14.3,32,32,32h64c17.7,0,32-14.3,32-32v-64
	C266.3,558.4,252,544.1,234.3,544.1z"/>
<path class="st1" d="M234.3,739.4h-64c-17.7,0-32,14.3-32,32v64c0,17.7,14.3,32,32,32h64c17.7,0,32-14.3,32-32v-64
	C266.3,753.7,252,739.4,234.3,739.4z"/>
<path class="st1" d="M426.3,348.8h-64c-17.7,0-32,14.3-32,32v64c0,17.7,14.3,32,32,32h64c17.7,0,32-14.3,32-32v-64
	C458.3,363.1,444,348.8,426.3,348.8z"/>
<path class="st1" d="M426.3,544.1h-64c-17.7,0-32,14.3-32,32v64c0,17.7,14.3,32,32,32h64c17.7,0,32-14.3,32-32v-64
	C458.3,558.4,444,544.1,426.3,544.1z"/>
<path class="st1" d="M426.3,739.4h-64c-17.7,0-32,14.3-32,32v64c0,17.7,14.3,32,32,32h64c17.7,0,32-14.3,32-32v-64
	C458.3,753.7,444,739.4,426.3,739.4z"/>
</svg>
