<svg version="1" xmlns="http://www.w3.org/2000/svg" width="933.333" height="933.333" viewBox="0 0 700.000000 700.000000"><path d="M15.9 17.2c-.5 15.4 0 664 .5 664.5 1.1 1.1 665.7 1 666.4-.1.6-1 1-663.3.4-665.4-.3-.9-68-1.2-333.8-1.2H16l-.1 2.2zm656.2 10.5c.1 3.8.1 632 0 636-.1 3.6-1.6 4.7-7.1 5.7-7.8 1.4-74.2 1.8-349.3 1.9l-287.8.2-.5-2.2c-.7-2.6.2-404.6.9-444.8.3-14.9.8-59.4 1.2-99 .4-39.6.8-78.1.9-85.5l.1-13.5 3-.6c1.7-.3 146-.7 320.8-.8L672 25l.1 2.7z"/><path d="M40.9 34.4c0 .6-.2 1.9-.4 3-1.7 8.9-2.8 86.3-4.1 286.1-1.4 232-.9 335.4 1.9 338.2.4.3 4.6.5 38.7 1.8 66.5 2.4 428.9 2.4 540 0 25.5-.6 47.2-1.4 47.6-1.8.4-.4 1.8-302.6 1.6-348.7-.2-23.9-.3-96.4-.5-161l-.2-117.5-14.5-.3c-8-.1-148.5-.4-312.2-.6-216.9-.2-297.8 0-297.9.8zm421 11c6.8 2.7 12.2 6.2 31.1 20.1 17.3 12.7 17.8 13.1 18.6 11.2 1.1-2.9-1.7-9.6-7.6-18.6l-6-9.1h2.9c7.2 0 24.7 16.1 34 31.3 3 4.8 5.7 8.7 6.2 8.7.9 0 1.6-2 2.4-7 1.2-6.8 2.8-12.5 4.4-15.3 1.7-3 7.8-7.4 8.8-6.3.3.3-.8 3.4-2.4 6.8-4.3 8.9-4.6 10.2-2.8 14.5 2.9 6.8 10.7 12.9 17.6 13.7 2.6.3 3.3.8 3.1 2.2-.1 1.1-.4 4.8-.7 8.4-.8 9.2-1.1 10.1-3.8 9.1-1.2-.5-4.9-2.6-8.2-4.8-3.3-2.2-8.3-5.2-11.1-6.7-2.9-1.5-8.3-5.1-12-8-10.9-8.3-13.6-9.3-11.3-4.3.7 1.5 5.2 5.1 11.1 8.9 20 12.7 24.4 15.8 29.6 20.9 5.8 5.8 6.5 8.5 2.7 9.9-1.4.5-3.8 1.9-5.3 3-4.3 3.1-19.3 6.2-32.2 6.6-13 .4-19.4-1.1-30.4-6.9-6.7-3.5-8.2-6.1-4.3-7.6 1.9-.8 16.7-2.3 23.5-2.4.6 0 1.2-.6 1.2-1.2 0-1.6-5.3-2.5-18-3-5.8-.2-17-.7-25-1-8-.3-15.4-.7-16.5-.9-1.1-.3-2.8-.5-3.9-.5-1.7-.1-1.6-.4.7-3.5 4.8-6.2 5.6-6-21.3-6.3-31.1-.3-31.1-.3-30.8-2.2.4-2.4 8.2-5.7 23.4-10.1 7.5-2.1 13.9-4.2 14.2-4.5 1.8-1.7-3-3.5-19.3-7.1-4.4-1-20.6-.4-26.6.9-21.2 4.8-28.7 4-52.9-6-12-5-14.3-5.6-20.5-5.6-7 .1-8.9.6-28.5 7.9-6.1 2.3-9.4 2.8-17.5 3.1-16.1.4-26.7-2.8-42.3-12.6-8.4-5.2-16.7-6.3-29.2-3.6-.8.2-4.6 1-8.5 1.8-9.7 2.1-24.8 1.6-22.4-.7.2-.3 3.1-.7 6.3-1 8.7-.9 11.3-1.4 19.9-4.1 12.7-4 19.9-3.2 38.2 4.4 15.5 6.5 24.8 9.1 32.4 9.1 7.9 0 11.1-1 25.2-7.9 14.4-7 20.8-8.5 33.6-7.7 5.6.3 10.8.8 11.5 1 .7.3 3.6.7 6.3 1 2.8.3 9.1 1.2 14 2 10.8 1.8 20.4 3 22.7 2.8.9 0 5.5-2.6 10.2-5.7 14.1-9.2 18.5-10.9 29.6-10.8 7.8 0 11.2.6 19 3 11.1 3.6 11.8 3.1 7.6-4.9-1.4-2.7-2.6-5.4-2.6-5.9 0-1.6 5.5-.9 11.9 1.5zm185.7 16.4c-.2 3.6-1.3 8.1-2.9 11.6-3 6.6-2.4 8 4.5 9.1 5.2.9 8.1 2.3 7.3 3.5-.3.5-3.4 2.4-6.8 4.2-3.4 1.8-9.3 6.3-13.2 9.9-7.7 7.3-10.2 8.9-13.7 8.9-3.8 0-17.8-9.6-17.8-12.2 0-.4 1.2-1.8 2.7-3.1 13-10.8 15-14.5 13.9-25.8-1.1-10.9 2.3-6.3 3.8 5.2.3 1.9.5 3.6.6 3.9.2 1.3 12.3-13 14.1-16.8 2.5-5.1 5.9-7.9 7.1-5.8.4.8.6 4.1.4 7.4zM109 81.7c7.3 3.6 9.9 10.9 7.3 20.2-1.8 6.5-2.3 6.3 10.7 4.1 3-.5 7.8-1.2 10.5-1.6 2.8-.3 5.7-.7 6.5-.9.8-.1 4-.6 7-1s6.3-.9 7.2-1c8-1.5 49.3-2.5 55.4-1.3 3.8.7 6.4 2 13.2 6.6 4.7 3.2 6 3.6 11.3 3.5 3.5-.1 9.3-1.2 13.7-2.7 11.5-3.8 15.3-4.4 31.2-5.3 24.7-1.3 77-.6 79.9 1.1.3.2 3.3.7 6.6 1 25.6 2.9 56.2 11.9 78.8 23.2 27.3 13.8 57.1 34.9 76.6 54.4 13.1 13.1 30.9 36.9 40.1 53.5 1.8 3.3 4.3 7.6 5.5 9.5 9.7 15.7 20.5 47 22.9 66.5.4 2.7.9 6.4 1.2 8 2.6 14.4 1.5 49.9-2 68-.2 1.1-.6 3.6-1 5.5-1.1 6-1.4 7.3-3.1 14-10.9 42.7-26.6 74.8-51.9 106.2-7.9 9.9-23.4 26.1-31.6 33.3-36.2 31.5-84.3 54.2-125 59-2.5.3-5.8.7-7.5 1-15.1 2.5-49 1.8-71-1.4-3.8-.5-9.2-1.3-12-1.6-2.7-.4-5.7-.8-6.5-1-.8-.2-3.7-.7-6.5-1-9.3-1.2-54.9-11.6-65.2-15l-10.2-3.3-8.3 4c-10.3 5-26.2 11.7-30.6 13-7.7 2.2-14-3.4-12.9-11.5.4-3.1 1.9-5.3 7.4-11 9-9.4 12.5-16.6 15.7-32.7 1.4-6.9 2.7-14.3 3-16.5 1.8-14.6 2.8-28.7 4.1-57 .3-6.6.8-14.7 1-18 1.8-26.7 2.2-95.9 1-173.5-.6-40.3-.8-45.4-1.9-66.5-1.3-22.2-3.2-36.8-6.7-51.5-2.9-11.8-3.5-12.5-11.6-14.1-15.5-3-21.7-.7-45.5 16.9-11.6 8.6-20.8 17.4-20.8 19.9 0 1.1.9 2.8 2.1 3.9 8.5 7.8 9 8.6 8.8 12.8-.5 7.6-4.5 12.6-11.7 14.6-16.8 4.4-26.9-11.1-20.2-31.1 1.2-3.4 2.2-7.4 2.2-8.8.1-4.7-4.9-17-8.6-21.1-3.3-3.7-5.5-8.5-4.4-9.6.3-.2 5.7-.7 12.1-.9 18.6-.8 23.5-2.5 33.9-12.3 7.7-7.2 7.8-7.8 1.6-10.7-4.6-2.1-10.2-3.8-19.8-5.9-3.2-.7-9.6-6.9-11.9-11.5-2.3-4.6-1.8-8.4 1.9-14.2 3.5-5.4 6.6-8.4 10-9.8 4.2-1.7 12.9-1 18 1.6zM597 99c.8.5 4.8 3.5 8.8 6.8 4.1 3.3 9.9 7 13 8.1 8 3.1 12.8 6.5 14 10 1.4 4.1-1.9 10.6-6.8 13.2-7.3 4-21 1.3-32-6.1-9.3-6.3-14-13.7-13.5-21.5.6-11.7 6.9-15.6 16.5-10.5zm-4 41.4c4.5 4.9 12 14.3 12 15.1 0 .3 1.1 2.3 2.5 4.4 1.4 2 4.1 7.6 6 12.2 2 4.6 4 9.3 4.5 10.4.5 1.1 2.3 5.5 4 9.7 3.5 8.7 6.8 12.7 5.5 6.8-1.3-6-9.4-25.1-15.2-36-8.1-15-9.5-18.1-8.8-18.8.4-.4 5.2-.7 10.7-.6 9.4.1 10.2.3 11.9 2.5 3.1 4 13.6 25 15.5 31.1 1.9 6.3 1.3 8.1-3.3 9.9-3.3 1.2-2.8 3.3 1 5.1 2.1 1 4.2 3.3 5.7 6.1 2.3 4.3 2.3 4.6.8 9.3-1.8 5.6-1.5 6.6 4.3 13.3 4.1 4.6 4.2 6.1.4 6.1-1.3 0-2.6.3-2.8.7-.3.5.9 4.2 2.6 8.3 4.2 10.3 4.7 23 1.3 32.8-2.6 7.5-2.5 8.2.8 19.6 2.3 7.7 2.8 10.3 4.2 22.2.9 8.3 1.1 33.3.2 32.8-1.2-.8-11.9-22.5-15.1-30.5-2.3-5.7-4.1-12.1-6.3-22.4-.3-1.1-.7-5.6-1-10-.7-10.3-1.2-12.7-2.7-12.3-1.5.5-5.7 8.8-6 11.7-.2 2.8-1.1 1.6-3.2-4.2-1.5-3.9-1.8-8.1-1.9-21.7-.1-9.3-.4-17.1-.7-17.5-.4-.3-1.9-.8-3.4-1.1-6.6-1.2-8.2-3.2-10-12.9-2-10.2-2.7-11.1-7.2-8.4-3.3 2-3.5 2.1-5.4.3-3.8-3.5-6.2-14.2-7.4-33.7-.6-10.6-.9-11.1-6.5-8.4-7.1 3.4-8.2 3.5-12.2 1.5-3.8-1.9-4.2-2.4-3.8-6.5.3-4-.9-4.3-7-1.4-4.8 2.3-7 2.8-12.4 2.6-7.5-.3-9.8-1.7-9.4-5.4.5-3.9 7.7-7.1 17.7-7.8l8-.6-3.9-2.8c-4.5-3.3-4.7-3.9-2.2-6.1 3.8-3.4 22.3-10.5 24.2-9.3.6.3 1.8 2.3 2.9 4.3 1 2 3.9 7.4 6.5 12 7.8 13.9 20.4 38.6 22.1 43.3.9 2.4 3.2 9.2 5.1 15.1 4.9 15.2 7.1 13.9 3-1.8-3-11.4-5.9-18.1-18.7-43.8-14.9-30-16.5-35.6-6.9-25.2zm-452.1 42.1c3.2 1.6 5.8 7 9.1 19 2.7 9.8 4.3 13 7.5 15.1 1.9 1.3 2.8 1.3 4.7.3 1.3-.6 2.7-1.8 3.1-2.5 1-1.7 4.3-1.8 5.4-.2 1.6 2.7 1.1 4.6-1.7 7.3-2.5 2.4-3.9 2.9-8.3 2.9-7.5.1-12.5-2.6-14.9-8.1-1-2.4-2.3-4.3-2.9-4.3-.6 0-.7.5-.4 1 .3.6.3 2 0 3.1-1.1 3.5-3.4.2-4.6-6.9-.7-4-1.9-7-3.5-8.7-2.4-2.6-2.4-2.6-5.4-.8-8.3 4.8-15.2 22.6-14.4 37 .4 8.3 1.7 11.8 6.5 16.8 3.5 3.6 3.7 4.2 2.6 6.4-1.7 3.3-2.8 3.1-5.2-.6-2.7-4.1-6-6-12.2-6.8-6.4-.9-8.9.4-11.4 5.9-3.1 7.1-1.1 14.4 5.8 21.6 1.9 1.9 7.1 9 11.5 15.7 4.5 6.8 8.5 12.3 8.9 12.3.3 0 1.4-1.1 2.3-2.5 2.9-4.5 7.6-8.6 11.9-10.5 6-2.7 6.8-1.1 2.5 5.2-6.8 10.1-7 12-2.7 25.3 1.9 5.9 2.1 12.7.5 15.3-.2.4-.7 2.7-1.1 5.2-.6 3.8-.5 4.2.8 3.1.8-.6 2.5-3.7 3.8-6.9 2.9-7.3 6.3-12.1 11.1-15.7 4.2-3.2 7.3-3.8 8.9-1.8.9 1 .4 2.1-2 4.8-4.8 5.6-6.2 9.9-6.8 21.5-.6 11.4-.7 11.9-7.8 20-5.9 6.8-8.3 11.6-6.8 13.1.8.8 2.1-.2 4.8-4 2.1-2.8 4.5-5.6 5.5-6.1 3.3-1.8 7.6-1.1 11.8 1.9 6.2 4.5 6.1 5.1-.8 5.1-7.1 0-9.8 1.9-12.9 9.3-1.8 4.2-11.1 13.7-13.5 13.7-2.4 0-3.8 4.6-6.3 20.8-1.4 9.2-3.3 18.5-4.3 20.6-2.2 5-2 6.8 4 25.1 2.6 8.2 5.1 16.1 5.5 17.5.3 1.4 1.3 5 2.1 8 5 17.8 5.6 35.1 2 52.5-.4 2.1-1.8 5.8-4 11-.7 1.6-3.2 7.4-5.4 12.7-2.3 5.3-5.9 12.5-8.1 16-4.5 7.1-4.6 6.8 4 8.2 1.9.4 4.3 1.2 5.3 1.9 1.6 1.2.9 2.2-8.1 11.3-10.2 10.3-17.5 15.1-21.3 13.9-3.1-1-10.7 4.5-9.4 6.7 1.1 1.7 7.4.1 24.9-6.2 9.2-3.3 19.5-6.7 23-7.4 5.8-1.2 12.5-4.7 12.5-6.5 0-1 8.9-8.1 10.1-8.1 1.4 0 1.5 3.5 0 8.8-1.6 5.9-.9 7.3 3.3 6.7 1.2-.2 5.5-.6 9.6-1 4.1-.3 9.4-.8 11.8-1 5.9-.7 5.5 1.3-1.2 5.9-8 5.5-8.1 6.8-.6 6.9 5.6 0 24.7-3.6 31.3-5.9 5.9-2.1 6-1.8 2.1 3.3-3.3 4.3-3.4 4.8-1.7 5.4 2.1.7 8.8.3 18.5-1.2 3.7-.6 7-1.1 7.3-1.1.2 0 3.9-1.1 8-2.3 5.7-1.8 7.7-2.1 8.1-1.1.2.6-.7 4.2-2.1 7.9-1.4 3.7-2.5 7.2-2.5 7.7 0 2 3.7.9 8.8-2.6 6.9-4.6 10.7-5.1 35.9-4.9 21.5.2 24.8.8 28.9 4.6 1.2 1.1 3.7 2.3 5.5 2.5 4.4.7 32.4 10.3 34.6 11.9 1.5 1.1 1.5 1.3-.3 2.3-6.1 3.2-36.3 4.2-50.9 1.7-8.4-1.5-17.6-2.2-39.1-3-14.1-.5-14.8-.7-23.4-7.1-3-2.2-6.3-4.3-7.2-4.7-2.6-.9-3.2 2.6-1.3 8.4.9 2.8 1.4 5.3 1.1 5.6-.7.7-4.9.6-8.5-.1-7.2-1.6-15-4.4-26.6-9.8-12.2-5.8-21.5-8.3-21.5-6.1 0 .6.7 2.8 1.6 4.9 4.3 10.1 3.8 11.8-3.3 11.7-8-.2-18.8-3-31.1-7.9-17.7-7.1-24.6-7-20.8.4.7 1.5 1.7 4.2 2.1 6l.7 3.2-4.4.1c-10.9.2-18.4-.6-25.8-2.8-6.6-1.9-9.2-1.9-12.5.3-2.4 1.6-3.7 1.7-21 1.6-4.4 0-10.5 0-13.5.1l-5.5.2-.3-8.1c-.4-9.2-.3-9.4 6.8-12.8 5.2-2.4 5.9-4.4 4-12.3-1.6-6.3-.7-8.8 5-15.1 2.2-2.4 4-5.2 4-6.2 0-1.4-7.1-11.4-10-14-2.4-2.2-6.4-8.9-7.1-11.9-.9-3.6-1.3-42.8-.5-46.6.3-1.1.5-2.3.5-2.8.2-1.5 2.2-.6 4.4 2 7.2 8.6 11.5 12.6 12.9 12.1 1.9-.8 1.6-9.1-.7-21.3-2.1-11.2-1.8-19.5 1.2-34.3 2.1-10.3 2.3-12.2 1.1-15.7-2.2-6.8-1.5-18.9 1.7-27 2.8-7.4 3.5-14.8 1.6-18.4-.7-1.1-3.6-4.8-6.6-8.2-2.9-3.3-6.2-8.1-7.1-10.7-1-2.6-2.1-5.1-2.6-5.6-.4-.6-.8-1.4-.8-1.9s1.7 1.3 3.8 4c2.1 2.6 8.1 9.4 13.3 15 14 15.1 18.1 24.7 17.3 40.3-.3 4.7-.6 11.3-.8 14.8-.2 3.4.1 6.5.6 6.8.6.4 2.1-.6 3.3-2.2 1.7-2 2.7-2.6 3.4-1.9 1.7 1.7 1.9 9.8.6 17.8-2 11.6-2.3 15.4-1.5 16.7.5.8 2.7.2 8-2.5l7.3-3.7-.6 5.5c-.7 7.2-5.6 16.7-11.8 22.8-8.3 8.1-5.4 11.7 5.1 6.4 5.3-2.7 10-3.3 10-1.3 0 .7-.9 2.6-2.1 4.3-1.1 1.6-3.1 5.2-4.5 7.9-2.2 4.1-2.4 5.2-1.4 7.6 1.7 4 .7 10.4-3.1 20.1-4.3 11-4.6 11.4-7.6 9.4-2.1-1.4-2.4-1.4-2.9 0-.6 1.4-.8 7-.5 12.2.2 3.8 1.9 2.6 2.6-1.8.5-2.6 2.1-5.6 4.6-8.5 2.2-2.5 6-8.9 8.5-14.2 2.5-5.3 6.1-12.9 7.9-16.7 5.2-10.7 6.9-18.4 6.9-31.5.1-14.3-.6-19.4-4.3-30.7-2.6-8.1-10.1-24.3-16-34.6-2.5-4.4-2.6-5.7-.7-5.7 2.6 0 3.5-6 3.6-24.1.1-9.9.6-19.4 1.1-21.1.5-1.8 2.2-4.5 3.8-6.2 1.6-1.7 3.4-4.2 3.9-5.6 1.2-3.1.8-14.6-.6-18.1-2.5-6.3-12.8-11.2-19.8-9.5-3.5.9-7.8 5.5-9.1 9.8l-1.1 3.3-.1-4.6c-.1-3.8.5-5.4 3.4-9.1 3.8-5.1 6-6 15.3-6.3 3.5-.2 6.6-.5 6.9-.9 1.9-1.9-15.3-10.4-31-15.5-13.1-4.2-20.1-8-23-12.5l-1.7-2.5 3.7.3c2 .2 6.6-.5 10.2-1.5 10.4-2.8 14.9-3 21.4-.7 6.9 2.4 8.9 2 5.6-1.1-3.2-2.9-7.1-4.9-14.9-7.3-10.4-3.2-21.9-10.5-20.4-12.9.8-1.3 9.9-.3 15.6 1.7 2.4.8 7.4 3.9 11.3 6.8 10.8 8.1 13.3 9.7 16.9 10.7 2.4.7 4.5 2.6 7.7 6.9 5.4 7.4 6.7 10.5 4.2 9.7-3.6-1.1-19.9-7.9-22.5-9.3-1.4-.7-3.2-1.4-3.9-1.4-3.5 0 3 3.6 16.7 9.3 17.1 7.2 17.4 7.5 19.8 21.3 2.4 13.7 1.9 23-1.9 35.2-1.1 3.3 1.7 1.9 5.2-2.6l2.7-3.6.2-21.1.1-21-3.8-6c-2.1-3.3-5.7-11-7.9-17-2.3-6.1-4.5-11.4-5-11.9s-1.2.7-1.5 2.8c-.4 2-1.1 3.6-1.6 3.6-1.5 0-7.9-10.7-14.6-24.7-8.1-16.7-10.6-19.2-5.3-5.1 1.2 3.2 2 7 1.8 8.5-.3 2.4-.5 2.5-1.8 1.2-3-2.9-9-7.1-9-6.3 0 1.9 8.9 14.4 13 18.4.3.3 1.2 1.4 2 2.5 1.4 1.7 1.2 1.7-2-.3-1.9-1.2-6-3.4-9-4.9-5-2.4-11.4-6.9-16.5-11.6-4.5-4.2-8.4-6.7-12.6-8.2-6.8-2.3-8.9-3.7-8.9-5.7 0-1.5.8-1.8 4.5-1.8 2.5 0 6 .6 7.8 1.3 4.4 1.9 6.7 1.3 9.8-2.1 2.9-3.2 6.6-13.2 7.4-20 .9-6.9 3-10.8 11.4-21.1 13.8-16.9 16.6-21.5 25.1-41.1 4.3-9.9 7.1-14.1 11.7-17.9 4.2-3.4 7.8-3.9 12.2-1.6zm515.4 166c.4.8.3 1.6-.1 1.9-.4.3-.9-.4-.9-1.5-.2-2.3.3-2.5 1-.4zm-.6 15.7c-.2 1.3-.4.3-.4-2.2s.2-3.5.4-2.3c.2 1.3.2 3.3 0 4.5zM653 395c0 2.5-1.8 3.6-2.6 1.6-.8-2.1.3-4.9 1.6-4.1.5.3 1 1.5 1 2.5zm.1 14.7c.4 7.5-1.6 19.9-3.4 21-.7.4-.7-.6-.2-2.8.9-4.1 1.2-7.5 1.4-15.2.1-5.7 2-8.2 2.2-3zm-21.8 16.6c2.2 3.3 4.3 18.5 6.3 44.7 1.3 17.4.5 27.1-3.7 43-3 11.2-5.1 16.8-7.6 19.6-2.1 2.4-2.1 2.8-.8 5.5 1.9 3.6 1.9 7.7 0 12.2-1.7 4.2-2 10.3-.4 11.2.6.4 2.2-.4 3.6-1.6l2.5-2.4-.5 3.5c-.3 1.9-1.2 5.3-2 7.6-4.3 11.7-9.1 17.1-17.9 19.9-6.5 2.2-22 9.8-23.5 11.7-.6.7-1.3 5-1.5 9.6-.3 4.5-1 8.8-1.6 9.4-1.4 1.4-4.5-1.2-14.6-12.5l-8-8.8-6 .6c-3.4.3-6.8.8-7.6 1-3.7 1-14 1.5-14 .7 0-.5 5.3-5.9 11.8-11.9 11-10.4 15.3-15.5 14-16.9-.7-.6-6 1.9-8 3.9-3.1 3.1-19.8 14-20.4 13.4-.4-.4-.7-3-.7-5.7.1-6.6 2.3-10 6.5-10 1.7 0 3.6-.7 4.3-1.7.7-.9 2.3-1.7 3.6-1.9 1.3-.1 2.7-.3 3-.3.4-.1 1.6-2.4 2.8-5.1 2.3-5.3 3.4-6 5-3.3 1.1 2 1 2.4 1.6-5.7.3-4.3 3-11 4.4-11 1.3 0 1.3 1.9.2 7.7-.6 3-.4 5 .7 7.5l1.6 3.3.6-7c.9-9.5 3.6-17.5 6-17.5.4 0 .5 2.9.2 6.5-.2 3.6-.2 6.5.1 6.5.9 0 3.9-5.2 4.3-7.7.3-1.4 1.1-3.5 1.9-4.6 1.4-1.9 1.4-1.9 2.1.7.8 3.5 2.6 2.8 3.7-1.5 1.5-6 2.7-5.7 2.7.9 0 3.4.4 6.2.8 6.2 1.3 0 5.2-7.5 5.4-10.5.1-1.5 1.1-3.1 2.2-3.7 1.9-1 12.3-1.3 16.3-.4 1.3.3 2.5.1 2.8-.4 1.2-1.9-4.2-3.3-12.1-3.3-6.9 0-10.8.7-21.6 3.9-2.8.8-2.2-1.9 1.1-5 3.1-2.9 4.4-3.2 22.5-4 5.4-.3 10.3-.9 10.8-1.4 1.9-1.9-6-3.4-16-3-10.5.5-12.2.3-12.2-1.6 0-2.7 4.2-5.1 9.9-5.6 6.1-.5 7.6-2.3 2.4-2.8-1.8-.2-3.3-.6-3.3-1s2-3.9 4.5-7.7c6.5-10 10.7-19.4 16.2-35.7 2.6-7.9 5.3-14.6 5.8-15 .6-.4 1.9-.8 3-.8 1.1-.1 3.4-.7 5-1.4l3-1.3-3-.8c-5.1-1.3-6.3-5.9-2-7.5 2.8-1.1 3.3-3.5 1-4.4-.9-.3-1.5-1.8-1.5-3.9 0-5.2 1.8-6.2 4.3-2.4zM523.9 590.2c-.6 2-1.6 3.5-2 3.2-1.1-.7.1-9.5 1.5-11.3 1.7-2.2 2.1 3.5.5 8.1zm-8.6-.2c-.6 2.4-4 5-6.6 5-1.4 0-1.6-.4-.7-1.9 2.6-4.9 8.4-7.4 7.3-3.1zm90.2 6c-1 1.1-2.2 1.7-2.8 1.3-.6-.4-.1-1.4 1.3-2.5 2.9-2.3 3.9-1.5 1.5 1.2zm-105.6 1.1c-3.7 3.7-13.9 6.6-13.9 4 0-1.1 14.1-7.1 15.2-6.5.4.3-.2 1.4-1.3 2.5zM620 596c0 .5-.6 1-1.4 1-2.1 0-7.4 4.7-9.1 8.1-1.9 3.6-1.9 3.9.4 3.9 1 0 4.3-2.3 7.2-5 7.8-7.3 8.4-7.6 11.3-4.3 1.4 1.6 3.5 3.9 4.7 5.3 2.8 3.2 13.9 20 13.9 21 0 1.8-5.2 6.9-7.9 7.8-3.1 1.1-6.8-.4-17.6-7.3l-5.9-3.8 2.4-1.6c4-2.7 8-6.2 8-7.2 0-1.5-3.9-1-6.7.8-1.4.9-3.4 3.1-4.4 4.8-1.5 2.3-1.9 2.6-1.9 1.1 0-1.1 3.2-5.2 7-9.2 8.3-8.6 9.1-11 2.8-8.5-3 1.2-9 6.6-12.3 11.1-2.4 3.2-3.9 4.1-4 2.2-.1-1.2-1.6-8.6-2.1-10.3-.5-1.9 5-7.7 9.1-9.5 3.6-1.6 6.5-1.8 6.5-.4zm-115.1 11.1c3.2 3 6.1 9.6 6.1 14.1 0 2.9-.6 4.1-2.5 5.4-1.4.9-2.5 2.2-2.5 2.8 0 2.2-6.4 7.5-12.4 10.2-6.1 2.8-16.1 3.8-22.1 2.3-5.2-1.3-10.7-2-22.5-2.6-6.3-.3-11.6-.7-11.8-.8-.8-.7 16.2-4.5 22.3-5 14-1.1 17.4-1.6 22.7-3.7 4.7-1.8 2-3-5.1-2.4l-6.6.5 6-2.9c3.3-1.6 6.7-2.9 7.6-3 .8 0 2.4-.6 3.4-1.4 1.8-1.3 1.8-1.4-1-1l-3 .5 2.4-1.8c1.4-1 3.4-2.6 4.5-3.6 2.1-1.7 2.1-1.7-.4-1.2-4.3.8-18.3 2.5-18.6 2.2-.1-.1 5.2-2.5 11.9-5.4 13.7-5.7 18.2-6.4 21.6-3.2zm42.7 3.3c.1 0 2.4 3.5 5.1 7.7 11.6 17.3 20.4 22.4 41.5 24.4 6.6.6 9.2 1.8 6.4 2.8-2.2.9-25.6-.1-29.8-1.1-9.4-2.4-21.7-13.3-26.9-23.7-2.6-5.4-2.9-6.5-1.8-8.8 1-2.1 1.7-2.6 3.3-2.1 1.2.4 2.1.7 2.2.8zm-20.5 13c3.3 5.8 8.7 13.5 12 17.2 3.2 3.7 5.9 7.3 5.9 7.9 0 1.3-3 2.5-6.4 2.5-1.8 0-1.8-.1-.2-1.9 1.7-1.9 1.7-2-.3-3-1.1-.6-3-1.1-4.2-1.1-1.6 0-2-.5-1.6-2 .3-1-.1-2.4-.8-3-.7-.6-1.5-2.4-1.9-4.1-.5-2.8-.9-3.1-3.6-2.7-2.5.4-3 .2-2.4-1.1 1.7-4.2 1.6-4.9-.8-5.3-1.8-.2-2.3-.9-2.3-3.4-.1-1.7-.8-3.9-1.8-4.8-1.3-1.3-1.5-2.2-.7-3.7.6-1 1.5-1.9 2-1.9s3.7 4.7 7.1 10.4zm-62.1-5.5c0 .9-6.5 3.5-11.5 4.7-3.9.9-2.8-.3 3.2-3.2 5-2.4 8.3-3 8.3-1.5zm-42.8 13.3c.9.7 1.8 2.2 2 3.3.4 2.1 1 2.2 6.8.9 3.1-.6 3.3-.5 2.3.8-.7.8-1 1.8-.7 2.1 1.2 1.2-4.9 2.8-10.6 2.8-3.6.1-8.3-.9-13.5-2.8-6.9-2.4-9.5-2.8-19.1-2.8h-11.1l-4.6 4.2c-6.1 5.6-8.4 6.1-16.9 3.3-3.8-1.2-6.7-2.4-6.4-2.7.2-.2 3.1-.6 6.3-.7 4.5-.3 7.7-1.3 13.4-4.2l7.4-3.9h20.2c11.1-.1 20.5-.4 20.9-.8 1-1 1.8-.9 3.6.5z"/><path d="M418.4 67.9c.5.7 10.6 2.3 22.1 3.6.6 0 3.9.7 7.3 1.4 7.1 1.6 45.3 20.1 71.2 34.7 15.5 8.7 35.7 19.4 36.5 19.4.3 0 .5-.4.5-.9 0-1.9-13.1-9.6-34-20-11.8-5.9-27.8-14.3-35.5-18.6C465.4 75.7 459 73 447 70.9c-5.8-1-12.1-2.3-14-2.9-4.3-1.2-15.3-1.3-14.6-.1zM621.7 95.5c1.1 2 7.4 6.5 9 6.5 2.5 0 1.3-1.9-3.1-5-4.9-3.3-7.2-3.9-5.9-1.5zM325.3 137.2c-20.9 1.5-29.4 4.7-37.8 14-8.8 9.8-16.8 31.6-19 51.8-.4 3.6-.9 7.3-1.1 8.3-.2 1-.6 4.8-.9 8.5-.3 3.7-.8 8.3-1 10.2-.2 1.9-.7 7.3-1 12-.4 4.7-.9 10.3-1 12.5-2 21.6-2.8 185.3-1.3 226 1.9 47.5 3.9 54.4 21.1 71.6 10 10 26.3 19.4 46.1 26.5 8.1 2.9 31.3 4.6 40.6 3 1.4-.3 5.1-.7 8.2-1.1 30.4-3.3 63.9-24.1 87.6-54.3 17.7-22.5 33.9-59.1 38.8-87.2.2-1.4.7-3.5.9-4.8.3-1.2.8-4.3 1.1-6.9.3-2.6.7-5 .9-5.3 1.9-3.1 2.7-57.7 1.1-72-.5-4.1-1-8.6-1.1-10-.2-1.4-.5-4.4-.9-6.8-.3-2.3-.8-6.1-1.1-8.5-.3-2.3-.8-5.3-1-6.7-.3-1.4-.7-3.6-1-5-4.8-25.7-15.5-60.3-24.2-78.7-13.5-28.6-39.1-61.3-57.9-74-6.4-4.4-23.4-13.3-25.3-13.3-.6 0-1.9-.4-2.9-1-3.6-2.1-19.6-6-30.4-7.4-14.3-2-24.6-2.3-37.5-1.4zm19 21c2.3 1.8 4.8 3.9 5.5 4.6 2.8 2.6 5.5 3.3 16 4.3 13.6 1.2 15.3 1.6 32.3 8 11.2 4.2 15 6.1 18.9 9.6 7.3 6.6 14.5 18.7 16.5 27.9 2.2 9.7.9 39.8-2.5 57.9-2.5 13.6-2.2 15 2.3 9.2 1.4-1.7 3.7-4.5 5.1-6.1l2.6-2.9-.6 3.4c-.4 1.9-1.7 5.9-2.9 8.9-4.7 12-4.2 13.2 3.7 8 4.7-3.1 8.7-7.3 14.9-15.4 1.9-2.4 4.2-4.9 5.2-5.5 1.5-1 1.7-.7 1.7 3.1-.1 10.7-4.4 21-12.2 29.1-5.8 6-9.3 7.6-12.7 5.7-2.5-1.3-6.4-.4-5.8 1.3.2.7 3.9 3.3 8.3 5.9 10.5 6.2 10.5 7-1.1 15.6-5.2 3.9-10.3 8.6-12 11.2-1.7 2.5-5.7 11.1-9 19-7.2 17.7-15.2 32.7-23.3 44-6.6 9.1-11 18-8.9 18 .7 0 3.2-3.3 5.6-7.3 3.7-6.1 14.1-20.5 17.6-24.3 11.2-12.6 16.6-16.7 24.8-18.8 10.5-2.8 12.3-4.1 15.1-11 2.1-5 3.7-3.8 4 3 .7 11.8-5.8 21.1-17.5 25.2-13.5 4.7-33.6 18.3-39.5 26.7-2.9 4.2-5.6 16.3-4.1 18.7 1.7 2.7 3.4 2.2 5.3-1.5 3.9-7.5 12.7-17.1 17.4-18.9 5.4-2.1 14.2-1.2 21.7 2.1 3.9 1.7 7.5 3.1 8 3.1 1 0-4.9-4.9-5.9-5-.4 0-3.1-1.4-5.9-3.2l-5.1-3.1 2.8-1.2c2.4-1 2.6-1.4 1.2-2-2.2-.9-4.7-1.3-8-1.4-1.6-.1-2.8-.5-2.8-1 0-2 6.1-5.2 10.9-5.8 4.7-.5 5.1-.4 10.8 4.2 7.9 6.5 13.4 8.9 19.2 8.2 4-.4 5.2-1.2 9.2-5.6 2.5-2.8 4.9-5.1 5.4-5.1.4 0 .5 2.4.1 5.2-2.4 18.7-17.9 26.7-36.1 18.8-2.2-.9-5.3-2.3-7-3-1.6-.6-6.4-1.4-10.5-1.7-6.2-.5-7.8-.3-8.9 1.1-1.2 1.4-.8 1.6 3.7 1.5 11.7-.3 19.3 10.1 13.7 18.7-.9 1.4-2 2.2-2.5 1.9-1.4-.8-1.2-4.2.1-5.1.8-.4.4-1.3-1.2-2.5-1.7-1.3-2.1-2.1-1.2-2.7 2.3-1.5-.3-3.1-5.7-3.5-8.4-.6-11.1.6-16.6 7-2.7 3.2-6.1 7.1-7.5 8.7l-2.7 2.9-5.3-2.8c-5.5-2.8-13.3-8.2-18-12.3-2.6-2.3-2.7-2.5-1.5-7.5.7-2.9 2.4-8.1 3.8-11.7 1.5-3.6 3.1-8.3 3.8-10.5 2.8-9.5 9.9-23.6 22.6-44.7 13.9-23.1 19.8-31.9 25.8-38.2 2.5-2.8 4.6-5.7 4.6-6.5-.1-1-1.4-.1-3.7 2.4-5 5.6-23 29.8-27.7 37.3-2.2 3.4-4.1 6-4.4 5.8-.2-.2 1.7-5.6 4.2-12 11.6-29.2 21.6-59.9 21.6-66.1 0-1.4-.3-1.5-1.5-.5-.8.7-1.5 1.9-1.5 2.6 0 4.9-15.5 45.1-26.2 67.9-11.6 24.8-13 27.5-14.3 27.5-.7 0-1.8-2.1-2.4-4.7-.9-3.5-1.5-4.3-2.2-3.3-1.3 2.2-1.1 4.9 1.1 11 1.5 4.2 1.8 7.4 1.5 14-.2 4.7-.6 9.4-.9 10.5-2.3 9.5-10.8 24.8-13.4 24.3-1.5-.3-1.7-2.2-1.7-16.8-.1-9.1-.5-19.2-1-22.5-1.6-10.5-1.2-12.7 2.7-18.1 2.3-3.3 8.6-17.8 18.8-43.4 18.3-46.3 23.4-60.3 26.5-72.4 1.3-5 2.6-9.9 3-10.9 1.1-2.6 2.5-2 2.6 1 .1 1.6.3 4.8.5 7.3.3 3.9 1.1 19.8 1.4 27 0 2.1.4 1.8 2.1-2 7.3-15.8 9.6-27.2 9.6-47.1 0-18.1-1.3-26.5-5.2-33.7-6.2-11.5-13.8-17-21.2-15.6-3.9.7-13.1 9.1-15.9 14.6-2.2 4.2-2.1 14 .1 19.5 2.8 6.9 9.6 9.9 15.7 6.7l3.2-1.7-1.5 2.3c-2.7 4.1-7.3 5.9-12.6 4.9-5.2-1-7-2.6-11.7-10.5-2.6-4.4-2.9-4.7-3.7-2.8-.7 2.1-.4 16.9.4 20.9 1 4.5 3 11.3 5.8 19.9 6.8 20.5 8.2 31.4 5.8 43.5l-1.2 6.1-5.6-6.2c-3.1-3.4-7.4-8.1-9.6-10.4-2.2-2.2-4.8-5-5.7-6-.9-1.1-2.7-7.4-4.2-14.9-1.5-7.1-3-13.3-3.6-13.9-3-3-2.4 11.6 1 24.4 2.4 9.1 3.2 24.2 1.3 26.1-.7.7-1.8-.3-3.6-3.3-4.1-7.1-5-12.2-5.3-30.3-.2-9.4-.6-18.8-.9-21.1-.5-3 0-6.2 1.9-12.5 4.4-14.3 5.2-14.2 7.1.5.5 4.4 2.5 14.9 4 21.3.6 2.7 2.5 3.1 2.1.5-.2-.9-.7-4.4-1.1-7.7-.3-3.2-.8-6.2-1-6.5-.1-.3-.6-3-.9-6-.4-3-1-8.3-1.5-11.8-.7-5.6-.5-7 1.6-11.4 6-13 24-31.3 33.6-34.2 2.8-.9 2-2.5-1.7-3.2-6.1-1.1-9.9 1.1-18.8 10.7-4.5 5-11.3 11.3-15 14-7.1 5.2-8.2 6.8-9.3 13.2-.6 3.7-4.7 12.2-13.3 27.5-3 5.3-3.7 7.2-2.4 6.7 3.1-1.3 6.2-1.8 6.2-.9-.1 4-5.9 19.6-12.9 34.5-3.9 8.4-5.8 13.9-4.8 13.9.2 0 3-4.3 6.1-9.5 3.1-5.2 5.9-9.5 6.2-9.5.3 0 .2 3.1-.2 7-.4 4.9-.3 7 .5 7 .6 0 1.1-.3 1.2-.8.1-1 .5-2.7 2.8-10.5 1.1-3.7 2.2-8 2.5-9.5 2.1-11.4 2.4-10.2 2 6.5-1.2 40-1.2 40.1 2.4 47.8 1.8 3.8 4.1 7.9 5.1 9 3.3 3.7 3.4 4.5.6 4.5-5 0-10.5-8-14.4-20.6l-1.8-5.6-2 4.3c-3.7 7.8-15.2 15.2-23.9 15.6-10.8.4-22.8-10.3-30.5-27.3-2.7-5.9-3.2-8-3.1-14.9 0-9.8 2-15.5 9.7-28 6.2-10.2 8.1-15.5 6.5-18.4-1-1.9-1.8-2.3-7.2-3.5-5.6-1.3-1.9-8.7 3.9-7.8 7.7 1.2 12.5 16.9 7.9 25.7-2.4 4.6-2 6 1.1 3.5 3.4-2.6 5.1-1.3 3.4 2.7-.7 1.5-4.3 6.1-8.1 10.1-9.8 10.5-12 14.1-12.2 19.3-.2 8.1 2.2 17 5.4 19.7 2.3 1.8 3.5-.2 4.1-7.2.5-5.6 1.7-7.5 4.4-7.6 1.9 0 2.5 1.8 1.3 4.1-2.9 5.4-.6 19.5 3.7 22.6 1.8 1.4 6.1 1.7 8.8.7 2.3-.9 4.6-6 5.2-11.5.4-4.1-.2-6.2-3.8-14.1-5.5-12.2-6-16.9-2.4-23.9 1.4-3 4.5-8.2 6.7-11.7 2.2-3.4 4.7-8.8 5.4-12 1.8-7.5 1.8-7.5-1-6.8-8.4 2.1-13.6 1.7-13.6-1 0-1.7 5.7-4.4 9.2-4.4 4 0 6.6-2.8 8.5-8.8 2.9-9.4 5.5-12.8 12.7-16.2 5.6-2.7 8.5-5.4 7.3-6.7-.3-.2-2.4.3-4.8 1.2-8.8 3.2-11.5 3.7-17.8 3.2-5-.4-6.9-1-8.9-3-3-3.1-2.4-5.7 1.5-5.8 10-.2 17.4-4 25.7-13.1l6.2-7 10.4-.4c7-.3 11.1-.9 12.7-2 3.6-2.3 1.9-3.4-5.5-3.4-12.6-.1-21.7-6.8-23.6-17.6-.4-2.2 1.8-7.2 3.2-7.4.2 0 2.2 1.5 4.5 3.2zm11.2 187.9c-5.9 7.9-9.7 18.8-10.1 28.8-.2 4.6-.6 8.6-.8 8.9-1 .9-3.5-.7-5.2-3.3-4-6.2.4-23.2 8.8-33.6 2.3-2.8 10.3-8 10.6-7 .2.6-1.3 3.4-3.3 6.2zm-44.3 6.9c-.3 6.5 0 9.5 1.2 11.7 1.5 3 7.3 6.4 13.2 7.9 4.8 1.2 14.1 11.4 17.9 19.6 5 10.9 7.4 28.3 4.7 34.8-.9 2-1.1.9-1.2-6-.1-12.5-3-22.4-8.5-29.4-2.4-3.1-2.6-1.3-.6 4.7 2.6 7.3 3.1 10.5 3.8 20.4.4 6.4.2 8.6-1 10.4-2.1 3-.9 5.1 4.5 7.4 5.5 2.5 5.8 2.9 5.8 9.2 0 5.8 1.6 11.1 2.9 9.7.9-.9 2-6.9 2.1-11.4 0-1.8.3-2.1 1.2-1.2.6.6 1.2 3.8 1.4 7.1.2 5.5 2.4 11.1 4.5 11.1.4 0 .9-1.9 1.1-4.3l.3-4.2 2.2 3.7c2.8 4.7 4.5 5 3.2.6-1.1-4.1-1.2-9.8-.1-9.8 1.5 0 9.3 6 9.9 7.7.3.8-.1 3-1 4.7-2.3 4.4-2.5 7-.6 7.4 1.1.2 2.2-1 3.2-3.7 2.3-5.5 3.6-5.9 3.4-.9-.2 5.3 1.5 5.9 4.3 1.3 2.2-3.6 4.8-4.9 3.5-1.8-.4 1-1 3-1.3 4.6-.6 3.8 1.4 3.4 3.9-.8 3.4-5.8 5.3-4.5 3.3 2.2-.8 2.6-1.2 4.9-.9 5.1.7.7 4.4-2.8 6.3-6 .9-1.6 2.4-2.8 3.4-2.8 2.2 0 2.2.8.2 4.9-1.6 3.2-1.2 6.7.6 5.6.5-.3 1-1.6 1-2.9 0-3.1 2.6-6.4 4-5 .7.7.6 2.1-.5 4.7-1.6 3.8-.9 5.2 2.1 4 2.4-.9 6.4-5.2 6.4-6.9 0-1.4 4.1-2 5.2-.8.4.3-.2 2.4-1.3 4.7-2.2 4.9-2.4 7.7-.6 7.7 1.5 0 5.1-5.5 6.1-9.3.6-2.7 2-3.5 3.1-1.8.3.5-.4 3.3-1.5 6.1-2.4 6.1-2.4 6-.6 6 1.8 0 4.7-4.1 6.8-9.5.9-2.1 2.1-4.1 2.8-4.3.9-.3 1.1.1.7 1.3-.4.9-.9 2.9-1.2 4.3-.5 2.5-.5 2.6.4.4 1.4-3.1 2.2-2.8 1.9.9-.3 3.5-1.6 4.8-2.8 2.8-.6-1-1.2-.6-2.1 1.4-.9 2.1-1 3.9-.1 7.9.7 2.9 1.4 6.8 1.6 8.6.6 4.2 1.4 5.2 1.4 1.6 0-2.4 1.5-4.3 3.4-4.4 1 0-.2 6.1-1.4 7.7-.5.6-1.5 1-2.1.7-.8-.3-1.2 1.1-1 4.6 0 2.7-.3 5.3-.8 5.6-.5.3-.9-1.3-.9-3.5 0-2.3-.7-4.6-1.6-5.6-2.6-2.6-4.2-1.3-6.4 4.9-1.5 4.1-2.2 2.7-2.1-4 0-6.9-.5-8.1-2.7-5.4-2.4 3-5 .8-5.8-5-.8-5.7-1.1-6-2.4-2.4-2.4 6.7-2.7 6.8-2.2 1 .6-6.9-1-7-2.7-.1-.6 2.5-1.3 4.5-1.6 4.5-.2 0-.3-1.8-.3-4.1.1-6-1.6-7-4.2-2.5-1.2 2-2.3 3.6-2.4 3.6-.1 0-.3-1.5-.4-3.3-.4-4.8-2.1-10.7-3.2-10.7-.6 0-1 .3-1.1.7-.4 4.9-1 9.1-1.5 10.2-.8 2.4-3.4-2.3-3.6-6.4-.1-3.9-1.3-4.6-2.1-1.4-.3 1.2-1.2 1.9-1.9 1.7-1.1-.4-1.8-1.9-3.5-7.8-.4-1.3-.6-1.2-1.4.2-1.2 2.2-3.9 2.4-4 .3-.1-.8-.3-2-.4-2.5-.1-.6-.3-1.5-.4-2.1-.1-.7-1.2-.4-2.8.7-5.1 3.3-5.3 3.8-2.7 7 1.3 1.6 2.3 3.2 2.4 3.7 0 .7-5.6.1-7.2-.9-.4-.3-.8-.1-.8.4 0 1.1 6 7.2 7.1 7.2.5 0 .9 1.2.9 2.7 0 1.9 1.3 4.1 4.2 7 3.4 3.5 3.8 4.2 2 3.8-3-.5-2.8 1.8.3 4.3 1.3 1.1 3.3 4.1 4.4 6.9 1.9 4.8 1.9 4.9 0 5-1.3.1-1.9-.5-1.9-2.1 0-5.2-5.1-7.4-11.9-5.1l-2.4.8 2.7-3.9c1.4-2.1 2.6-4.3 2.6-4.7 0-1-3-.6-6.5.8-1.6.6-1.3.1 1-2.5l3-3.2-3 .4c-1.6.3-3.8.9-4.7 1.3-2.7 1.1-2.2-1.5.9-4.7 2.2-2.3 2.4-2.8 1-3.3-.8-.4-3 .1-4.7 1-3.6 1.8-6.2.7-3.5-1.5 2.4-2 1.7-3.4-.9-1.7-2.9 2-4.2 1-2-1.4 1.6-1.7 1.5-1.9 0-2.5-1.1-.4-2.9.2-4.6 1.5-4.9 3.6-5.4 2.3-1.1-3 3.8-4.8 4.9-6.9 3.6-6.9-.3 0-2.8 1.1-5.5 2.5-3.7 1.9-5 2.2-5 1.1 0-.7.7-1.9 1.5-2.6 2.6-2.2 1.8-4-1.9-4-4.7 0-6.7-2.8-5.5-7.8 1.1-5 1.1-5.2-.5-5.2s-3.2 4.2-4.2 11.5c-1.3 9.9-.4 14.7 4.6 24.2 3.8 7 5 11.3 3.2 11.3-.5 0-3.5-1.8-6.6-4.1-3.2-2.3-5.9-3.9-6.2-3.6-.7.7-.6 17.5.1 22 .4 2.1 1.5 6.3 2.6 9.4 1 3.1 1.9 5.7 1.9 5.9 0 .8-5.9-2.9-7.8-4.9-2-2.1-4.5-8.5-5.8-14.6-.3-1.3-1.1-5.3-1.8-8.9-2.1-9.8-1.5-21.9 1.3-27.3 2.7-5.1 6.3-14.9 5.4-14.9-.3 0 0-.6.6-1.4 3-3.6 3-9.6-.1-9.6-.9 0-3.3 5.4-4.8 11-.6 2.5-2 7.9-3.1 12-2.2 8.1-2.9 24.4-1.6 33.9.4 3 1.9 8.2 3.3 11.5 1.4 3.4 3.4 8.2 4.5 10.9l1.9 4.7-3.7-1.9c-11.1-5.8-16.3-15.5-16.7-31.2l-.1-5.7-5.6-.5c-9.1-.8-17.9-6.6-17.9-11.8 0-2.5.7-2.4 5.8 1 3.4 2.4 4.8 2.8 7.1 2.1 8.6-2.4 10.4-5.7 12.5-22.5.3-2.2 1-6.4 1.6-9.3 2.2-9.9-1.7-7.4-4.6 3-1.9 6.5-3.9 7.9-3.1 2 1.9-13.2 1.9-14.2.9-14.2-.6 0-1.2-1.5-1.4-3.3-.3-3.1-.4-3-2.6 2.6-2.3 5.9-2.9 11.7-1.3 11.7.5 0 1.2-.6 1.5-1.3.3-.6.3.1-.1 1.8-.7 3.7-3 5.7-5.2 4.5-.9-.4-3.4-2.7-5.5-4.9-4-4.1-4.7-7-3.1-14.2.5-2 .1-2.8-2-3.7-2.6-1.2-7.5-9.9-7.5-13.4 0-1 .8-3.9 1.9-6.5 1-2.6 1.9-5 1.8-5.3-.1-1.7 1.6-4.9 2.4-4.4.5.3.7.9.4 1.4-.8 1.3-1.5 11-.8 11 .3 0 1.2-.8 1.9-1.8 1.2-1.5 1.3-1.4 1.5 1.3 0 1.6 0 4.2-.1 5.8-.2 4.1 1.1 9.2 2 7.7.8-1.4.6-5.3-1.1-18-3.4-25.4-3.4-25.7-1.1-26.4 2.3-.8 7.1.9 7.8 2.7.2.7-.2 3.2-1.1 5.6-1.1 3.1-1.1 4.1-.2 3.8.6-.2 1.6-1.8 2.1-3.5l.9-3.1 2.4 3.5c1.6 2.5 2.2 4.3 1.7 5.7-.7 2.2-.7 2.2-1.6-.2-.7-1.9-1.1-2.1-2.3-1.1-.8.7-2 2.9-2.6 5-.9 3.1-.8 4.3.6 7.4 1 2 2.3 3.5 2.9 3.3 1.3-.4 5.6-11.8 4.9-13-.2-.4.1-.7.6-.7.6 0 1.1.3 1.1.7 0 .5 2.4 3.5 5.3 6.8l5.4 5.9-2.3 3.3c-4 5.9-4.2 16.9-.2 12.9 1.4-1.3 1.8-1.2 3.7 1 1.9 2.2 2.5 2.3 3.8 1.2.9-.7 2.3-1.3 3.2-1.3 1.7 0 2.7-4.4 1.7-7.2-.5-1.2-1-1.1-2.6.8-1.8 2.3-1.9 2.3-2 .4 0-1.1-.6-2.9-1.4-4-.7-1.1-1.7-3.1-2.1-4.5-.8-2.4-.7-2.4 2.7.6 2 1.7 4.9 3.7 6.5 4.4 2.8 1.2 3 1.8 2.9 5.8 0 2.6.4 4.7 1 4.9.8.3 1.1-1.1 1.1-4 0-2.4.2-4.8.5-5.3 1.1-1.9 2-9.2 2.3-18 .4-12.5-1-15.5-11-22.8-12-9-16.3-17.8-15.2-31.7.4-4.9 1.3-8.2 3.3-11.8 1.6-2.7 3.1-4.8 3.4-4.5.3.3.3 4.5.2 9.4zm75.8 13.7c0 2.2-3.6 7-4.5 6.1-.7-.6.9-4.2 2.9-6.4 1.5-1.7 1.6-1.7 1.6.3zm-100.3 14.7c.4.7 1.9 1.9 3.2 2.6 2 1 2.1 1.4 1 2.5-2.5 2.4-5.7 2.8-6.7.8-.4-1-.7-2.4-.6-3.1.1-.6.2-1.9.3-2.7.1-1.9 1.7-2 2.8-.1zm91.5 1.8c-.7.7-1.2.8-1.2.2 0-.6.3-1.4.7-1.7.3-.4.9-.5 1.2-.2.2.3-.1 1.1-.7 1.7zm-100.4 9c.1 5.1.7 10.8 1.3 12.6.8 2.5.7 4.1-.7 7.7-.9 2.5-2.1 4.5-2.5 4.5-1.2 0-1.1-28.3.1-31.4.5-1.4 1.1-2.6 1.3-2.6.2 0 .4 4.2.5 9.2zm139.8 74.6c-1.8 1.6-1.8 1.6-.6-.6.6-1.3 1.4-2.1 1.8-1.8.3.4-.2 1.4-1.2 2.4zm37.9-1.8c1 1.6-.5 3.3-1.9 2.1-.8-.7-1.5-.4-2.4 1-1.4 2.2-3.1 2.5-2.8.5.5-3.6 5.5-6.1 7.1-3.6zm3.5 8.6c-1.8 4.6-3 6.4-4.5 6.4-1.8 0-1.8-.4-.2-3.3 3.1-5.6 6.5-7.8 4.7-3.1zm-13.7 4.7c-2 5.4-3.8 6.3-2.8 1.4.7-3 3.4-7.2 4.2-6.4.2.2-.5 2.5-1.4 5zm15.5 4.2c.2 2.2-.3 3.4-1.9 4.3-2.8 1.8-3.1 1.3-2.3-3.7.8-5.1 3.7-5.5 4.2-.6zm-9.8 18.7c0 2.9-1.5 5.4-2.4 4-.3-.5-.5-2.2-.4-3.6.3-3.2 2.8-3.5 2.8-.4zM391.5 526c0 1.7-6.1 6-8.3 6-1 0-.1-1.4 2.4-3.8 4-3.9 5.9-4.6 5.9-2.2zm-10.3 2.2c-1.4 1.4-1.6 5.7-.3 7.7.8 1.3 1.5 1.2 4.8-.3 2.1-.9 5.3-3 7.2-4.6 2.6-2.3 3.7-2.8 4.7-1.9 1.7 1.4 1.8 4.1.2 5.7-1.8 1.8-2.8 1.5-2.8-.9 0-2-.1-2-3.1.5-1.7 1.4-3.5 2.6-4 2.6-.6 0-2.5 1.1-4.3 2.5-3.9 3-6.7 3.2-9 .6-1.2-1.4-1.4-2.4-.7-4.2.9-2.3 6.7-8.9 7.9-8.9.3 0 .1.5-.6 1.2zm13.8 10.6c0 1.4-1.1 2.1-2.6 1.5-.8-.3-1.1-.9-.8-1.4.7-1.1 3.4-1.2 3.4-.1z"/><path d="M442.7 299.7c-.4.3-.7 1.1-.7 1.7 0 .6.5.5 1.2-.2.6-.6.9-1.4.7-1.7-.3-.3-.9-.2-1.2.2zM359.6 388.9c-.4.6-.3 1.9.3 2.8.9 1.7 1 1.7 1.7 0 .8-2.1-1-4.5-2-2.8zM388 434.1c0 .5.5.7 1 .4.6-.3 1-.8 1-1.1 0-.2-.4-.4-1-.4-.5 0-1 .5-1 1.1zM327.4 380.1c.8 1.1 2.5 2.8 3.8 3.7 2.3 1.6 2.3 1.6-.2-1.5-2.9-3.7-6-5.5-3.6-2.2zM303.3 421c-2.7 1.1-5.1 4.6-5.9 8.8-.6 2.8-.4 3.2 1.5 3.2 1.5 0 2.1.6 2.1 2.1 0 3.3 2.2 1.7 4.8-3.6 4.3-8.5 3.2-12.8-2.5-10.5zM337.7 434.6c-1.1 1.1-.7 6.4.8 10.9 1.4 4.3 1.7 3.7 2-3.7.2-4.7-1.3-8.6-2.8-7.2zM331.8 435.6c-.3.3-.3 1.4-.1 2.5.5 1.6.8 1.8 1.4.7 1.6-2.5.6-5.1-1.3-3.2zM343.8 436.6c-.6 2.6-.1 11 .7 12.5 1.4 2.1 2.2-1 1.8-6.3-.5-6-1.7-9.1-2.5-6.2zM291.6 446.8c-2.6 5.1-3.5 9.5-1.7 7.6 2.3-2.2 5.8-10.2 5.1-11.4-.6-.9-1.6.3-3.4 3.8zM317.6 454.1c-.6 2.6-1.1 5.6-2.2 12.7-.5 3.5-.4 4.4.7 4 1.7-.6 2.8-4.9 3.1-12 .2-6-.7-8.7-1.6-4.7zM626.3 208.7c.3.5.7 3.7 1.1 7.3.3 3.6 1 8.9 1.6 11.9.5 2.9 1 5.5 1 5.7 0 .2.5.4 1 .4 1.9 0 .9-11.3-2-22.2-.6-2.1-1.5-3.8-2.1-3.8-.6 0-.8.3-.6.7zM121.1 558.4c1 .9 7.9 1.4 7.9.5 0-.5-1.9-.9-4.2-.9-2.3 0-3.9.2-3.7.4zM78.8 634.6c-2.5 1.3-3.8 3.4-2.3 3.4 1.4 0 6.5-3.2 6.5-4 0-1.3-1-1.2-4.2.6zM148.4 633.6c-.5.1-3 .5-5.5.9-2.6.3-5.5 1.2-6.5 1.9-1.7 1.3-1.5 1.4 1.6 1 1.9-.2 8-.7 13.5-1 5.5-.4 10.4-1 11-1.5.5-.6.1-1-1-1.1-3.9-.3-12.1-.4-13.1-.2zM274.1 640.1c-8.9 3.6-13.5 6.5-12.5 8 1.4 2.3 10.4-1.4 15.1-6.3 2.8-2.9 1.9-3.5-2.6-1.7zM257.6 641.9c-2.8 3.1-1.5 4.3 2.2 2.1 1.7-1.1 3.2-2.4 3.2-3 0-1.7-3.6-1.1-5.4.9zM284.1 642.9c-5.8 2.9-7.6 5.1-4.4 5.1 2.2 0 11.3-5.7 11.3-7.1 0-1.4-1.1-1.1-6.9 2zM109 643c-8.9 2-21.8 3.3-33.2 3.4-5.9.1-7-.2-8.3-2.1-1.5-2.2-1.5-2.2-4.8-.3-3.8 2.2-9.3 7.7-8.5 8.5.2.3 2.9.1 5.9-.4 3-.6 9-1.3 13.4-1.6 4.4-.3 9.8-.8 12-1 2.2-.3 6.7-.7 9.9-1 12.2-1.2 24.3-4.6 23.1-6.6-.4-.5-.7-.9-.8-.8-.1 0-4 .9-8.7 1.9zM298.5 644.4c-4.5 2.1-6.9 4.2-6.1 5.4.8 1.3 12.6-4.1 12.6-5.8 0-1.4-2.9-1.2-6.5.4zM313 648.9c-1.7 1.4-2 2-1 2.1 2.2 0 4.3-1.6 3.8-3-.2-.8-1.1-.5-2.8.9zM322 652c-1.2.8-1.2 1 .2 1.5 2.4.9 6.1.2 6.6-1.3.4-1.4-4.5-1.7-6.8-.2zM626.8 455.8c-1 .2-1.8.7-1.8 1.2 0 1.3 3.7 2.2 6 1.5 1.9-.6 2.8-2.4 1.3-2.6-.5 0-1.5-.2-2.3-.3-.8-.1-2.3-.1-3.2.2zM623.3 469.6c-1.4 1.1-1.5 1.4-.3 1.4.8.1 2.4.3 3.5.6 3 .6 7-.5 5.8-1.7-1.6-1.6-7-1.8-9-.3zM621.7 481.7c-2.8.7-1.4 2.8 1.9 2.8 1.9 0 2.9-.5 2.9-1.5 0-1.6-1.9-2.1-4.8-1.3zM617.3 495.7c-2.1.8-1.5 2 1.2 2.7 3.3.9 5-.1 3.4-2-1.2-1.4-2.4-1.6-4.6-.7zM607.8 508.6c-4.5 1.3-.7 3.3 5.6 2.8 3.8-.2 5.4-.9 4.3-2-.8-.8-7.9-1.4-9.9-.8zM597.5 541.1c-2.8 6.2-3.5 12.3-1.7 14.1.7.7 1.4-.2 2.1-2.8 1.7-6.8 3.4-16.4 2.9-17-.3-.2-1.7 2.3-3.3 5.7zM605 541.8c-1.6 1.3-2.2 2.9-2.2 6.2-.2 8.7.2 12.2 1.2 11.8 1.5-.5 8-14.8 8-17.6 0-2.8-3.7-3-7-.4zM616.1 545c-3.9 4-5.5 12.4-2.6 14 1 .5 5.4-9.8 6.2-14.3.5-3.4.1-3.4-3.6.3zM573.6 562.8c-7.8 8.2-14.6 17.1-14.6 19.3 0 3.1 3.4 2.2 9.2-2.4 8.5-7 12.2-8.6 8.7-3.7-1.8 2.3-2 3.2-1 4.4 1.3 1.5 9.4 4.6 12 4.6 2.2-.1 6.7-4.1 7.5-6.6.4-1.5 1.3-2 2.4-1.7 2.5.6 8.5-3.8 9.7-7.1.8-2.4.6-3-1.5-4.7-3-2.3-12.8-5.6-19-6.4-2.5-.3-5.2-.8-6.1-1.1-1.1-.3-3.6 1.6-7.3 5.4zM577.2 586.2c-1.6 1.6-1.5 2.8.2 2.8 1.9 0 2.7-1.3 1.7-2.8-.5-.9-1-.9-1.9 0zM589.5 589.4c-1.6.8-3.9 2.1-5 3.1-1.9 1.6-1.9 1.6 1.9 1.1 4.4-.6 9-3.2 8.1-4.6-.8-1.3-1.4-1.2-5 .4zM628.8 617.1c-3.3.9-5.3 2.7-6.2 5.7-.6 1.9-.4 2.2 1.8 2.2 2.4 0 9.6-5.3 9.6-7 0-1.3-2.3-1.7-5.2-.9zM629 625c-1.3.9-1.3 1.1-.1 1.9 1.6 1.1 6.3-.7 5.5-2-.7-1.2-3.5-1.1-5.4.1z"/></svg>
