<?xml version="1.0" encoding="UTF-8"?>
<svg xmlns="http://www.w3.org/2000/svg" version="1.1" viewBox="0 0 94.9 94.9">
  <defs>
    <style>
      .cls-1 {
        fill: #7f1416;
      }
    </style>
  </defs>
  <!-- Generator: Adobe Illustrator 28.7.1, SVG Export Plug-In . SVG Version: 1.2.0 Build 142)  -->
  <g>
    <g id="Layer_1">
      <path class="cls-1" d="M50,73c2.8,0,5.2-.6,7.3-1.9,2-1.2,3.8-2.9,5.2-4.9,1.3-2,2.5-4.3,3.2-6.9.7-2.6,1-5.3,1-8s-.5-6.9-1.2-9.6c-.8-2.8-1.5-5.1-2.4-6.8-1.2-2.4-3.6-5.7-5.8-7.3-5-3.5-11-2.7-12.8-2.3-3,.7-3.6,5.3-3.8,6-.1.6-.2,1.3-.3,2.3-.1,1-.2,2.2-.3,3.5-.1,1.3-.2,2.8-.2,4.3s-.1,3.1-.1,4.8v9.3c0,2.5.1,4.6.1,6.1s.1,2.7.2,3.5.1,1.3.2,1.5c.1.7.4,1.5,1,2.2s1.2,1.4,2.1,2,1.9,1.1,3,1.5c.9.5,2.2.7,3.6.7ZM28.1,26c-.8,0-1.7.1-4.7,2.5-1.8,1.4-1.9,1.8-1,2.3,1.3.7.6,2.8-1.1,2.8s-2.4-1.5-1.7-3.5c.3-.7.3-1.1.2-1.3-.1-.1-.2-.6-.3-.9,0-.4-.3-.8-.6-1s-.4-.5-.5-.7q0-.4,1.2-.4c.8,0,1.7-.1,2.1-.2.8-.2,2.4-1.6,2.4-2s-1.9-.9-2.6-.9-1.3-.9-1.5-1.5c-.1-.6,0-.9.5-1.5.4-.7.9-1,1.6-1s.4,0,.7.1c1.2.2,1.7,1.1,1.4,2.4l-.2.6h1c.6-.2,1.7-.4,2.6-.5,1-.2,3.4-.4,6.1-.4s2.4,1.1,3.1,1.2c1.8.2,2.4-.8,4.3-.8,9.2-.7,14.9.5,19.6,3,3.1,1.7,6.4,4,8.7,6.7,1.9,2.2,4,5.6,5.1,8.2,1,2.7,1.5,5.4,1.5,8.3s-.7,6.8-1.9,10.1c-1.2,3.4-3.1,6.4-5.5,9.1-2.4,2.7-5.3,4.9-8.7,6.6s-7.2,2.5-11.4,2.5-2,0-3.4-.2c-1.4-.2-2.7-.4-4.2-.6-1.5-.3-2.8-.6-4.2-.9-1.4-.3-2.5-.7-3.4-1-1.1.6-2.5,1.2-4,1.8-1.7.6-2-1.4-1.2-2s1.4-1.4,1.8-2.4c.2-.6.3-1.6.6-2.9.2-1.3.3-2.9.4-4.7s.2-3.9.3-6.1c.1-2.2.1-4.6.1-7.1,0-5.6-.1-14.9-.4-18s-.7-5.1-1.2-5.4c-.5-.1-1.3-.3-1.6-.3Z"/>
      <path class="cls-1" d="M60.4,14.8c.2,0,.6,0,1.4.4,1,.5,2,1.3,3.9,2.7.6.4,1.1.8,1.1.7.3-.2,0-1.3-.8-2.2-.3-.5-.6-.9-.6-.9.6-.5,3.2,1.8,4,3.4.3.6.7,1.1.7,1,0,0,2.3.6,3,.6s.5.1.3.3c0,.2,0,.7,0,1.1s0,.8-.2.8-.7-.3-1.2-.7c-.6-.4-1.1-.7-1.2-.7s-.7-.4-1.2-.8c-1.1-.9-1.6-1.1-1.2-.4,0,.2.9.8,1.8,1.3,2.4,1.3,3.9,2.9,2.9,2.9s-.3.2-.5.3c0,.2-.8.4-1.8.6-2.1.4-2.9.3-4.3-.2-2.1-.9-2-1.3.3-1.4,1.6,0,1.7-.3.2-.5-1-.1-6.4,0-6-.4.9-1,.8-1.1-.9-.9-.7.1-1.9.1-2.8,0-.9-.1-1.6-.1-1.7-.1s0-.1,0-.2c0-.3,1.5-.8,3.1-1.2.7-.1,1.1-.3,1.1-.4,0-.3-2.1-.8-3.3-.8s-1.6.1-2.2.3c-1.6.4-3,.3-5.1-.7-2.2-1-2.5-1-5.7.3-1.6.6-4.4.2-5.8-.9-1-.8-2.1-1-3.6-.6s-2.8.5-3.3.2c-.2-.2,0-.2.7-.2s1.5-.2,2-.4c1.4-.6,2.5-.4,4.7.6,2.5,1.1,3.8,1.1,5.5,0,1.8-1,2.8-1.2,4.8-.9.9,0,2.4.3,3.4.5l1.7.2,1.1-.7c1.7-1.3,3.2-1.5,5.1-.8.7.2,1.1.4,1.2.3,0,0,0-.4-.2-.7-.5-.6-.6-.9-.2-.9ZM57.2,17.4c-.2,0-.3,0-.5,0,0,0,.6.2,1.6.3,1.1,0,2.1.3,2.9.7,1.4.6,5.9,2.9,8.4,4.4,1,.5,1.9,1,2,1,.6,0-1.5-1.3-3.3-2.1-1.1-.5-2.8-1.4-3.7-1.9-2.9-1.7-3.6-2-5.7-2.2-.7-.3-1.2-.3-1.7-.3Z"/>
      <path class="cls-1" d="M81.4,15.9s0,.1,0,0c.3.2.2,1.6,0,2.1-.5.8-.5,1,.5,1.1,1,.2,1,.4,0,.8-.5.2-1.1.7-1.6,1.2-.5.6-1,.9-1.3.9-.5,0-2-1.1-2-1.4s.3-.3.7-.6c.9-.5,1.4-1.7,1.1-2.7,0-.4,0-.6,0-.5,0,0,.2.5.3,1v.8c0,0,.8-.8.8-.8.5-.4.9-1.1,1-1.5.2,0,.4-.3.5-.4ZM78.7,20.3c0,.1,0,.3.3.5.3.3.7.5.8.4.3-.1-.8-.9-1.1-.9h0Z"/>
      <path class="cls-1" d="M75.1,20.6c.6,0,1.4.4,2,1.1.3.3.9.7,1.4.8,1.6.6,1.9,1.3,1.1,2.2-.3.4-.7.5-1.4.5-1.6,0-3.5-1.3-3.9-2.6-.2-.9.1-1.8.8-2-.2,0,0,0,0,0Z"/>
      <path class="cls-1" d="M74.1,24.8l1.5,2.7c1.7,3.1,2,3.9,2.5,5.5.3,1.3.7,1.6.5.5-.3-1.5-1-3.3-2.4-5.8-.7-1.4-1.4-2.7-1.2-2.9,0-.3,1.9,1.9,2.5,3.1.2.5.7,1.6,1.1,2.6.3,1,.8,1.6.8,1.5,0-.4-.7-2.4-1.7-4.3-.6-1-1-1.8-1-1.9,0-.2,2-.2,2.4,0,.3.2,1.7,2.9,1.9,3.8,0,.4,0,.6-.3.7-.6.2-.6.5,0,.6.6.2,1.1,1.3.8,1.6-.3.4-.3.8.3,1.4s.7.8,0,.8-.4,0,0,.9c.6,1.1.6,2.9,0,3.8-.2.4-.2.7,0,1.1.5,1.2.7,2.3.8,4.5v2.4s-.2-.2-.3-.5c0-.3-.5-1-.8-1.6-.9-1.7-1.2-3.1-1.4-4.6,0-1.7,0-1.6-.3-1.6s-.3.3-.5.8l-.2.8-.2-.6c-.3-.4-.3-1.6-.3-2.6,0-1.8,0-1.9-.3-1.9-.4.1-1.1-.4-1.1-.8s0-.7-.2-1.1c-.2-.7-.2-.8-.7-.4-.3.3-.5.3-.8-.3-.2-.5-.5-1.3-.5-2.5s0-1.9-.2-1.9c0-.1-.3.1-.7.2-.5.4-.7.4-1.1.2-.5-.2-.6-.3-.5-.7,0-.6,0-.6-.7-.2-.6.4-2.2.4-2.4,0,0-.2,0-.4,0-.5.2-.4,1.7-.8,2.4-.7h.7c0,.1-.6-.2-.6-.2-.3-.2-.6-.4-.6-.5,0-.3,1.1-.9,1.8-1l1-.4ZM79.3,32.5c0,0,0,.6.2,2.3,0,.4.2.7.3.7.3,0-.2-2.7-.5-3q.1,0,0,0Z"/>
      <path class="cls-1" d="M68.2,72.9c0,0,.2.2,0,.6,0,.3-.2.7-.3.8s0,0,0-.3c0-.3,0-.6,0-.8,0-.2.1-.3.2-.3Z"/>
      <path class="cls-1" d="M67.1,73.5s0,0,0,0c.2,0,.2.2,0,.4,0,.3-.8.6-.8.4s0-.3.3-.6c.2,0,.3-.2.4-.2Z"/>
      <path class="cls-1" d="M65.8,74.3c0,0,0,.2-.3.4-.3.4-1.5.6-1.5.3,0-.1,1.5-.7,1.8-.7Z"/>
      <path class="cls-1" d="M65.7,75.4s.1,0,0,0c.9.2,1.5,2.2.8,2.4-.2,0-.3.2-.3.4s-.3.5-.9.8c-.9.6-2,.7-3.5.3-.5,0-1.4-.2-2-.2h-1.2l1-.3c.6-.2,1.5-.3,1.9-.3,1.2,0,2.8-.4,2.4-.6,0,0-.6,0-.9,0-1,.2-.6,0,.8-.6.7-.2.9-.3.6-.3h-.7c0,0,.6-.3.6-.3l.6-.4h-.6c-.3.2-.9.2-1.4.3q-.7,0-.2,0c.3,0,1-.4,1.7-.7.4-.2.9-.4,1.3-.4Z"/>
      <path class="cls-1" d="M67.8,76.3c0,0,.3.5.7,1.1.3.6.8,1.4,1.2,1.8.5.4.8.9.8,1s-.2.2-.6.2-.5,0-.3,0c.5-.2.3-.5-.2-.5s-.5,0-.3-.3c0-.2,0-.3,0-.3s-.2-.2-.2-.4c0-.3,0-.4-.5-.3-.3,0-.5,0-.2,0,.3-.3.3-.6,0-.6s-.3,0-.2-.3c0-.2,0-.4,0-.5-.4-.2-.2-.7,0-.7Z"/>
      <path class="cls-1" d="M61.7,76.7c.2,0,.2,0,0,.2-.2.2-1.6.6-1.6.5,0,0,.3-.2.7-.4.3,0,.6-.2.8-.3Z"/>
      <path class="cls-1" d="M79.5,55.9c.2,0,.5.4.6,1.4,0,.6.2,1.9.3,3,0,1,.2,2.4,0,3.1-.2,1.8-.9,4.2-1.3,4.4s-.3.3,0,.4c.3.4.3,1,0,1.6,0,.3-.2.7,0,.9,0,.4.2.3.5,0q.3-.4.2.3c-.3,1.4-1,2.5-1.9,2.7-.5,0-1.2.5-1.9.8-1,.5-1.1.6-1,1.2,0,.4,0,.9,0,1.2-.2.5-.2.4-1.4-.8l-1.1-1.3h-1c-.6.2-1.2.3-1.7.3-.6,0-.6,0,.9-1.3s1.9-1.9,1.4-1.9-.3.2-.6.4-.9.7-1.4,1l-.9.6v-.5c-.2-.7.1-1.4.6-1.3.2,0,.5,0,.5-.2,0-.2.2-.2.5-.2.2,0,.3,0,.5-.5,0-.7.5-.8.6-.3,0,.2,0,0,0-.3,0-1,.2-1.6.6-1.6s0,0,0,.3c-.2.5-.2,1.3,0,1.6s.2,0,0-.2c0-.5.2-2.1.6-2.4,0,0,.2,0,0,.7q0,.9.2.5c.2-.2.3-.5.3-.7s0-.4.2-.5.2,0,.2.2,0,.3.2.3.2-.2.2-.5,0-.5.2-.5,0,.3,0,.7v.7c.2,0,.8-1.2.7-1.4-.2-.3.9-.5,1.7-.3.5,0,.7,0,.6,0,0-.4-2-.4-2.9,0-1.1.4-1.2.4-.8-.2.5-.5.6-.5,2.1-.5s1.7,0,1.7-.2c0-.3-.9-.4-2-.3-.9,0-1.1,0-1.1-.2s.6-.7,1.1-.6c.2,0,.5,0,.6,0s0-.2-.3-.2q-.6,0,0-1c.8-1.1,1.5-2.9,2.2-5.3,0,0,.2-.2.6-.2s.5,0,.6-.2c0,0,0-.2-.3-.2-.3,0-.4,0-.4-.4s0-.4.3-.4.3,0,.3-.2,0-.2-.2-.2c-.3,0-.3-.8,0-.9-.2,0,0,0,0,0ZM79.5,59.3c-.2,0-.4,0-.4.2s.2.2.4.2.5,0,.5-.2-.3-.2-.5-.2ZM79.4,60.7c-.3,0-.6,0-.6.2s.2.2.6.2.6,0,.6-.2c0-.1-.4-.2-.6-.2ZM79,62.1c-.2,0-.5,0-.5.2s.2.2.5.2.4,0,.4-.2-.1-.2-.4-.2ZM78.4,63.6c-.2,0-.3,0-.3.2,0,0,.2.2.5.2s.3,0,.3-.2c-.1-.1-.3-.2-.5-.2ZM77.7,65c-.3,0-.7,0-.7.2s.3.2.7.2.7,0,.7-.2-.4-.2-.7-.2ZM76.6,67.7s0,0-.3.5-.5,1-.5,1.4c0,.9.3.7.5-.3s.2-1.1.2-1.4q.1-.1.1-.2ZM77.4,68.4c-.2,0-.3,0-.6.3-.2.3-.2,1.5,0,1.9q0,0,.2,0c0-.2.2-.6.4-.9.2-.4.3-.8.3-.9,0-.3-.1-.3-.3-.3ZM78.5,68.6s0,0-.3.3c-.3.2-.5.6-.5,1.1s0,.7,0,.7c0,0,.4-.7.7-1.5,0-.5.1-.6,0-.6ZM74.1,70.3l-1.1,1.2c-1,1.1-1.4,1.7-.7,1.7s.5-.3.8-.6.8-.6.9-.6c.2,0,.2,0,0,.2-.5.4-.3.7.3.9.3,0,.7.2.7.2.2,0,.9-.4.9-.7s0-.3.3-.2c.2,0,.5,0,.8-.4.4-.5.4-.6,0-.9-.2-.2-1-.5-1.7-.6l-1.2-.2ZM74.1,73.3q0,0,0,0c-.2,0-.3.2-.3.3s0,.2.2.2.2,0,.2-.3c0,0-.1,0-.1-.2ZM75.8,73.6c0,0-.3,0-.6.2-.3.2-.7.4-.7.4,0,.2.5,0,.9,0,.4-.1.5-.3.4-.5q.1,0,0,0ZM77.1,74.2q0,0,0,0c0,.2,0,.3-.2.4s-.3,0-.3,0c0,0,0-.2.3-.3,0,0,.2,0,.2,0ZM78.3,74.4h.2c.2.2,0,.2,0,.2-.4,0-1.3,1-1.1,1.3,0,0,.6,0,1-.6.8-.8.9-.8,1.2-.4.6.6,1.7,2.2,1.9,2.6,0,.2,0,.5-.3.8-.6.5-.8.5-2-.3s-1.1-.7-1.3-.8c-.2,0,0-.4.7-1,.6-.5.9-.9.8-1-.2-.3-1,.3-1.6,1l-.6.8v-.4c0-.3,0-.7-.2-.9-.3-.4.8-1.3,1.4-1.3ZM70.4,75.9c.2,0,.5.2.7.7.2.4.8,1.1,1.2,1.6.9.9,2.2,1.3,3.7,1.3s.6,0,.6.2c0,.3-2.8.2-3.7,0-1.5-.6-3.1-2.7-2.8-3.5,0,0,.2-.2.3-.2ZM79,76.3c-.5,0-1.1.6-1.1.9s.2.2.9-.3c.5-.5.6-.6.2-.6ZM79.7,76.7c-.4,0-.9.4-.9.8s.7,0,1.1-.4c.3-.3.2-.4-.2-.4ZM79.9,77.5c-.2,0-.5,0-.5.2s0,.2.3.2.3,0,.4-.2c.2,0,0-.2-.2-.2Z"/>
      <path class="cls-1" d="M18,53.1s0,0,0,.2c0,.2.7.8,1.1,1.3,1.6,1.5,2.1,2.3,2.4,3.5.2.9.2,1.4.1,1.9-.2.9-.2,2,0,2s.2,0,.3-.3.2-.3.3-.3c.3,0,.4,1,.1,2.3-.3,1.9-.3,1.8.6,1.3.4-.2.8-.4.9-.4s0,.3,0,.7c-.1.8-.9,2.1-1.5,2.5-.8.6-.2,1.1.7.5.4-.3,1.2-.4,1.2-.2s-.2.5-.6,1c-.4.7-.6,1-.3,1.2.2.3.1,1.3-.6,2.7-.2.6-.3.7-.6.5-.2-.4-.4-.2-.4.7s0,.8.2.9c0,0,.1,0,.1-.4s.1-.6.3-.8c1.1-1,1.6-2.8,1.9-3.5h1.3c-.3,1.1-1.2,3-1.5,3.3l-.4.6c0,0,.3.2.8.2.4,0,.8.2.8.3s-.6.7-1.1,1.3c-1.1,1.1-2,1.6-2.4,1.3-.1,0-.9.5-.9.7,0,.3.8.2,2.7-.6,1.1-.4,2.2-.8,2.6-.8s.8-.2,1-.4c.4-.5,1.7-1.8,1.5-.8-.2.7-.3,1.3-.2,1.3,0,0,.8,0,1.6,0,.8,0,1.6-.2,1.6,0,.1,0-.2.4-.7.7-.6.4-.7.6-.4.7.3,0,3.3-.4,3.9-.7.6-.3.7,0,.2.3-.2.2-.4.5-.4.6,0,.3,2.6,0,3.7-.4.6-.2,1-.3,1-.2.1,0,0,.4-.2.8s-.3.8-.3.9c0,.3.4.2,1-.3.5-.4.7-.5,3.5-.5s3,0,3.3.4c0,.2.4.4.7.4s.6,0,.9.2c.2,0,1,.4,1.7.6s1.2.4,1.3.5c.2.6-3.7.8-5.7.4-.8-.2-2.5-.3-3.7-.3-2.2,0-2.2,0-2.9-.7-1.1-1-1.5-.8-.9.7.1.2,0,.3-.3.3-.8,0-2.5-.6-3.4-1.1-1.2-.7-2.4-1-2.4-.7s.1.5.3.9c.2.4.2.8.1.8-.5.4-3.2-.3-4.3-.9-1-.5-1.9-.6-2-.3-.1,0,0,.4.2.7.1.3.2.6.2.7-.2.2-2.5,0-3.3-.2-.7-.3-.9-.3-1.3,0-.3.2-.8.3-1.5.2-.6,0-1.3,0-1.8,0-.6,0-1,0-1,0,0,0,0-.6,0-1.1,0-.9,0-1,.7-1.2s.8-.5.4-1.7c0-.3,0-.6.5-1.1.3-.3.6-.7.6-.9s-.3-.6-.8-1.1-.8-1.1-1-1.3c-.3-.5-.2-6,0-5.8.6.7,1,1,.7.7.6.7.8,1,1.1,1s.2-1.3,0-2.5c-.3-1.2-.2-2,.2-3.8.2-.9.3-1.2,0-1.4-.3-.3-.3-2,0-2.9.6-1.2.5-2.1-.5-2.9-.5-.5-.8-1-.9-1.6-.2-.3-.4-.5-.2-.5ZM56.9,78.2c.3,0,.5,0,.5.4s0,.4.2.3c0,0,.5-.2.7-.2q.3,0,0,0c-.2,0-.2.2,0,.2s0,0,0,.2c-.5.3-1.7.2-2.4,0-.3-.2-1.2-.4-1.9-.4-1.2,0-1.4,0-1.9.5-.7.7-1,.7-2,.3l-.8-.3h.9c.6,0,1.1-.2,1.4-.4.6-.5,1.5-.7,2.7-.5.6,0,1.4,0,1.6,0,.5,0,.9,0,1.1,0ZM20.5,78.5c-.1,0-.3,0-.5.2s-.3.3-.2.3c.4,0,1-.4.7-.5q.2,0,0,0ZM28.4,78.5c-.8,0-2.1.2-2.2.4-.1,0,.2,0,.8,0,.4,0,1.2,0,1.7,0s.7,0,.4-.2-.3-.1-.7-.1ZM41.7,79.1c-.3,0-1.9.7-1.9.9s.2.2.3.2c.5,0,1.8-.9,1.6-1.1h0ZM39.9,79.2c-.3,0-.8.4-.7.6.1,0,.3,0,.6-.2.2-.2.3-.4.2-.4h-.1ZM43,79.2c-.3,0-1.4.6-1.4.8s0,0,.1,0c.3,0,1.6-.7,1.3-.9q.2,0,0,0ZM24.3,79.4c-.2,0-.8,0-1.1.2s-1.5.3-2.4.3c-1.6,0-1.8,0-1.9-.2q0-.3-.8,0c-.3.3-.7.6-.7.7,0,.2,0,.2.3,0,.2,0,1.3-.2,2.6-.3,2.5-.2,3.3-.3,3.9-.7q.5-.2.1-.2ZM44.4,79.5c0,0-.2,0-.6.2-.3.2-.7.4-.7.5,0,.3.2.2.8,0,.7-.3.8-.6.5-.6ZM45.7,80c0,0-.3,0-.5.3,0,0,0,.2.2,0,.3-.1.5-.2.3-.4.2,0,.2,0,0,0ZM46.8,80.4c-.2,0-.5,0-.5.2s0,.2.3.2.3,0,.5-.2,0-.2-.3-.2Z"/>
      <path class="cls-1" d="M48.3,26.9s.3.3.8.6c.6.6.8.7,2.1.7.9.1,1.8.2,2.4.5.5.2,1.2.5,1.6.6,1.5.4,2.6,1.8,3.2,3.7.3,1.2.2,3.7-.2,6.1-.2.9-.3,1.7-.2,1.7,0,.1.3-.3.6-.7.3-.4.6-.7.6-.7,0,.1-.3,1.4-.6,2-.6,1.2,1.2.1,2.2-1.4.5-.6.7-.9.8-.7,0,1.2-.3,2.5-1.2,3.4-.7.8-1.1,1-1.5.7-.3-.2-.9,0-.6.3,0,0,.6.3.9.5,1.2.6,1.2.8,0,1.5-1.2.8-1.6,1.1-2.2,2.7-.3.7-.7,1.6-.8,2-.6,1.2-1.2,2.5-1.9,3.3-.6.7-1.4,2.2-1.1,2.2s.3-.3.6-.8c.6-1.2,2.6-3.6,3.4-4.2.5-.3.9-.5,1.1-.5.7,0,1.6-.5,1.7-1.1.2-.8.5-.6.5.3,0,1.3-.7,2.3-1.8,2.6-1.7.5-4.6,2.6-4.6,3.3s0,.5-.2.8q-.2.6,0,.9c.2.2.3.2.5,0,.2-.6,1.1-1.7,1.6-2,.2-.2.8-.3,1.2-.3.7,0,1,0,2.2.7q.2,0,0,0c0,0-.6-.5-1.1-.7-.8-.4-.9-.5-.5-.5s.5,0,.3-.2c0,0-.3-.2-.7-.2-.8,0-.7-.3,0-.6.9-.3,1.2-.3,1.7.2,1.2,1.2,2.5,1.4,3.2.4.6-.8.7-.8.6,0-.3,2.2-2.2,3-4.2,1.9-.9-.5-2.4-.6-2.7-.2q0,.2.3,0c1.1-.3,2.4.9,1.8,1.9-.2.4-.5.5-.5,0s0-.3,0-.3c0,0,0,0,0-.2s0-.2-.2,0c0,0-.2,0-.2-.2q0-.2,0,0t0,0c0-.2-.3-.3-1-.3s-.9,0-1.7,1c-.5.5-.8,1-.9,1-.5,0-2.8-1.6-2.8-1.9s0-.7.3-1.2.6-1.4.7-2c.2-.6.8-1.8,1.2-2.6,1-1.8,3.4-5.6,3.6-5.7.3-.2,1-1,.9-1.2s-2.1,2.4-3.3,4.2c-.3.6-.7,1-.7,1,0,0,.3-1,.8-2.1,1.3-3.3,2.5-7,1.9-6.6,0,.1-.2.4-.2.6,0,.7-2,5.5-2.5,6.5-.7,1.3-.8,1.6-1.2,2.6-.6,1.2-.7,1.3-.9.5,0-.6-.2-.6-.3-.3s0,.5,0,.6c.6.9.5,3-.2,4.4-.6,1.1-.8,1.4-1,1.4-.3,0-.3-.4-.2-1.5,0-.8,0-1.3,0-2.1q-.3-2,0-2.4c.2-.2.6-.7.7-1.1,2.8-6.9,4.2-10.5,4.4-11.6,0-.7.3-1.4.5-1.4,0-.1.2.8.2,2.1v2.2c0,0,.6-1.1.6-1.1.7-1.7.8-2.8.8-4.8s0-2-.3-2.8c-.5-1.1-1.1-1.9-1.9-2.2-.7-.2-1.2,0-2,1-.6.6-.6.9-.6,1.6,0,1.6,1,2.4,2.1,1.7.2-.2.2-.1,0,.3-.5.4-.6.5-1.2.4-.6-.1-.8-.2-1-.6q-.8-1.4-.8.1c0,1,.2,2,.7,3.3.7,2.2.9,3.2.8,4.2l-.3,1.4-.3-.5c-.2-.2-.8-.8-1.2-1.3q-.9-.8-1.2-2.4c0-.9-.3-1.6-.5-1.5-.2.2,0,1.8.2,2.5s.5,3.1,0,3.1-.3-.5-.6-1c-.3-.9-.3-1.2-.3-2.9,0-1.3,0-1.9,0-2s0-.5.2-1.4c.3-1.3.7-1.6.7-.7s0,.9.2,1.4c0,.5.2,1.1.3,1.5,0,.3,0,.5.2.5,0-.1,0-1-.2-2.1s-.3-2.1-.3-2.3c0-1,2.9-4.3,3.8-4.3s.3-.1.3-.2-.3-.2-.7-.2c-.7,0-1,.3-2.1,1.6-.3.4-.9.9-1.4,1.2-.7.4-.8.6-.8,1.1s-.3,1.1-.9,2.1q-1.2,2.1-.8,1.8c.2-.1.3-.2.5-.2.3,0-.2,1.7-1.6,4.5-.2.5-.3,1-.3,1,0,0,.3-.4.6-.9.2-.5.6-1,.7-1.2q.2-.2,0,.6c-.2,2,.4.4.9-2.1,0-.7,0-.6,0,.9s0,2.3,0,2.9c0,1,0,1.3,0,2.1,0,.5.5,1.2.7,1.5.5.5.5.6,0,.6-.6,0-1.3-1.3-1.6-2.5-.2-1,0,.3-.8.8-2.1,1.8-3.5,1.2-5.1-1.3-1-1.6-.9-3.4.3-5.1,1.1-1.5,1.2-2.5.2-2.5s-.5-.1-.5-.3c.1-1,1.4-.7,1.7.4.2.9.2,1.4-.1,1.8s-.1.8.1.4c.2-.3.5-.3.5,0s-.2.6-.6.9c-1.7,1.9-1.8,2-1.7,3,.2,1.7,1,2.5,1,1s.1-.8.3-.9c.4-.2.6,0,.3.5-.2.6-.2,1,.1,1.8.2.6.4.7.9.7.8,0,1-.8,1-1.8s-1-1.7-1-2.8,1.4-2.5,1.5-2.9l.3-1.3-.8.2c-.7.1-1,.1-1-.3s.6-.4,1-.4c1,0,.8-.8,1.1-1.5s.6-1,1-1.1c.3-.1.8-.3.9-.5q.3-.3,0-.3c-.2,0-.6.1-.9.3-.7.3-1.9.3-2.4-.1-.5-.5-.3-.8.3-.7s1.8-.4,2.6-1.3c.5-.9.7-.9,1.8-.9s1.6-.1,1.6-.5-.2-.1-.6-.1c-1.3.3-2.8-.8-2.8-2.2.3-.2.3-.5.4-.5Z"/>
      <path class="cls-1" d="M59.5,42.4q-.1,0,0,0c-.2,0-.2.2-.2.3s0,.2,0,0c.1,0,.2-.2.1-.4h0Z"/>
      <path class="cls-1" d="M53.4,49.6h0c0,0,0,.3-.2.6s-.3.4-.3.3c0-.3.4-1,.5-.9Z"/>
      <path class="cls-1" d="M52.5,51.3q0,0,0,0c0,.2,0,.3,0,.3s0,0,0,0c0,0,0,0,.2-.2-.1,0,0,0,0,0Z"/>
      <path class="cls-1" d="M50.5,52c0,0,0,0,0,.3s0,.3,0,.3c0,0,.2,0,.2-.3-.1-.2-.1-.3-.2-.3Z"/>
      <path class="cls-1" d="M53.7,56.8q.1,0,0,0c0,.2,0,.3,0,.3s0,0,0,0c0,0,0,0,.2-.2h0Z"/>
      <path class="cls-1" d="M50.4,46.8c0,0,0,.3-.5.8-.6.8-1.2,2.7-1,3.1v.6c0,.5-.3.5-.7,0-.2-.5-.2-.6,0-1.6.3-1.1.9-2.1,1.6-2.5.3-.2.4-.3.6-.3ZM45.2,47.2c0,0,0,.3,0,.8-.2,1.6,0,2,1.6,2.4.7.2,1.9,1.6,2.2,2.8.3,1,.5,2.5.2,3.1s-.2.2,0-.9c0-.9-.3-2.2-.8-2.8-.4-.6-.6-.4-.2.3.3.8.7,3.1.3,3.3-.3.3,0,.7.5.9s.6.2.6.6c0,.6,0,1.5.3,1.5s.2-.4.2-.8c0-.6,0-.8.2-.7,0,0,.2.3,0,.5,0,.2,0,.7,0,1,.2.6.6.8.5,0,0-.5.2-.6.3,0,0,.2.2.3.3.4,0,0,.2,0,0-.6-.2-.9,0-1,.6-.5.7.5.7.6.3,1.2-.2.4-.2.7,0,.7s.2-.2.3-.5.2-.5.3-.5,0,.2,0,.5c0,.6.3.7.5,0,0-.2.2-.4.3-.4.2,0,.2,0,0,.2s-.2.4-.2.5c0,.4.3.3.5,0,0-.2.2-.4.3-.4.2,0,.2,0,0,.4,0,.2-.2.5-.2.6,0,.4.3.2.6-.3,0-.3.3-.5.5-.5s.3.3,0,.5c-.2.2-.2.7,0,.7s.2-.2.2-.5.2-.5.3-.5c.2,0,.3.3,0,.5s-.2.7,0,.7.2-.3.3-.6c0-.5.2-.6.7-.5q.6,0,.2.8c0,.3-.2.6,0,.7,0,.2.8-.7.8-1.1s0-.3.2-.3c.2,0,.2.4,0,.9,0,.3-.2.6,0,.6,0,.2.6-.3.8-1,0-.3.2-.6.3-.6.2,0,0,.4-.2,1.1-.3.5-.3.6,0,1s.3,2.7,0,2.7,0-.2,0-.5,0-.5-.2-.6c-.3-.2-.6,0-.6.5s0,.4-.2.4,0-.3,0-.7c0-.8-.2-1.2-.3-.5q-.5,0-.6-.6v-.7c0,0-.4.7-.4.7l-.2.7v-.8c.2-.9,0-1-.2,0l-.2.7v-.7c0-.8-.3-.8-.6,0,0,.4,0,.3-.2-.5,0-1.1-.5-1.2-.5-.2s-.5.6-.5-.5v-.4.4c-.3.6-.6.6-.7-.2,0-.5,0-.6-.2-.3,0,.4-.5.4-.5,0s0-.5-.6,0l-.3.3.3.4.3.4h-.5c0,0-.5-.2-.5-.2l.3.4c.2.2.5.5.6.5q0,0,0,.3c0,0,0,.3.5.7.3.3.6.5.3.4-.5-.2-.5.2,0,.5.2,0,.3.3.3.4s0,.4.2.6q.2.3,0,.2c-.2.2-.3,0-.2-.2,0-.5-.6-.9-1.1-.6l-.5.2.3-.4c.5-.5.3-.9,0-.6-.5.3-.7.2-.2,0,.5-.4.2-.6-.3-.3s-.6,0,0-.4c.2-.2.3-.3.2-.4s-.3,0-.6,0c-.2.2-.5.2-.5,0s0-.2.2-.3,0-.2,0-.2c0,0-.2,0-.3,0s-.3.2-.3,0c0,0,0-.2,0-.3s.2-.2,0-.3c0,0-.3,0-.6.2-.7.5-.7.4,0-.3.7-.7.6-1-.2-.5-.3.2-.6.3-.6.2s0-.2.2-.3c.3-.2.3-.6,0-.5-.2,0-.5,0-.6-.2q-.2-.3-.5,0c-.3.6-.2,1.6.2,2.3.5.7.8,1.4.6,1.6,0,0-.3,0-.7-.4-.3-.3-.7-.5-.7-.5,0,0,0,.6,0,1.3s0,1.5.3,2c.2.4.3.8.3.8,0,0-.3,0-.6-.3-.5-.3-.6-.7-.9-1.8-.5-1.9-.5-3.3,0-4.2.5-.8.6-2,.3-2.1,0,0-.2,0-.2.2,0,.2-.2,1-.5,1.9-.3,1.5-.3,1.7-.2,3.1,0,1.2.3,1.7.7,2.4.2.5.4.9.4,1,0,0-.3,0-.7-.3-.9-.6-1.5-1.7-1.5-3v-1h0c-.9.3-2.1-.2-2.5-.9-.2-.6-.1-.7.5-.2.8.8,2.1,0,2.1-1.4s0-.9.2-1.4c0-.5.2-.9.2-1-.2-.2-.5.2-.6.9,0,.4-.2.7-.3.7-.2,0,0-.2,0-.9.2-.9.2-1.3,0-1s-.2.5-.2.9c0,1-.5,1.1-1.2.3q-.6-.6-.2-2.4c.1-.4,0-1.2-.1-1.9s-.3-1.7-.3-2.1q-.1-.8.3-.9c.3,0,.6,0,.8.5.9,1.7,3,3.7,3.8,3.7s.4-2.1.3-2.9c0-.7-.3-1-1.1-1.5-1.6-1-2.1-2.5-1.6-4.4.4-.6.5-.9.6-.9ZM46.9,51c0,0,0,.2.2.4.5.5.7.5.2,0-.1-.2-.3-.4-.4-.4ZM42.3,51.1s.1,0,.2.2c.1.2.3.3.5.3s.1,0,.1.2-.2.2-.4.3c-.3,0-.5,0-.5-.5,0-.4,0-.5,0-.5ZM41.5,51.5c.1,0,.1.2.1.7,0,1.4,0,1.5.2,1.8.1.2.1.3,0,.4-.1,0-.2.3-.2.5-.2.8-.4.3-.3-1.3-.1-1.2,0-2.1.2-2.1ZM43.3,53c-.1,0-.2.3-.3.6-.1.3-.2.6-.1.6s.2-.3.3-.6c.1-.3.1-.6.1-.6ZM43.4,54.1c-.1,0-.3.2-.4.6-.1.4-.1.6.1.9.1.2.3.4.3.4.1,0,.7-1.7.6-1.8,0,0-.2,0-.3.2,0,.3-.1.2-.1,0,0-.2,0-.3-.2-.3ZM41.9,54.7c.1,0,.1.3,0,.8-.1.8-.1.9.2.5q.2-.4.2.5c-.1.6,0,1,.1,1.1s.1.2.1.3c-.1.3-.6.2-.8-.3-.5-.8-.5-1.3-.2-1.7.1-.2.2-.5.2-.7,0,0,0-.4.2-.5,0,0,0,0,0,0ZM44.7,55.5c-.2,0-.7.2-.8.5-.3.6-.3,1.1,0,.9.2,0,.2,0,.2.2s0,.3,0,.3c.2,0,.8-1.3.8-1.7,0-.2-.2-.3-.3-.2ZM45.3,55.9c0,0-.3.3-.5.7,0,.4-.2.8-.2.9,0,.3.5.3.5,0s0,0,.2,0c.2.4.5.5.5.2s0,0,.3,0c.2,0,.3,0,.3-.4s0-.5-.2-.5,0,0,0,.2,0,.2-.2.2,0,0,0-.3,0-.3,0-.3c0,0-.2,0-.2-.3-.1-.3-.1-.4-.2-.4ZM46.9,56.9c0,0-.2.2-.2.5s0,.5.2.5,0-.2,0-.5c.1-.3,0-.5,0-.5ZM48.1,57c0,0-.2.5,0,1.1l.2.6v-.7c0-.4,0-.8,0-.9s-.2,0-.2,0ZM47.5,57.1c0,0,0,0,0,.3s0,.3,0,.3c0,0,0,0,0-.3.2-.2,0-.3,0-.3ZM48.8,57.1c0,0-.2,1.3,0,1.5.2.3.3,0,.2-.7,0-.4-.1-.8-.2-.8ZM43.4,57.9c-.1,0-.6.9-.6,1.2s.2.2.4-.4c.4-.5.4-.8.2-.8ZM44.1,58.1c0,0-.3.4-.5,1.1-.1.6-.1.8,0,.8s.6-1.6.4-1.9c0,0,0,0,0,0ZM46,59c0,0-.2.3-.2.7,0,.4,0,.8-.2,1,0,.2,0,.3.2.3s.2-.2.2-.4,0-.7,0-1c0-.4,0-.6,0-.6ZM46.8,59.2h0c-.2,0-.6,1.1-.3,1.3,0,.2.6-.5.6-1-.2-.2-.2-.3-.3-.3ZM48.1,59.8c-.2,0-.5,1.3-.3,1.7,0,0,.2,0,.3-.6.3-1,.3-1.1,0-1.1Z"/>
      <path class="cls-1" d="M57.1,60.2c-.2,0-.7.6-.7.9s.2,0,.6-.4c.2-.3.2-.5.1-.5Z"/>
      <path class="cls-1" d="M60.6,60.2c.2,0,.3.2.2.4s0,.2-.2,0c0-.2,0-.2-.3,0,0,.2-.3.2-.3,0s0-.3.2-.5c.2,0,.3,0,.4,0Z"/>
      <path class="cls-1" d="M59.4,60.8c0,0,0,.2,0,.5s-.2.3-.2.3c-.2,0,0-.3,0-.6,0,0,0-.2.1-.2Z"/>
      <path class="cls-1" d="M61.2,61c0,0,0,.2,0,.5s-.3.5-.5.5,0-.2,0-.5c.2-.3.3-.5.5-.5Z"/>
      <path class="cls-1" d="M59.8,61.2c0,0,0,.2,0,.6,0,.3-.2.6-.3.6s0-.5,0-.9c.2-.2.3-.3.3-.3Z"/>
      <path class="cls-1" d="M61.2,61.8c0,0,.2.2.2.5s0,.5,0,.4c0,0-.2,0-.3,0-.2.3-.3,0,0-.7-.1-.2,0-.3.2-.3Z"/>
      <path class="cls-1" d="M59.6,63.1c0,0,0,0,0,.2,0,.2,0,.4,0,.5s0,.2-.2.2c-.2,0-.2-.8,0-.9h.2Z"/>
      <path class="cls-1" d="M60.1,64c.2,0,.3.2.2.5,0,.4-.3.4-.3,0s0-.4,0-.4Z"/>
      <path class="cls-1" d="M53.7,66.7q0,0,.2,0c0,.2,0,.3-.3.5-.6.4-1.1.4-.6,0,.2,0,.5-.4.6-.5q0-.2,0-.2Z"/>
      <path class="cls-1" d="M52.9,66.9s0,0,0,.2c-.3.3-.2,1,0,1s1.2-.6,1.4-.9c0,0,.2,0,.3,0,.2.2.2.4,0,.5-.2.3-.5.3-.3,0,0,0,0-.2,0-.2s-.2,0-.2.2-.2.2-.3.2-.5.2-.7.4c-.3.3-.6.3-.8.2s-.3-.3-.3-.4c0-.3.6-1,1-1.3h0Z"/>
      <path class="cls-1" d="M54.1,68.2c0,0,.2,0,.2,0,0,.2-.3.3-.5,0,0,0,.2-.2.3-.2Z"/>
      <path class="cls-1" d="M24.3,70.4c2.8-5.7-2.3-11.2-1.5-11.1,1,.2,0-4.9.8-5.4.7-.5.8-1,.7-2.1-.1-.7-.2-.9-.7-1.3-1.1-.8-2.4-.4-2.6.9-.1.3-.1.2-.1-.3s0-.7.5-1.2c.3-.4.7-.5,1.1-.5q1.6,0,.4-.7c-.8-.5-1.6-.8-2.7-1.1-2-.4-2.6-1.6-2.6-1.6,0,0,.7.2,1.2,0,1.1-.3.7-.3,2.1-.4.7.3,1.4.5,1.4.4,0-.3-1.1-1-1.9-1.1-.7,0-2.5-1.2-2.2-1.4,0,0,.6,0,1.1,0,.9.2,1.1.3,2.2,1.2.9.7,1.4,1,1.5.9.2,0,.3,0,.9.8.7,1,.7,1.3.1.9-.2,0-.7-.4-1.1-.5-.4,0-1-.3-1.2-.5-.2,0-.4,0-.4,0s.7.5,1.6.8c.9.4,1.8.7,1.9.8.7.5,1,4.5.4,5.2-.1.2-.2.4-.1.4.1,0,.3,0,.6-.4.4-.5.4-.9.3-2.5v-1.7c.1-.7.1-.9-.2-1.2-.2-.2-.6-.8-.9-1.7q-.7-2-.8-1.5c0,.2-.1.4-.1.5-.2.3-1-1.1-2.1-3.5-.2-.5-.4-.8-.4-.7-.1.1,0,.5.2.9s.3.9.3,1.1q0,.3-.6-.2c-1.2-1.2-.6,0,.9,1.7.4.5.3.4-.8-.3-.7-.2-1.6-.9-2-1.3-.6-.6-.9-.8-1.6-1-.5-.1-1-.4-.8-.7.7-.1.7-.2,1.7.2.8.3,1.5-1.8,1.5-2.6.1-1.3,1.1-1.8,2.5-3.8,1.6-2.3,1.5-4.3,3.2-5.1,1.1,0,1.3.4,1.8,2.2.3,1.6,1,2.2,1.6,1.5.2-.3.3-.3.6-.2.6.6-.5,1.5-1.5,1.2-.8-.2-1.1-.5-1.2-1-.1-.4-.4-.5-.3-.1,0,.4-.1.5-.3.3-.1-.1-.2-.5-.2-.9-.1-.8-.6-1.3-1-1-1.9,1.6-1.9,5.1-.9,5.8.4.3.6.5.4.7-.2.5-.3.5-.6,0-.2-.5-.6-.7-1.4-.8-.6-.1-.8,0-1,.4-.6.6-.3,1.9.3,2.4.2.2.8.8,1.1,1.4s.9,1.3,1,1.5l.3.4.4-.6c.4-.6,1.4-1.2,1.7-1,.1.1-.1.4-.4.8-.7.8-.7,1.4-.2,2.6.2.6.3.9.1,1.4-.1.3-.2.8-.2,1q0,.4.2,0c.1-.2.3-.5.4-.9.2-.7,1.1-1.7,1.6-1.8.6,0,.8.2.3.6-.6.5-.9,1.7-.8,2.7.1.8,0,.9-.8,1.8-.8.9-1,1.3-.7,1.5.1,0,.2,0,.4-.4.7-1.2,1.3-1.1,2.2-.4.2.2.3.3.3.4h-1.1c-.7,0-1.1,1.4-1.1,1.4-.7.7-.9.9-1.5,1.2-.4.3-.6,4-.9,4.3-1.2.9,3.4,6.7,1,12.2"/>
      <path class="cls-1" d="M76,21.5c-.3,0-1.6-2.1-2-2.1-.5,0-.7,0-1.4,0,0,0-.9-.6-1.3-.3l-.5.5c0,0,0-.2,0-.4,0-.8.3-1.1,1.3-.8.3,0,.4.2.4,0,0-.2-.3-.4-1.1-.5-.9-.2-1-.2-1.3-.7-.5-.6-1.3-1.2-1.8-1.2-.5,0-.5-.3-.2-.5.3-.2,1.3,0,1.7.3.3.2.5.3.7.3q.3,0,0-.1c-.1-.1-.4-.4-.6-.5-.4-.2-.5-.4-.7-.8-.4-.9-.7-1.3-1.5-1.4-.4,0-.6-.2-.6-.3,0-.2.9-.4,1.4-.2l.5.2v-.4c-.1-.2-.2-.8-.4-1.3s-.2-1.1-.2-1.3c0-.6-.5-1.4-1.1-1.5-.3-.1-.5-.1-.7.2-.3.4-.4.7-.3,1.1.1.4,0,.5-.3.3-.2,0-.2-.2-.2-.6.1-.9-1.7-2.9-3.5-2.9l-1.3-.9c1.3-.3,2.3.9,4.2,1.5,1.7.5,2.5.3,3.2,1,.4.5,1.9,1.3,2.1.8.3-.7.3-.6.7-.9.3,0,.2.5,0,.8-.2.4-.3.7-.3,1.3,0,.4,0,1.2-.3,1.6-.2.9-.2,1-.2.5,0-1.6-.5-2.6-.4-1.4q0,.6-.2.4c-.1-.1-.3-.4-.4-.8s-.3-.6-.4-.6c0,0,0,.2.2.6.7,1.9,1.1,3,.8,3,0,0-.2-.1-.3-.2q-.3-.2.4,1.2c.3.7.4,1.2.4,1.4,0,.3.1.4.5.8l.9,1c.8,1,1,1.2,1.5,1.3.3,0,.5,0,.5,0,0,0-.1-.1-.3-.2-.7-.1-2.6-2.6-2.5-3.2,0-.1.3-.7.5-1.3.3-.6.4-1.1.4-1.2s-.2,0-.2.2c0,.2-.2.6-.3.8-.1.2-.2.6-.3.8,0,.5-.2.3-.4-.6,0-.7-.1-.8,0-.9.1,0,.2-.4.3-1.2,0-1,.1-1.2.5-1.7.2-.3.4-.5.5-.5.3,0,0,1.4-.4,1.8-.3.4-.5,1.3-.4,1.5s.3-.4.5-.9c.7-.6.5-.4,1.2-.7.4-.1.6-.5.6-.5,0,0,.3,1-.4,2.1-.4.7-.6,1.2-.8,1.8q-.2.9.6.2c.2-.2.4-.3.8-.2.5,0,.6.1.9.5s.3.3.1.2c-.8-.7-1.6-.3-1.8.7,0,.5,0,.6.3,1.1.5.7,1.2.6,2.1,1.3"/>
      <path class="cls-1" d="M17.4,68.8s-.4-.9-.9-.7c-.6.3-1.5.4-2.4.5-1.3,0-1.5.1-2.1.7-.5.3-.8.6-.8.6-.1,0-.1-.3-.4-.5,0-1.4,1.5-2.5,2.8-2.2.4,0,.6,0,.6-.1,0-.4-.5-.5-1.6-.5s-1.3,0-1.8-.9c-.8-.9-2-1.4-2.6-1.3s-.8-.2-.3-.7c.5-.4,1.7-.4,2.4-.1.3.2.7.3.9.3q.3,0,0-.3c-.1-.2-.6-.4-.9-.5-.4-.1-.7-.4-1-1.1s0-1.5-1.1-1.5-1-.3-1-.4c0-.4.3-.4,1-.3l.8.2-.3-1.3c0-.4-1.5-2.1-1.5-2.9s1-2.4,1-2.8c0-1-.2-1.8-1-1.8s-.7.1-.9.7c-.3.8-.3,1.2-.1,1.8.3.5.1.7-.3.5-.2-.1-.3-.3-.3-.9,0-1.5-.8-.7-1,1,0,1,0,1.1,1.7,3,.4.3.6.7.6.9,0,.3-.3.3-.5,0-.2-.4-.4,0-.1.4s.3.9.1,1.8c-.3,1.1-1.6,1.4-1.7.4,0-.2.2-.3.5-.3,1,0,.9-1-.2-2.5-1.2-1.7-1.3-3.5-.3-5.1,1.6-2.5,3-3.1,5.1-1.3.7.5.6,1.8.8.8.3-1.2,1-2.5,1.6-2.5s.4,0,0,.6c-.2.3-.6,1-.7,1.5-.2.8-.2,1.1,0,2.1,0,.6,0,1.9,0,2.9,0,1.5,0,1.6,0,.9-.5-2.5-1.1-4.1-.9-2.1q.1.8,0,.6c-.1-.2-.5-.7-.7-1.2-.3-.5-.5-.9-.6-.9,0,0,0,.5.3,1,1.4,2.8,1.9,4.5,1.6,4.5s-.3-.1-.5-.2q-.4-.3.8,1.8c.6,1,.9,1.8.9,2.1,0,.5,0,.7.8,1.1.5.3,1.1.8,1.4,1.2,1.1,1.3,1.4,1.6,2.1,1.6s.7-.1.7-.2,0-.2-.3-.2c-.9,0-3.8-3.3-3.8-4.3s0-1.2.3-2.3.3-2,.2-2.1c-.1,0-.1.2-.2.5,0,.4-.2,1-.3,1.5-.1.5-.2,1.1-.2,1.4,0,.9-.4.6-.7-.7-.3-.9-.3-1.3-.2-1.4s.2-.7,0-2c0-1.7,0-2,.3-2.9.3-.5.5-1,.6-1,.4,0,.2,2.4,0,3.1s-.4,2.3-.2,2.5c.2.1.4-.6.5-1.5q.3-1.6,1.2-2.4c.4-.5,1-1.1,1.2-1.3l.3-.5.3,1.4c.1,1,0,2-.8,4.2-.5,1.3-.7,2.3-.7,3.3q0,1.5.8.1c.2-.4.4-.5,1-.6.6-.1.7,0,1.2.4.3.4.3.5,0,.3-1.1-.7-2.1.1-2.1,1.7s0,1,.6,1.6c.8.5,1.3,1.1,2,1.8"/>
      <path class="cls-1" d="M40.7,93.1c-.2,0-.6-.1-1.4-.5-1-.6-1.9-1.4-3.7-2.9-.6-.4-1.1-.9-1.1-.8-.3.2,0,1.3.7,2.2.3.5.5.9.5.9-.6.5-3.1-2-3.8-3.6-.3-.6-.6-1.1-.6-1,0,0-2.3-.7-3-.8s-.5-.1-.3-.3c.1-.2.1-.7.2-1.1s0-.5,0-.5.9,0,1.3.4c.6.4,1.1.8,1.2.8s.7.4,1.2.9c1,1,1.5,1.2,1.2.5,0-.1-.5-1.2-5.2-4s-6.6-2-6.9-2.2l1-.6,4.1.6c.2,0,2.8,1.5,3,1.4.1-.2.8-.4,1.8-.5,2.1-.3,2.9-.1,4.3.5,2,1,1.9,1.4-.4,1.4-1.6,0-1.7.2-.2.5,1,.2,6.4.4,6,.8-1,.9-.9,1.1.8,1,.7,0,1.9,0,2.8.2.9.2,1.6.2,1.7.2s0,.1,0,.2c-.1.3-1.5.7-3.2,1-.7,0-1.1.2-1.1.3,0,.3,2,.9,3.2,1s1.6,0,2.2-.2c1.6-.3,4-2.3,6.1-1.2,2.1,1.1,1.9-3.6,5.1-4.7,1.6-.5,4.4,0,5.7,1.2,1,.9,2,1.1,3.6.8s2.8-.3,3.3,0c.2.2,0,.2-.7.2s-1.5.1-2,.3c-1.4.5-2.5.2-4.7-.9-2.4-1.2-3.7-1.3-5.5-.4-1.9.9-2.5,5.9-4.5,5.5-.9-.2-3.2,1.7-4.2,1.4l-1.7-.3-1.1.6c-1.8,1.2-3.3,1.3-5.1.5-.7-.2-1.1-.5-1.2-.4,0,0,0,.4.2.7.5.6.5.9.1.9ZM44,90.7c.2,0,.3,0,.5,0,.1,0-.6-.2-1.6-.4-1.1-.2-2.1-.4-2.9-.9-1.4-.7-5.7-3.2-8.1-4.9-1-.6-1.8-1.1-1.9-1.1-.6,0,1.4,1.4,3.2,2.3,1.1.6,2.7,1.6,3.6,2.1,2.8,1.9,3.5,2.2,5.6,2.5.7.3,1.2.4,1.7.4Z"/>
      <path class="cls-1" d="M56.4,83.2c-.4,0-1.2.1-1.7.5l-1,.4.7.4c.4.3.8.5.9.6,0,.2-.2.2-.5,0-.9-.6-2.1-.5-2.9.2-.4.3-1.7.5-1.8.5l-.6-2.1c0-.3,1.5-.9,2.2-1.2.6-.3,1.3-.7,1.6-1.1.7-.8.9-.8.8.3-.2,1,0,1,.9.8.6-.1,1.9.2,2,.6,0,0,0,0,0,0-.1,0-.4.2-.5.3ZM51.9,84c0-.3-.3-1.6-.5-1.3-.1,0,0,.5.1.9.1.3.3.5.4.4h0Z"/>
      <path class="cls-1" d="M43.2,82.9c.4.2,1.2.3,1.8.2h1.1s-.6-.6-.6-.6c-.3-.4-.6-.7-.6-.9,0-.2.2,0,.5.2.6.9,1.8,1.2,2.8.8.5-.1,1.2.9,1.2.9l.6,2.1c-.2.2-1.9-.3-2.7-.3-.7,0-1.5.2-1.9.5-.9.5-1.1.4-.6-.5.5-.8.4-1-.5-1.1-.6,0-1.7-.9-1.7-1.2,0,0,0,0,0,0,.1,0,.4,0,.6-.1ZM47.7,83.7c-.2.2-.2,1.6,0,1.4.1,0,.2-.5.2-.9,0-.3,0-.6-.2-.5h0Z"/>
      <path class="cls-1" d="M84.2,31.1c2.5,1.6,4.3,7.3,4.2,8.3v1.7s.8,1,.8,1c1.5,1.6,1.8,3,1.3,5-.1.7-.3,1.1-.2,1.2,0,0,.4-.1.7-.3.5-.6.8-.7.9-.3s0,.6-.3,1.4c-.4,1-1.1,2.1-2.3,4.2-.3.6-.7,1.2-.6,1.2.2.3,1.3-.2,2.1-1,.5-.4.8-.7.8-.7.6.5-1.5,3.4-3,4.3-.6.4-1,.8-.9.8,0,0-.4,2.3-.3,3s0,.5-.3.3c-.2,0-.7,0-1.1,0s-.4.1-.5,0-.1-.8.2-1.4c.3-.6.6-1.2.6-1.3s.3-.7.7-1.3c.8-1.2.9-1.7.3-1.2-.1,0-1.1.7-3.1,5.8s-3.6,4.6-3.7,5h0l1.6-3.1c.9-1.5,1.3-2.8,1.2-3-.2,0-.5-.8-.8-1.7-.6-2-.6-2.9-.2-4.3.7-2.2,1.1-2.1,1.4.2.2,1.6.5,1.7.5.1,0-1-.7-6.4-.2-6,1.1.8,1.2.7.8-1-.2-.7-.3-1.9-.3-2.8,0-.9,0-1.6,0-1.7s0-.1.2-.1c.3,0,1,1.4,1.5,3,.2.7.4,1.1.5,1.1.3,0,.6-2.2.5-3.4s-.3-1.6-.5-2.2c-.5-1.5-2.6-4.9-2.1-7.1s.3-1.9.3-2.1c0-.6-.7-1.7-.7-1.7ZM89,44.9c0-.2,0-.3-.2-.5-.1,0-.1.6-.1,1.6,0,1.1,0,2.1-.4,3-.5,1.5-2.3,6.2-3.5,8.8-.4,1-.8,2-.8,2.1,0,.6,1.1-1.6,1.7-3.5.4-1.1,1.1-2.9,1.5-3.9,1.4-3.1,1.6-3.8,1.6-5.9.2-.7.2-1.2.1-1.7Z"/>
      <path class="cls-1" d="M16.2,52.6c-2.7-1.3-5.1-6.8-5.2-7.8l-.2-1.7-.9-.9c-1.6-1.4-2.2-2.8-1.9-4.8,0-.7.1-1.2,0-1.2,0,0-.4.2-.6.3-.5.6-.7.8-.8.4s0-.6,0-1.5c.3-1.1.8-2.2,1.8-4.4.3-.7.5-1.2.4-1.2-.3-.2-1.2.4-2,1.3-.4.4-.7.8-.7.8-.6-.5,1.1-3.5,2.4-4.6.5-.4.9-.9.8-.9,0,0,0-2.4,0-3.1s0-.5.2-.4c.2,0,.7,0,1.1-.1s.4-.2.5,0,.2.8,0,1.4c-.3.7-.4,1.2-.4,1.3s-.2.8-.5,1.3c-.6,1.3-.7,1.8-.1,1.3.1,0,1.1-.8,2.4-6.1s3-5,3.1-5.4h0l-1.2,3.3c-.7,1.6-1,3-.8,3.1.2,0,.6.7,1,1.6.9,2,.9,2.8.7,4.2-.4,2.2-.8,2.2-1.4,0-.4-1.6-.7-1.6-.5,0,.1,1,1.4,6.2.9,5.9-1.2-.7-1.2-.5-.7,1.1.3.7.5,1.8.6,2.7.1.9.3,1.6.3,1.7s0,.1-.2.1c-.3,0-1.1-1.3-1.9-2.8-.3-.7-.5-1-.6-1-.3,0-.3,2.2,0,3.4s.4,1.5.8,2.1c.7,1.4,3.1,4.6,2.9,6.8s0,1.9,0,2.1c0,.6.9,1.6.9,1.6ZM9.8,39.5c0,.2,0,.3.2.5.1,0,0-.6,0-1.6-.1-1.1-.2-2.1,0-3,.3-1.5,1.5-6.4,2.4-9.2.3-1.1.6-2.1.5-2.2-.1-.6-.9,1.7-1.3,3.7-.2,1.2-.8,3-1,4-1,3.2-1.2,4-.9,6-.1.7,0,1.2,0,1.7Z"/>
      <path class="cls-1" d="M62.4,6.8c-4.9,3.5-10.7-.7-11.4.7-.2.4-3.8,1.4-4,1.8-.2.7-.3.9-.8,1.7,0,0-1.3.7-1.1,1.4l.2,1.1c0,0-.2,0-.5-.2-.9-.7-1.1-1.3,0-2.2.2-.3.4-.4.3-.5-.3-.2-.6,0-1.3,1-.7,1-.8,1.1-1.6,1.2-1,.1-2.1.7-2.5,1.4-.3.6-.6.4-.7-.2,0-.5.8-1.6,1.4-2,.4-.2.6-.4.8-.6q.2-.3-.1-.2c-.2,0-.7.2-.9.4-.4.3-.8.3-1.4.2-1.3-.2-1.9,0-2.5.8-.3.4-.6.6-.7.6-.3-.2.1-1.4.6-1.9l.5-.5-.5-.2c-.2,0-1-.5-1.7-.7s-1.4-.6-1.6-.8c-.6-.5-2-.5-2.4.2-.3.3-.4.5-.2,1.1.3.8.6,1.1,1.1,1.2.6.2.6.3.1.6-.2.2-.4,0-.8-.2-.9-.8-4.3,0-5.5,2.1-.2.5.4.8,1.2.8.4,0,.8,0,.9,0,.2.2.2.3-.2.4-.4,0-.2.3.2.3.5,0,.9.2,1.2,1,.5.9-.1,2.2-.8,1.7-.2-.3-.2-.4,0-.6.6-.7-.2-1.3-1.8-1.2-1.9,0-2.3-.2-2.5-1.3.4-1.8,2.4-2.2,4.3-4.2,1.6-1.8,1.9-2.9,3.2-3.3.8-.2,2.7-1.3,2.2-2-.6-.9-.5-.9-.6-1.6.2-.3.7.2.9.6.3.6.6.9,1.3,1.3.5.3,1.4,1,1.7,1.7.9.9,1,1,.5.7-1.9-1.1-3.3-1.4-1.9-.5q.6.5.3.5c-.2,0-.7,0-1.1,0s-.8-.1-.9,0c0,0,.2.2.8.2,2.6.6,4.1,1,3.9,1.3,0,0-.3.2-.5.2q-.5.2,1.6.5c.9,0,1.6.4,1.9.5.4.2.6.2,1.2,0l1.7-.4c1.6-.2,2-.3,2.4-.8.2-.4.4-.6.3-.7,0,0-.2,0-.4.2-.6.7-4.5,1.3-5.2.7-.1,0-.6-.9-1.2-1.7-.5-.8-1-1.4-1.1-1.4s0,.2,0,.4c.2.2.6.7.7,1.1.2.4.6.8.7,1,.5.5.2.6-.9,0-.8-.4-1-.5-1-.7,0-.1-.3-.5-1.2-1.3-1.1-.9-1.3-1.1-1.6-1.9-.2-.5-.3-1-.2-1.1.1-.3,1.6,1.2,1.8,1.8.3.8,1.2,1.7,1.5,1.6s-.2-.7-.7-1.3c-.2-1.4-.1-1,0-2.1,0-.5-.3-1.2-.3-1.2,0,0,1.3.3,2.1,2.2.5,1,1,1.7,1.7,2.4q.9,1,.6-.5c0-.4,0-.8.3-1.2.4-.6.5-.6,1.1-.7s.6-.1.3,0c-1.2.5-1.3,1.8-.3,2.7.5.4.7.5,1.4.4,1.1-.1,1.6-.3,1.9-1.1.3-.9,4.2-2.3,5.1-1.9-.3-.8,4.4,4.3,9.4.4"/>
      <path class="cls-1" d="M57.1,9.1v.2c0,.3,0,.2-.1,0-.2-.4-1.4-.8-1.6-.5,0,.1.3.5.9.7,1,.4,1.1.5.8,1-.3.8-1.4,2.4-1.7,2.7-.1.2-.5.2-.9,0-.7-.4-.8-.5-.5-2s.2-1.3.2-1.5c0-.2.4,0,1.2.3.7.4,1.2.5,1.2.4.2-.3-.7-.8-1.5-1.1l-1-.2.4-.2c.2-.2.6-.4.8-.5.3-.4,1.5.2,1.7.8ZM55.7,10.5c-.2-.5-1-.8-1.3-.7s-.1.3.6.7c.7.3.8.3.6,0ZM55.6,11.3c-.2-.4-.7-.7-1.1-.5s.2.7.8.9c.4.2.4,0,.3-.3ZM54.9,11.8c0-.2-.3-.4-.4-.4s-.1.2,0,.4.2.2.3.3c.2.1.2,0,.1-.3Z"/>
      <path class="cls-1" d="M66.8,10.6c0,.1.2.3.3.5l.2.2-.6-.2c-.6-.2-1.2-.2-1.2,0,0,0,.3.2.8.2.5.1.8.2.8.3,0,.1-.2.4-.3.8-.2.8-.3.8-.8.8-.3,0-.4-.2-.5-.3,0-.3-.2-1.4-.2-1.9,0-.3,0-.3.7-.2.4.1.7,0,.7,0,0-.2-.9-.4-1.1-.3s-.1,0-.1,0h0c.3-.2,1.2-.1,1.2.2ZM66.4,11.8c.5,0,.7,0,.6-.1s-.7-.3-.9-.1-.1.1.3.2ZM66,12.2c.4.1.8,0,.7-.1s-.6-.2-.8-.1-.2.2,0,.3ZM66.1,12.6c0,0,.2,0,.3,0s.1-.1,0-.2-.2,0-.3,0c-.1,0-.1.2,0,.2Z"/>
      <path class="cls-1" d="M28.8,9.6c-.4,0-.2.7-1.4,1l-1.5.8c-.7.2-.8.3-1,.7,0,.3-.4.9-1.1,1.6q-1.5,1.5-1,1.4c.2,0,.4,0,.5-.1.4,0-.5,1.4-2.2,3.4-.4.4-.7.6-.7.6-.6.4-1.2,1.2-1.8,1.2s-.8-.3-.8-.3c.8.3,1.8-.6,2-1.3,0-.3.4-1.1.8-1.6s.8-1.4.9-1.6l.2-.4h-.7c-.7-.2-1.7-.8-1.7-1.2,0-.1.4,0,.9,0,1,.3,1.6,0,2.4-1,.4-.4.7-.7,1.2-.7.3,0,.8-.2,1-.3q.4-.2,0-.2c-.2,0-.6,0-1,0-.7.1-2-.2-2.3-.6-.4-.5-.2-.8.4-.5.7.3,1.9,0,2.8-.5.7-.4.8-.4,2,0,1.2.3,1.6.3,1.7,0,0-.1-.2-.1-.5-.2-1.4,0-1.6-.7-1.3-1.8,0-.3.1-.4.2-.4l.5,1c.3.6,2.1.6,2.1.6l-.4.6Z"/>
    </g>
  </g>
</svg>
