<?xml version="1.0" encoding="utf-8"?>
<!-- Generator: Adobe Illustrator 24.0.1, SVG Export Plug-In . SVG Version: 6.00 Build 0)  -->
<svg version="1.1" id="Layer_1" xmlns="http://www.w3.org/2000/svg" xmlns:xlink="http://www.w3.org/1999/xlink" x="0px" y="0px"
	 viewBox="0 0 1859.5 608.2" style="enable-background:new 0 0 1859.5 608.2;" xml:space="preserve">
<style type="text/css">
	.st0{fill:#E5ECF5;stroke:#354D87;stroke-width:60;stroke-miterlimit:10;}
	.st1{fill:#354D87;}
</style>
<path class="st0" d="M1798.7,82.9v460.5c0,6.6-5.4,12-12,12H69.8c-6.6,0-12-5.4-12-12V82.9c0-6.6,5.4-12,12-12h1716.9
	C1793.3,70.9,1798.7,76.3,1798.7,82.9z"/>
<path class="st1" d="M1003.3,378.2v64c0,17.7,14.3,32,32,32h64c17.7,0,32-14.3,32-32v-64c0-17.7-14.3-32-32-32h-64
	C1017.6,346.2,1003.3,360.5,1003.3,378.2z"/>
<path class="st1" d="M1198.6,378.2v64c0,17.7,14.3,32,32,32h64c17.7,0,32-14.3,32-32v-64c0-17.7-14.3-32-32-32h-64
	C1212.9,346.2,1198.6,360.5,1198.6,378.2z"/>
<path class="st1" d="M1393.9,378.2v64c0,17.7,14.3,32,32,32h64c17.7,0,32-14.3,32-32v-64c0-17.7-14.3-32-32-32h-64
	C1408.2,346.2,1393.9,360.5,1393.9,378.2z"/>
<path class="st1" d="M1003.3,186.2v64c0,17.7,14.3,32,32,32h64c17.7,0,32-14.3,32-32v-64c0-17.7-14.3-32-32-32h-64
	C1017.6,154.2,1003.3,168.5,1003.3,186.2z"/>
<path class="st1" d="M1198.6,186.2v64c0,17.7,14.3,32,32,32h64c17.7,0,32-14.3,32-32v-64c0-17.7-14.3-32-32-32h-64
	C1212.9,154.2,1198.6,168.5,1198.6,186.2z"/>
<path class="st1" d="M1393.9,186.2v64c0,17.7,14.3,32,32,32h64c17.7,0,32-14.3,32-32v-64c0-17.7-14.3-32-32-32h-64
	C1408.2,154.2,1393.9,168.5,1393.9,186.2z"/>
<path class="st1" d="M357.4,378.2v64c0,17.7,14.3,32,32,32h64c17.7,0,32-14.3,32-32v-64c0-17.7-14.3-32-32-32h-64
	C371.7,346.2,357.4,360.5,357.4,378.2z"/>
<path class="st1" d="M552.7,378.2v64c0,17.7,14.3,32,32,32h64c17.7,0,32-14.3,32-32v-64c0-17.7-14.3-32-32-32h-64
	C567,346.2,552.7,360.5,552.7,378.2z"/>
<path class="st1" d="M748,378.2v64c0,17.7,14.3,32,32,32h64c17.7,0,32-14.3,32-32v-64c0-17.7-14.3-32-32-32h-64
	C762.3,346.2,748,360.5,748,378.2z"/>
<path class="st1" d="M357.4,186.2v64c0,17.7,14.3,32,32,32h64c17.7,0,32-14.3,32-32v-64c0-17.7-14.3-32-32-32h-64
	C371.7,154.2,357.4,168.5,357.4,186.2z"/>
<path class="st1" d="M552.7,186.2v64c0,17.7,14.3,32,32,32h64c17.7,0,32-14.3,32-32v-64c0-17.7-14.3-32-32-32h-64
	C567,154.2,552.7,168.5,552.7,186.2z"/>
<path class="st1" d="M748,186.2v64c0,17.7,14.3,32,32,32h64c17.7,0,32-14.3,32-32v-64c0-17.7-14.3-32-32-32h-64
	C762.3,154.2,748,168.5,748,186.2z"/>
</svg>
