<?xml version="1.0" encoding="utf-8"?>
<!-- Generator: Adobe Illustrator 21.1.0, SVG Export Plug-In . SVG Version: 6.00 Build 0)  -->
<svg version="1.1" id="Layer_1" xmlns="http://www.w3.org/2000/svg" xmlns:xlink="http://www.w3.org/1999/xlink" x="0px" y="0px"
	 viewBox="0 0 66 74.3" style="enable-background:new 0 0 66 74.3;" xml:space="preserve">
<style type="text/css">
	.st0{fill:#7F1416;}
</style>
<path id="path9013_8_" class="st0" d="M1.2,0.8v0.6v71.2v0.6h0.5h63h0.5v-0.6V1.4V0.8h-0.5h-63C1.7,0.8,1.2,0.8,1.2,0.8z M63.8,2
	h0.4v69.5c-0.1,0.3-0.3,0.4-1.5,0.5c-0.5,0-4.5,0.1-10.2,0.1H2.3c0-0.1-0.1-0.3-0.1-0.5V36.1c0-1.9,0.1-3.8,0.1-6.2
	c0.1-6.5,0.2-15.4,0.2-19.8l0.1-8L5.8,2c1.7,0,15.6,0,30.8,0H63.8L63.8,2z M33.7,2.9c-13.1,0-26.2,0-27.9,0H3.6L3.5,4.1
	c-0.3,2.8-0.6,59.5-0.4,64L3.3,71l4.6,0.2c7.5,0.3,46.3,0.2,53.2-0.1l2.3-0.1v-1.1c0-0.6,0-9,0.1-18.6c0-10.5,0-14.6,0.1-16.3v-1.5
	v-1c-0.1-1-0.1-4.1-0.1-14.5V3h-2.4C59.7,2.9,46.8,2.9,33.7,2.9z M43,3.9c0.2,0,0.5,0.1,1.2,0.4C45.1,4.8,46,5.6,47.7,7
	c0.5,0.4,1,0.8,1,0.7C49,7.5,48.6,6.4,48,5.5c-0.3-0.5-0.5-0.9-0.5-0.9C48,4.1,50.3,6.4,51.1,8c0.3,0.6,0.6,1.1,0.6,1
	c0,0,0.2-0.6,0.3-1.3c0.1-0.8,0.3-1.3,0.6-1.6c0.7-0.6,0.8-0.4,0.3,0.5c-0.3,0.6-0.4,1-0.3,1.4c0.1,0.7,1.2,1.6,1.8,1.6
	c0.4,0,0.4,0.1,0.3,0.3s-0.1,0.7-0.1,1.1c0,0.4-0.1,0.8-0.2,0.8s-0.6-0.3-1.1-0.7s-1-0.7-1.1-0.7s-0.6-0.4-1.1-0.8
	c-1-0.9-1.4-1.1-1.1-0.4c0.1,0.2,0.8,0.8,1.6,1.3c2.1,1.3,3.5,2.9,2.6,2.9c-0.2,0-0.3,0.2-0.4,0.3c-0.1,0.2-0.7,0.4-1.6,0.6
	c-1.9,0.4-2.6,0.3-3.8-0.2c-1.9-0.9-1.8-1.3,0.3-1.4c1.4,0,1.5-0.3,0.2-0.5c-0.9-0.1-5.7,0-5.3-0.4c0.8-1,0.7-1.1-0.8-0.9
	c-0.6,0.1-1.7,0.1-2.5,0s-1.4-0.1-1.5-0.1s-0.1-0.1-0.1-0.2c0.1-0.3,1.3-0.8,2.8-1.2C42,9.3,42.3,9.1,42.3,9c0-0.3-1.9-0.8-2.9-0.8
	c-0.5,0-1.4,0.1-2,0.3c-1.4,0.4-2.7,0.3-4.5-0.7c-2-1-2.2-1-5.1,0.3c-1.4,0.6-3.9,0.2-5.2-0.9c-0.9-0.8-1.9-1-3.2-0.6
	s-2.5,0.5-2.9,0.2c-0.2-0.2,0-0.2,0.6-0.2c0.5,0,1.3-0.2,1.8-0.4c1.2-0.6,2.2-0.4,4.2,0.6c2.2,1.1,3.4,1.1,4.9,0.1
	c1.6-1,2.5-1.2,4.3-0.9c0.8,0.1,2.1,0.3,3,0.5l1.5,0.2l1-0.7c1.5-1.3,2.8-1.5,4.5-0.8c0.6,0.2,1,0.4,1.1,0.3c0,0-0.1-0.4-0.2-0.7
	C42.8,4.2,42.7,3.9,43,3.9z M61.7,5C61.7,5,61.7,5.1,61.7,5c0.3,0.2,0.2,1.6-0.1,2.1c-0.4,0.8-0.4,1,0.4,1.1c0.9,0.2,0.9,0.4,0,0.8
	c-0.4,0.2-1,0.7-1.4,1.2c-0.4,0.6-0.9,0.9-1.2,0.9c-0.4,0-1.8-1.1-1.8-1.4c0-0.1,0.3-0.3,0.6-0.6c0.8-0.5,1.2-1.7,1-2.7
	c-0.1-0.4-0.1-0.6,0.1-0.5c0.1,0.1,0.2,0.5,0.3,1l0.1,0.8l0.6-0.8c0.4-0.4,0.8-1.1,0.9-1.5C61.4,5.3,61.6,5.1,61.7,5z M40.2,6.5
	c-0.2,0-0.3,0-0.4,0.1c-0.1,0.1,0.5,0.2,1.4,0.3c1,0.1,1.9,0.3,2.6,0.7C45,8.2,49,10.5,51.3,12c0.9,0.5,1.7,1,1.8,1
	c0.5,0-1.3-1.3-2.9-2.1c-1-0.5-2.5-1.4-3.3-1.9c-2.6-1.7-3.2-2-5.1-2.2C41.1,6.5,40.6,6.5,40.2,6.5z M59.3,9.4
	c-0.1,0.1,0.1,0.3,0.3,0.5c0.3,0.3,0.6,0.5,0.7,0.4C60.5,10.2,59.6,9.4,59.3,9.4L59.3,9.4z M56.1,9.7c0.5,0,1.2,0.4,1.8,1.1
	c0.3,0.3,0.8,0.7,1.2,0.8c1.4,0.6,1.7,1.3,1,2.2c-0.3,0.4-0.6,0.5-1.2,0.5c-1.4,0-3.1-1.3-3.5-2.6C55.2,10.8,55.5,9.9,56.1,9.7
	C55.9,9.7,56,9.7,56.1,9.7z M55.2,13.9l1.3,2.7c1.5,3.1,1.8,3.9,2.2,5.5c0.3,1.3,0.6,1.6,0.4,0.5c-0.3-1.5-0.9-3.3-2.1-5.8
	c-0.6-1.4-1.2-2.7-1.1-2.9c0.1-0.3,1.7,1.9,2.2,3.1c0.2,0.5,0.6,1.6,1,2.6c0.3,1,0.7,1.6,0.7,1.5c0.1-0.4-0.6-2.4-1.5-4.3
	c-0.5-1-0.9-1.8-0.9-1.9c0-0.2,1.8-0.2,2.1,0c0.3,0.2,1.5,2.9,1.7,3.8c0.1,0.4,0,0.6-0.3,0.7c-0.5,0.2-0.5,0.5-0.1,0.6
	c0.5,0.2,1,1.3,0.7,1.6c-0.3,0.4-0.3,0.8,0.3,1.4c0.6,0.6,0.6,0.8,0.1,0.8c-0.4,0-0.4,0,0,0.9c0.5,1.1,0.5,2.9,0.1,3.8
	c-0.2,0.4-0.2,0.7-0.1,1.1c0.4,1.2,0.6,2.3,0.7,4.5c0,1.3,0,2.4,0,2.4s-0.2-0.2-0.3-0.5s-0.4-1-0.7-1.6c-0.8-1.7-1.1-3.1-1.2-4.6
	c0-1.7-0.1-1.6-0.3-1.6c-0.1,0-0.3,0.3-0.4,0.8l-0.2,0.8l-0.2-0.6c-0.1-0.3-0.1-1.5-0.1-2.5c0.1-1.8,0.1-1.9-0.3-1.9
	c-0.4,0.1-1-0.4-1-0.8c0-0.2-0.1-0.7-0.2-1.1c-0.2-0.7-0.2-0.8-0.6-0.4c-0.3,0.3-0.4,0.3-0.7-0.3c-0.2-0.5-0.4-1.3-0.4-2.5
	c0-1-0.1-1.9-0.2-1.9c-0.1-0.1-0.3,0.1-0.6,0.2c-0.4,0.3-0.6,0.3-1,0.1s-0.5-0.3-0.4-0.7c0.1-0.6,0-0.6-0.6-0.2
	c-0.5,0.4-2,0.4-2.1,0c-0.1-0.2-0.1-0.4,0-0.5c0.2-0.4,1.5-0.8,2.1-0.7l0.6,0.1l-0.5-0.3c-0.3-0.2-0.5-0.4-0.5-0.5
	c0-0.3,1-0.9,1.6-1L55.2,13.9z M59.8,21.7c-0.1,0,0,0.6,0.2,2.3c0.1,0.4,0.2,0.7,0.3,0.7C60.5,24.7,60.1,22,59.8,21.7
	C59.9,21.7,59.9,21.7,59.8,21.7z M62.6,36.8L62.6,36.8c0.1,0.1,0.1,0.3,0.1,0.4c-0.1,0.2-0.1,0.1-0.1-0.1
	C62.5,36.9,62.5,36.8,62.6,36.8z M62.6,38L62.6,38c0.1,0.3,0.1,0.7,0,0.9c0,0.3-0.1,0.1-0.1-0.4C62.5,38.2,62.6,37.9,62.6,38z
	 M62.2,41.7c0,0,0.1,0.1,0.1,0.3c0,0.5-0.1,0.6-0.3,0.3c-0.1-0.1,0-0.3,0.1-0.5C62.2,41.8,62.2,41.7,62.2,41.7z M5.3,42.4
	c0,0,0.1,0,0.1,0.2c0.1,0.2,0.6,0.8,1,1.3c1.4,1.5,1.9,2.3,2.1,3.5c0.2,0.9,0.2,1.4,0.1,1.9c-0.2,0.9-0.2,2,0,2
	c0.1,0,0.2-0.1,0.3-0.3c0.1-0.2,0.2-0.3,0.3-0.3c0.3,0,0.4,1,0.1,2.3C9,54.9,9,54.8,9.8,54.3c0.4-0.2,0.7-0.4,0.8-0.4s0,0.3,0,0.7
	c-0.1,0.8-0.8,2.1-1.3,2.5c-0.7,0.6-0.2,1.1,0.6,0.5c0.4-0.3,1.1-0.4,1.1-0.2c0,0.1-0.2,0.5-0.5,1c-0.4,0.7-0.5,1-0.3,1.2
	c0.2,0.3,0.1,1.3-0.5,2.7c-0.2,0.6-0.3,0.7-0.5,0.5c-0.2-0.4-0.4-0.2-0.4,0.7c0,0.5,0,0.8,0.2,0.9c0,0.1,0.1-0.1,0.1-0.4
	c0-0.3,0.1-0.6,0.3-0.8c1-1,1.4-2.8,1.7-3.5h1c-0.3,1.1-1.1,3-1.3,3.3s-0.4,0.6-0.4,0.6c0,0.1,0.3,0.2,0.7,0.2
	c0.4,0.1,0.7,0.2,0.7,0.3s-0.5,0.7-1,1.3c-1,1.1-1.8,1.6-2.1,1.3c-0.1-0.1-0.8,0.5-0.8,0.7c0,0.3,0.7,0.2,2.4-0.6
	c1-0.4,2-0.8,2.3-0.8s0.7-0.2,0.9-0.4c0.4-0.5,1.5-1.8,1.3-0.8c-0.2,0.7-0.3,1.3-0.2,1.3c0,0,0.7,0,1.4-0.1c0.7-0.1,1.4-0.2,1.4-0.1
	c0.1,0.1-0.2,0.4-0.6,0.7c-0.5,0.4-0.6,0.6-0.4,0.7c0.3,0.1,2.9-0.4,3.5-0.7c0.5-0.3,0.6-0.1,0.2,0.3c-0.2,0.2-0.4,0.5-0.4,0.6
	c0,0.3,2.3,0,3.3-0.4c0.5-0.2,0.9-0.3,0.9-0.2c0.1,0.1,0,0.4-0.2,0.8s-0.3,0.8-0.3,0.9c0,0.3,0.4,0.2,0.9-0.3
	c0.4-0.4,0.6-0.5,3.1-0.5c2.3,0,2.7,0.1,2.9,0.4c0.1,0.2,0.4,0.4,0.6,0.4s0.5,0.1,0.8,0.2c0.2,0.1,0.9,0.4,1.5,0.6s1.1,0.4,1.2,0.5
	c0.2,0.6-3.3,0.8-5.1,0.4C28.6,70.1,27.1,70,26,70c-2,0-2-0.1-2.6-0.7c-1-1-1.3-0.8-0.8,0.7c0.1,0.2,0,0.3-0.3,0.3
	c-0.7,0-2.2-0.6-3-1.1c-0.8-0.6-1.9-0.9-1.9-0.6c0,0.1,0.1,0.5,0.3,0.9s0.2,0.8,0.1,0.8C17.4,70.7,15,70,14,69.4
	c-0.9-0.5-1.7-0.6-1.8-0.3c-0.1,0.1,0,0.4,0.2,0.7c0.1,0.3,0.2,0.6,0.2,0.7c-0.2,0.2-2.2,0.1-2.9-0.2c-0.6-0.3-0.8-0.3-1.2,0
	c-0.3,0.2-0.7,0.3-1.3,0.2c-0.5-0.1-1.2-0.1-1.6,0c-0.5,0.1-0.9,0.1-0.9,0.1S4.6,70,4.6,69.5c0-0.9,0-1,0.6-1.2s0.7-0.5,0.3-1.7
	c-0.1-0.3,0-0.6,0.4-1.1c0.3-0.3,0.5-0.7,0.5-0.9c0-0.1-0.3-0.6-0.7-1.1C5.3,63,5,62.4,4.8,62.2c-0.3-0.5-0.3-5.8,0-5.8
	c0.1,0,0.4,0.3,0.6,0.7c0.5,0.7,0.7,1,1,1c0.2,0,0.2-1.3-0.1-2.5c-0.3-1.2-0.2-2,0.2-3.8c0.2-0.9,0.3-1.2,0.1-1.4
	c-0.3-0.3-0.3-2,0.1-2.9c0.5-1.2,0.4-2.1-0.4-2.9c-0.4-0.5-0.7-1-0.8-1.6C5.3,42.6,5.2,42.4,5.3,42.4z M62.2,43.3
	c0,0,0.1,0.1,0.1,0.2c0.1,0.3,0.1,0.9,0,1.4s-0.2,1-0.3,1.1s-0.2,0-0.1-0.2s0.2-0.9,0.2-1.5C62.1,43.5,62.1,43.3,62.2,43.3z
	 M60,45.2c0.2,0,0.4,0.4,0.5,1.4c0.1,0.6,0.2,1.9,0.3,3c0.1,1,0.2,2.4,0.1,3.1c-0.2,1.8-0.8,4.2-1.2,4.4c-0.2,0.1-0.3,0.3-0.1,0.4
	c0.3,0.4,0.3,1,0,1.6c-0.1,0.3-0.2,0.7-0.1,0.9c0.1,0.4,0.2,0.3,0.4,0c0.3-0.4,0.3-0.4,0.2,0.3c-0.3,1.4-0.9,2.5-1.7,2.7
	c-0.4,0.1-1.1,0.5-1.7,0.8c-0.9,0.5-1,0.6-0.9,1.2c0,0.4,0,0.9-0.1,1.2c-0.2,0.5-0.2,0.4-1.2-0.8l-1-1.3l-0.9,0.1
	c-0.5,0.1-1.1,0.2-1.5,0.2c-0.5,0.1-0.5,0,0.8-1.3c1.3-1.3,1.7-1.9,1.2-1.9c-0.1,0-0.3,0.2-0.5,0.4c-0.2,0.2-0.8,0.7-1.2,1l-0.8,0.6
	l-0.1-0.5c-0.1-0.7,0.2-1.4,0.6-1.3c0.2,0.1,0.4,0,0.4-0.2c0.1-0.2,0.2-0.2,0.4-0.2c0.2,0.1,0.3-0.1,0.4-0.5
	c0.1-0.7,0.4-0.8,0.5-0.3c0,0.2,0.1,0,0.1-0.3c0-1,0.2-1.6,0.5-1.6c0.1,0,0.1,0.1,0,0.3c-0.2,0.5-0.2,1.3,0.1,1.6
	c0.2,0.2,0.2,0.1,0.1-0.2c-0.1-0.5,0.2-2.1,0.5-2.4c0.1-0.1,0.2,0.1,0.1,0.7c-0.1,0.9-0.1,0.9,0.2,0.5c0.2-0.2,0.3-0.5,0.3-0.7
	s0.1-0.4,0.2-0.5s0.2,0,0.2,0.2s0.1,0.3,0.2,0.3s0.2-0.2,0.2-0.5s0.1-0.5,0.2-0.5s0.1,0.3,0.1,0.7s0,0.7,0,0.7
	c0.2,0,0.7-1.2,0.6-1.4c-0.2-0.3,0.8-0.5,1.5-0.3c0.4,0.1,0.6,0,0.5-0.1c-0.1-0.4-1.8-0.4-2.6-0.1c-1,0.4-1.1,0.4-0.7-0.2
	c0.4-0.5,0.5-0.5,1.9-0.5c0.8,0,1.5-0.1,1.5-0.2c0-0.3-0.8-0.4-1.8-0.3c-0.8,0.1-1,0.1-1-0.2c0-0.4,0.5-0.7,1-0.6
	c0.2,0.1,0.4,0,0.5-0.1s0-0.2-0.3-0.2c-0.5,0-0.5,0,0.1-1c0.7-1.1,1.3-2.9,2-5.3c0-0.1,0.2-0.2,0.5-0.2c0.2,0,0.4-0.1,0.5-0.2
	s-0.1-0.2-0.3-0.2c-0.3,0-0.4-0.1-0.4-0.4c0-0.2,0.1-0.4,0.3-0.4c0.2,0,0.3-0.1,0.3-0.2s-0.1-0.2-0.2-0.2c-0.3,0-0.3-0.8,0-0.9
	C59.8,45.2,59.9,45.2,60,45.2z M60,48.6c-0.2,0-0.4,0.1-0.4,0.2S59.8,49,60,49c0.2,0,0.4-0.1,0.4-0.2S60.2,48.6,60,48.6z M59.9,50
	c-0.3,0-0.5,0.1-0.5,0.2s0.2,0.2,0.5,0.2s0.5-0.1,0.5-0.2S60.1,50,59.9,50z M59.6,51.4c-0.2,0-0.4,0.1-0.4,0.2s0.2,0.2,0.4,0.2
	c0.2,0,0.4-0.1,0.4-0.2S59.8,51.4,59.6,51.4z M59,52.9c-0.2,0-0.3,0.1-0.3,0.2c0.1,0.1,0.2,0.2,0.4,0.2c0.2,0,0.3-0.1,0.3-0.2
	S59.2,52.9,59,52.9z M58.4,54.3c-0.3,0-0.6,0.1-0.6,0.2s0.3,0.2,0.6,0.2c0.3,0,0.6-0.1,0.6-0.2S58.7,54.3,58.4,54.3z M57.4,57.1
	c0,0-0.1,0.1-0.3,0.5c-0.2,0.4-0.4,1-0.4,1.4c0.1,0.9,0.3,0.7,0.4-0.3c0.1-0.5,0.2-1.1,0.2-1.4C57.4,57.2,57.4,57.2,57.4,57.1z
	 M58.1,57.8c-0.2,0-0.3,0.1-0.5,0.3c-0.2,0.3-0.2,1.5,0,1.9c0.1,0.1,0.1,0.1,0.2-0.1c0-0.2,0.2-0.6,0.4-0.9c0.2-0.4,0.3-0.8,0.3-0.9
	C58.4,57.8,58.3,57.8,58.1,57.8z M59.1,58c0,0-0.1,0.1-0.3,0.3c-0.3,0.2-0.4,0.6-0.4,1.1c0,0.4,0.1,0.7,0.1,0.7
	c0.1,0,0.4-0.7,0.6-1.5C59.1,58.1,59.2,58,59.1,58z M55.2,59.7l-1,1.2c-0.9,1.1-1.2,1.7-0.6,1.7c0.1,0,0.4-0.3,0.7-0.6
	c0.3-0.3,0.7-0.6,0.8-0.6c0.2,0,0.2,0.1,0,0.2c-0.4,0.4-0.3,0.7,0.3,0.9c0.3,0.1,0.6,0.2,0.6,0.2c0.2,0.1,0.8-0.4,0.8-0.7
	c0-0.2,0.1-0.3,0.3-0.2c0.2,0.1,0.4-0.1,0.7-0.4c0.4-0.5,0.4-0.6,0-0.9c-0.2-0.2-0.9-0.5-1.5-0.6L55.2,59.7z M50,62.3
	c0.1,0,0.2,0.2,0.1,0.6c-0.1,0.3-0.2,0.7-0.3,0.8s-0.1,0-0.1-0.3c0.1-0.3,0.1-0.6,0.1-0.8S49.9,62.3,50,62.3z M55.2,62.7
	C55.1,62.7,55.1,62.7,55.2,62.7c-0.2,0.1-0.3,0.2-0.3,0.3s0.1,0.2,0.2,0.2s0.2-0.1,0.2-0.3C55.3,62.8,55.2,62.8,55.2,62.7z M49,62.9
	C49,62.9,49.1,62.9,49,62.9c0.2,0,0.2,0.2,0.1,0.4c-0.1,0.3-0.7,0.6-0.7,0.4c0-0.1,0.1-0.3,0.3-0.6C48.8,63,48.9,62.9,49,62.9z
	 M56.7,63c-0.1,0-0.3,0.1-0.5,0.2c-0.3,0.2-0.6,0.4-0.6,0.4c0,0.2,0.4,0.1,0.8-0.1C56.7,63.4,56.8,63.2,56.7,63
	C56.8,63,56.8,63,56.7,63z M57.9,63.6C58,63.6,58,63.6,57.9,63.6c0.1,0.2,0,0.3-0.2,0.4c-0.2,0.1-0.3,0.1-0.3,0c0,0,0.1-0.2,0.3-0.3
	C57.8,63.6,57.9,63.6,57.9,63.6z M47.8,63.7c0.1,0-0.1,0.2-0.3,0.4c-0.3,0.4-1.3,0.6-1.3,0.3C46.3,64.3,47.6,63.7,47.8,63.7z
	 M58.9,63.8c0.1,0,0.1,0,0.2,0C59.3,64,59.2,64,59,64c-0.4,0-1.2,1-1,1.3c0.1,0.1,0.5-0.1,0.9-0.6c0.7-0.8,0.8-0.8,1.1-0.4
	c0.5,0.6,1.5,2.2,1.7,2.6c0.1,0.2,0,0.5-0.3,0.8c-0.5,0.5-0.7,0.5-1.8-0.3c-0.5-0.4-1-0.7-1.2-0.8c-0.2-0.1,0.1-0.4,0.6-1
	c0.5-0.5,0.8-0.9,0.7-1c-0.2-0.3-0.9,0.3-1.4,1l-0.5,0.8V66c-0.1-0.3-0.1-0.7-0.2-0.9C57.4,64.7,58.4,63.8,58.9,63.8z M47.7,64.8
	C47.7,64.8,47.8,64.8,47.7,64.8c0.8,0.2,1.3,2.2,0.7,2.4c-0.2,0.1-0.3,0.2-0.3,0.4c0,0.1-0.3,0.5-0.8,0.8c-0.8,0.6-1.8,0.7-3.1,0.3
	c-0.4-0.1-1.2-0.2-1.8-0.2h-1.1l0.9-0.3c0.5-0.2,1.3-0.3,1.7-0.3c1.1,0,2.5-0.4,2.1-0.6c-0.1-0.1-0.5-0.1-0.8,0
	c-0.9,0.2-0.5-0.1,0.7-0.6c0.6-0.2,0.8-0.3,0.5-0.3l-0.6,0.1l0.5-0.4l0.5-0.4l-0.5,0.1c-0.3,0.1-0.8,0.1-1.2,0.2
	c-0.6,0.1-0.6,0.1-0.2-0.1c0.3-0.1,0.9-0.4,1.5-0.7C46.9,65,47.4,64.8,47.7,64.8z M51.9,65.3c0.2,0,0.4,0.2,0.6,0.7
	c0.2,0.4,0.7,1.1,1.1,1.6c0.8,0.9,2,1.3,3.3,1.3c0.3,0,0.5,0.1,0.5,0.2c0,0.3-2.5,0.2-3.3-0.1c-1.3-0.6-2.8-2.7-2.5-3.5
	C51.7,65.5,51.8,65.3,51.9,65.3z M49.6,65.7c0.1,0,0.3,0.5,0.6,1.1c0.3,0.6,0.7,1.4,1.1,1.8s0.7,0.9,0.7,1s-0.2,0.2-0.5,0.2
	s-0.4-0.1-0.3-0.1c0.4-0.2,0.3-0.5-0.2-0.5c-0.3,0-0.4-0.1-0.3-0.3c0.1-0.2,0-0.3-0.1-0.3s-0.2-0.2-0.2-0.4c0-0.3-0.1-0.4-0.4-0.3
	s-0.4,0.1-0.2-0.1c0.3-0.3,0.3-0.6-0.1-0.6c-0.2,0-0.3-0.1-0.2-0.3c0.1-0.2,0-0.4-0.1-0.5C49.2,66.2,49.3,65.7,49.6,65.7z
	 M59.6,65.7c-0.4,0-1,0.6-1,0.9s0.2,0.2,0.8-0.3C59.8,65.8,59.9,65.7,59.6,65.7z M44.2,66.1c0.2,0,0.2,0.1,0.1,0.2
	c-0.2,0.2-1.4,0.6-1.4,0.5c0,0,0.3-0.2,0.6-0.4C43.7,66.3,44,66.2,44.2,66.1z M60.2,66.1c-0.4,0-0.8,0.4-0.8,0.8
	c0,0.3,0.6,0.1,1-0.4C60.6,66.2,60.5,66.1,60.2,66.1z M60.4,66.9c-0.2,0-0.4,0.1-0.4,0.2s0.1,0.2,0.3,0.2c0.2,0,0.3-0.1,0.4-0.2
	C60.7,67,60.6,66.9,60.4,66.9z M39.9,67.6c0.3,0,0.4,0.1,0.4,0.4s0.1,0.4,0.2,0.3c0.1-0.1,0.4-0.2,0.6-0.2c0.3-0.1,0.3-0.1,0.1,0.1
	c-0.2,0.1-0.2,0.2-0.1,0.2s0.1,0.1-0.1,0.2c-0.4,0.3-1.5,0.2-2.1-0.1c-0.3-0.2-1.1-0.4-1.7-0.4C36.1,68,36,68,35.5,68.6
	c-0.6,0.7-0.9,0.7-1.8,0.3l-0.6-0.3h0.8c0.5,0,1-0.2,1.2-0.4c0.5-0.5,1.3-0.7,2.4-0.5c0.5,0.1,1.2,0.1,1.4,0
	C39.4,67.7,39.7,67.6,39.9,67.6z M7.6,67.9c-0.1,0-0.3,0.1-0.4,0.2C7,68.2,6.9,68.4,7,68.4C7.3,68.4,7.8,68,7.6,67.9
	C7.7,67.9,7.7,67.9,7.6,67.9z M14.6,67.9c-0.7,0-1.9,0.2-2,0.4c-0.1,0.1,0.2,0.1,0.7,0c0.4-0.1,1.1-0.1,1.5-0.1
	c0.5,0,0.6-0.1,0.4-0.2C15,67.9,14.9,67.9,14.6,67.9z M26.4,68.5c-0.3,0-1.7,0.7-1.7,0.9c0,0.1,0.2,0.2,0.3,0.2
	C25.4,69.6,26.6,68.7,26.4,68.5L26.4,68.5z M24.8,68.6c-0.3,0-0.7,0.4-0.6,0.6c0.1,0.1,0.3,0,0.5-0.2s0.3-0.4,0.2-0.4
	C24.8,68.6,24.8,68.6,24.8,68.6z M27.6,68.6c-0.3,0.1-1.2,0.6-1.2,0.8c0,0.1,0,0.1,0.1,0.1C26.7,69.6,27.8,68.8,27.6,68.6
	C27.7,68.6,27.7,68.6,27.6,68.6z M10.9,68.8c-0.2,0-0.7,0.1-1,0.2s-1.3,0.3-2.1,0.3c-1.4,0.1-1.6,0.1-1.7-0.2
	C6,68.8,6,68.8,5.4,69.2c-0.3,0.3-0.6,0.6-0.6,0.7c0,0.2,0.1,0.2,0.3,0.1c0.2-0.1,1.2-0.2,2.3-0.3c2.2-0.2,2.9-0.3,3.5-0.7
	C11.3,68.8,11.3,68.8,10.9,68.8z M28.8,68.9c-0.1,0-0.2,0.1-0.5,0.2c-0.3,0.2-0.6,0.4-0.6,0.5c0,0.3,0.2,0.2,0.7-0.1
	C29,69.2,29.1,68.9,28.8,68.9z M30,69.4c-0.1,0-0.3,0.1-0.4,0.3c0,0.1,0,0.2,0.2,0.1S30.1,69.6,30,69.4C30.1,69.5,30.1,69.4,30,69.4
	z M30.9,69.8c-0.2,0-0.4,0.1-0.4,0.2s0.1,0.2,0.3,0.2s0.3-0.1,0.4-0.2C31.3,69.9,31.1,69.8,30.9,69.8z M32.3,16c0,0,0.3,0.3,0.7,0.6
	c0.5,0.6,0.7,0.7,1.9,0.7c0.8,0.1,1.6,0.2,2.1,0.5c0.4,0.2,1.1,0.5,1.4,0.6c1.3,0.4,2.3,1.8,2.8,3.7c0.3,1.2,0.2,3.7-0.2,6.1
	c-0.2,0.9-0.3,1.7-0.2,1.7c0,0.1,0.3-0.3,0.5-0.7c0.3-0.4,0.5-0.7,0.5-0.7c0.1,0.1-0.3,1.4-0.5,2c-0.5,1.2,1.1,0.1,2-1.4
	c0.4-0.6,0.6-0.9,0.7-0.7c0.1,1.2-0.3,2.5-1.1,3.4c-0.6,0.8-1,1-1.3,0.7c-0.3-0.2-0.8,0.1-0.5,0.3c0.1,0.1,0.5,0.3,0.8,0.5
	c1.1,0.6,1.1,0.8,0.1,1.5c-1.1,0.8-1.4,1.1-2,2.7c-0.3,0.7-0.6,1.6-0.7,2c-0.5,1.2-1.1,2.5-1.7,3.3c-0.5,0.7-1.2,2.2-1,2.2
	c0.1,0,0.3-0.3,0.5-0.8c0.5-1.2,2.3-3.6,3-4.2c0.4-0.3,0.8-0.5,1-0.5c0.6,0,1.4-0.5,1.5-1.1c0.2-0.8,0.4-0.6,0.4,0.3
	c0,1.3-0.6,2.3-1.6,2.6c-1.5,0.5-4.1,2.6-4.1,3.3c0,0.1-0.1,0.5-0.2,0.8c-0.2,0.6-0.2,0.6,0,0.9c0.2,0.2,0.3,0.2,0.4-0.1
	c0.2-0.6,1-1.7,1.4-2c0.2-0.2,0.7-0.3,1.1-0.3c0.6,0,0.9,0.1,2,0.7c0.2,0.1,0.2,0.1,0.1-0.1c-0.1-0.1-0.5-0.5-1-0.7
	c-0.7-0.4-0.8-0.5-0.4-0.5c0.2,0,0.4-0.1,0.3-0.2c0-0.1-0.3-0.2-0.6-0.2c-0.7,0-0.6-0.3,0-0.6c0.8-0.3,1.1-0.3,1.5,0.2
	c1.1,1.2,2.2,1.4,2.8,0.4c0.5-0.8,0.6-0.8,0.5,0c-0.3,2.2-2,3-3.7,1.9c-0.8-0.5-2.1-0.6-2.4-0.2c-0.1,0.2-0.1,0.2,0.3,0.1
	c1-0.3,2.1,0.9,1.6,1.9c-0.2,0.4-0.4,0.5-0.4,0.1c0-0.2,0.1-0.3,0.1-0.3c0.1,0,0.1-0.1,0.1-0.2s-0.1-0.2-0.2-0.1
	c-0.1,0-0.2-0.1-0.2-0.2c0-0.2,0-0.2,0.1-0.1s0.1,0.1,0.1-0.1s-0.3-0.3-0.9-0.3c-0.8,0-0.8,0-1.5,1c-0.4,0.5-0.7,1-0.8,1
	c-0.4,0-2.5-1.6-2.5-1.9c0-0.2,0.1-0.7,0.3-1.2s0.5-1.4,0.6-2c0.2-0.6,0.7-1.8,1.1-2.6c0.9-1.8,3-5.6,3.2-5.7c0.3-0.2,0.9-1,0.8-1.2
	C40.8,32.6,39,35.2,38,37c-0.3,0.6-0.6,1-0.6,1s0.3-1,0.7-2.1c1.2-3.3,2.2-7,1.7-6.6c-0.1,0.1-0.2,0.4-0.2,0.6
	c-0.1,0.7-1.8,5.5-2.2,6.5c-0.6,1.3-0.7,1.6-1.1,2.6c-0.5,1.2-0.6,1.3-0.8,0.5c-0.1-0.6-0.2-0.6-0.3-0.3c-0.1,0.3-0.1,0.5,0,0.6
	c0.5,0.9,0.4,3-0.2,4.4c-0.5,1.1-0.7,1.4-0.9,1.4c-0.3,0-0.3-0.4-0.2-1.5c0.1-0.8,0.1-1.3,0-2.1c-0.3-2-0.3-2,0-2.4
	c0.2-0.2,0.5-0.7,0.6-1.1c2.5-6.9,3.7-10.6,3.9-11.7c0.1-0.7,0.3-1.4,0.4-1.4c0.1-0.1,0.2,0.8,0.2,2.1l0.1,2.2l0.4-1.1
	c0.6-1.7,0.7-2.8,0.7-4.8c0-1.5-0.1-2-0.3-2.8c-0.4-1.1-1-1.9-1.7-2.2c-0.6-0.2-1.1,0-1.8,1c-0.5,0.6-0.5,0.9-0.5,1.6
	c0,1.6,0.9,2.4,1.9,1.7c0.2-0.2,0.2-0.1-0.1,0.3c-0.4,0.4-0.5,0.5-1.1,0.4c-0.5-0.1-0.7-0.2-0.9-0.6C35,21.8,35,21.8,35,23.3
	c0,1,0.2,2,0.6,3.3c0.6,2.2,0.8,3.2,0.7,4.2L36,32.2l-0.3-0.5c-0.2-0.2-0.7-0.8-1.1-1.3c-0.8-0.8-0.8-0.8-1.1-2.4
	c-0.1-0.9-0.3-1.6-0.4-1.5c-0.2,0.2-0.1,1.8,0.2,2.5s0.4,3.1,0.1,3.1c-0.1,0-0.3-0.5-0.5-1c-0.3-0.9-0.3-1.2-0.3-2.9
	c0.1-1.3,0-1.9-0.1-2s-0.1-0.5,0.2-1.4c0.3-1.3,0.6-1.6,0.6-0.7c0,0.3,0.1,0.9,0.2,1.4c0.1,0.5,0.2,1.1,0.3,1.5
	c0.1,0.3,0.1,0.5,0.2,0.5c0.1-0.1,0-1-0.2-2.1s-0.3-2.1-0.3-2.3c0-1,2.6-4.3,3.4-4.3c0.2,0,0.3-0.1,0.3-0.2c0-0.1-0.3-0.2-0.6-0.2
	c-0.6,0-0.9,0.3-1.9,1.6c-0.3,0.4-0.8,0.9-1.2,1.2c-0.6,0.4-0.7,0.6-0.7,1.1c0,0.3-0.3,1.1-0.8,2.1c-1.1,2.1-1.1,2.1-0.7,1.8
	c0.2-0.1,0.3-0.2,0.4-0.2c0.3,0-0.2,1.7-1.4,4.5c-0.2,0.5-0.3,1-0.3,1c0.1,0,0.3-0.4,0.5-0.9s0.5-1,0.6-1.2c0.2-0.2,0.2-0.2,0.1,0.6
	c-0.2,2,0.4,0.4,0.8-2.1c0.1-0.7,0.1-0.6,0.1,0.9c0,1-0.1,2.3-0.1,2.9c-0.1,1-0.1,1.3,0.1,2.1c0.1,0.5,0.4,1.2,0.6,1.5
	c0.4,0.5,0.4,0.6,0.1,0.6c-0.5,0-1.2-1.3-1.4-2.5c-0.2-1-0.1,0.3-0.7,0.8c-1.9,1.8-3.1,1.2-4.5-1.3c-0.9-1.6-0.8-3.4,0.3-5.1
	c1-1.5,1.1-2.5,0.2-2.5c-0.3,0-0.4-0.1-0.4-0.3c0.1-1,1.2-0.7,1.5,0.4c0.2,0.9,0.2,1.4-0.1,1.8c-0.3,0.4-0.1,0.8,0.1,0.4
	c0.2-0.3,0.4-0.3,0.4,0c0,0.2-0.2,0.6-0.5,0.9c-1.5,1.9-1.6,2-1.5,3c0.2,1.7,0.9,2.5,0.9,1c0-0.6,0.1-0.8,0.3-0.9
	c0.4-0.2,0.5,0,0.3,0.5c-0.2,0.6-0.2,1,0.1,1.8c0.2,0.6,0.4,0.7,0.8,0.7c0.7,0,0.9-0.8,0.9-1.8c0-0.4-0.9-1.7-0.9-2.8
	c0-0.8,1.2-2.5,1.3-2.9l0.3-1.3L29.5,26c-0.6,0.1-0.9,0.1-0.9-0.3c0-0.1,0.5-0.4,0.9-0.4c0.9,0,0.7-0.8,1-1.5s0.5-1,0.9-1.1
	c0.3-0.1,0.7-0.3,0.8-0.5c0.3-0.3,0.3-0.3,0-0.3c-0.2,0-0.5,0.1-0.8,0.3c-0.6,0.3-1.7,0.3-2.1-0.1c-0.4-0.5-0.3-0.8,0.3-0.7
	s1.6-0.4,2.3-1.3c0.5-0.7,0.6-0.7,1.6-0.7s1.4-0.1,1.4-0.5c0-0.1-0.2-0.1-0.5-0.1c-1.2,0.3-2.5-0.8-2.5-2.2
	C32.2,16.3,32.2,16,32.3,16z M42.2,31.6C42.1,31.6,42.1,31.6,42.2,31.6C42,31.7,42,31.8,42,31.9s0.1,0.2,0.1,0.1
	C42.2,31.9,42.3,31.8,42.2,31.6L42.2,31.6z M34.1,36c0.1,0,0,0.3-0.4,0.8c-0.5,0.8-1.1,2.7-0.9,3.1c0,0.1,0,0.4,0,0.6
	c-0.1,0.5-0.3,0.5-0.6-0.1c-0.2-0.5-0.2-0.6,0-1.6c0.3-1.1,0.8-2.1,1.4-2.5C33.9,36.1,34,36,34.1,36z M29.5,36.4
	c0.1,0,0.1,0.3,0,0.8c-0.2,1.6,0.1,2,1.4,2.4c0.6,0.2,1.7,1.6,2,2.8c0.3,1,0.4,2.5,0.2,3.1c-0.2,0.4-0.2,0.2-0.1-0.9
	c0-0.9-0.3-2.2-0.7-2.8c-0.4-0.6-0.5-0.4-0.2,0.3c0.3,0.8,0.6,3.1,0.3,3.3c-0.3,0.3-0.1,0.7,0.4,0.9c0.5,0.2,0.5,0.2,0.5,0.6
	c-0.1,0.6,0.1,1.5,0.3,1.5c0.1,0,0.2-0.4,0.2-0.8c0-0.6,0.1-0.8,0.2-0.7c0.1,0,0.2,0.3,0.1,0.5c0,0.2,0,0.7,0.1,1
	c0.2,0.6,0.5,0.8,0.4,0.1c-0.1-0.5,0.2-0.6,0.3-0.1c0,0.2,0.2,0.3,0.3,0.4s0.2,0,0-0.6c-0.2-0.9-0.1-1,0.5-0.5s0.6,0.6,0.3,1.2
	c-0.2,0.4-0.2,0.7,0.1,0.7c0.1,0,0.2-0.2,0.3-0.5s0.2-0.5,0.3-0.5s0.1,0.2,0,0.5c-0.1,0.6,0.3,0.7,0.4,0.1c0.1-0.2,0.2-0.4,0.3-0.4
	c0.2,0,0.2,0.1,0.1,0.2c-0.1,0.1-0.2,0.4-0.2,0.5c0,0.4,0.3,0.3,0.4-0.1c0-0.2,0.2-0.4,0.3-0.4c0.2,0,0.2,0.1,0.1,0.4
	c-0.1,0.2-0.2,0.5-0.2,0.6c0,0.4,0.3,0.2,0.5-0.3c0.1-0.3,0.3-0.5,0.4-0.5c0.2,0,0.3,0.3,0,0.5c-0.2,0.2-0.2,0.7,0,0.7
	c0.1,0,0.2-0.2,0.2-0.5s0.2-0.5,0.3-0.5c0.2,0,0.3,0.3,0.1,0.5s-0.2,0.7,0,0.7c0.1,0,0.2-0.3,0.3-0.6c0.1-0.5,0.2-0.6,0.6-0.5
	c0.5,0.1,0.5,0.1,0.2,0.8c-0.1,0.3-0.2,0.6-0.1,0.7c0.1,0.2,0.7-0.7,0.7-1.1c0-0.2,0.1-0.3,0.2-0.3c0.2,0,0.2,0.4-0.1,0.9
	c-0.1,0.3-0.2,0.6-0.1,0.6c0.1,0.2,0.5-0.3,0.7-1c0.1-0.3,0.2-0.6,0.3-0.6c0.2,0,0.1,0.4-0.2,1.1c-0.3,0.5-0.3,0.6-0.1,1
	s0.3,2.7,0.1,2.7c-0.1,0-0.1-0.2-0.1-0.5s0-0.5-0.2-0.6c-0.3-0.2-0.5,0-0.5,0.5c0,0.2-0.1,0.4-0.2,0.4c-0.1,0-0.1-0.3-0.1-0.7
	c0.1-0.8-0.2-1.2-0.3-0.5C40.1,53,40.1,53,40,52.3l-0.1-0.7l-0.3,0.7L39.4,53l0.1-0.8c0.1-0.9-0.1-1-0.3-0.1L39,52.8v-0.7
	c0-0.8-0.3-0.8-0.5,0c-0.1,0.4-0.1,0.3-0.2-0.5c-0.1-1-0.4-1.1-0.4-0.1c0,1.1-0.4,0.6-0.4-0.5v-0.4L37.4,51
	c-0.2,0.6-0.4,0.6-0.5-0.2c-0.1-0.5-0.1-0.6-0.2-0.3c-0.1,0.4-0.4,0.4-0.4-0.1s-0.1-0.5-0.5-0.1l-0.3,0.3l0.3,0.4l0.3,0.4l-0.4-0.1
	l-0.4-0.1l0.3,0.4c0.2,0.2,0.4,0.5,0.5,0.5c0.1,0.1,0.1,0.1,0,0.3c-0.1,0.1,0,0.3,0.4,0.7c0.3,0.3,0.5,0.5,0.3,0.4
	c-0.4-0.2-0.4,0.2,0,0.5c0.2,0.1,0.3,0.3,0.3,0.4s0.1,0.4,0.2,0.6c0.2,0.3,0.2,0.3-0.1,0.2c-0.2,0.2-0.3,0-0.2-0.2
	c0.1-0.5-0.5-0.9-1-0.6l-0.4,0.2l0.3-0.4c0.4-0.5,0.3-0.9-0.1-0.6c-0.4,0.3-0.6,0.2-0.2-0.1c0.4-0.4,0.2-0.6-0.3-0.3
	c-0.4,0.3-0.5-0.1-0.1-0.4c0.2-0.2,0.3-0.3,0.2-0.4s-0.3-0.1-0.5,0.1s-0.4,0.2-0.4,0.1s0.1-0.2,0.2-0.3c0.1-0.1,0.1-0.2,0.1-0.2
	c-0.1-0.1-0.2,0-0.3,0.1s-0.3,0.2-0.3,0.1c-0.1-0.1,0-0.2,0.1-0.3s0.2-0.2,0.1-0.3c-0.1-0.1-0.3,0-0.5,0.2c-0.6,0.5-0.6,0.4-0.1-0.3
	c0.6-0.7,0.5-1-0.2-0.5c-0.3,0.2-0.5,0.3-0.5,0.2s0.1-0.2,0.2-0.3c0.3-0.2,0.3-0.6-0.1-0.5c-0.2,0.1-0.4,0-0.5-0.2
	c-0.2-0.3-0.2-0.3-0.4,0c-0.3,0.6-0.2,1.6,0.2,2.3c0.4,0.7,0.7,1.4,0.5,1.6c0,0-0.3-0.1-0.6-0.4s-0.6-0.5-0.6-0.5
	c-0.1,0-0.1,0.6-0.1,1.3c0,0.9,0.1,1.5,0.3,2c0.2,0.4,0.3,0.8,0.3,0.8s-0.3-0.1-0.5-0.3c-0.4-0.3-0.5-0.7-0.8-1.8
	c-0.4-1.9-0.4-3.3,0.1-4.2c0.4-0.8,0.5-2,0.3-2.1c-0.1,0-0.2,0.1-0.2,0.2c0,0.2-0.2,1-0.4,1.9c-0.3,1.5-0.3,1.7-0.2,3.1
	c0.1,1.2,0.3,1.7,0.6,2.4c0.2,0.5,0.4,0.9,0.4,1c0,0-0.3-0.1-0.6-0.3c-0.8-0.6-1.3-1.7-1.3-3v-1L29,53.4c-0.8,0.2-1.9-0.3-2.2-1
	c-0.2-0.6-0.1-0.7,0.4-0.2c0.7,0.8,1.9-0.1,1.9-1.4c0-0.3,0.1-0.9,0.2-1.4c0.1-0.5,0.2-0.9,0.2-1c-0.2-0.2-0.4,0.2-0.5,0.9
	c-0.1,0.4-0.2,0.7-0.3,0.7c-0.2,0-0.1-0.2,0-0.9c0.2-0.9,0.2-1.3-0.1-1c-0.1,0.1-0.2,0.5-0.2,0.9c-0.1,1-0.4,1.1-1.1,0.3
	c-0.5-0.6-0.5-0.6-0.2-2.4c0.1-0.4,0-1.2-0.1-1.9c-0.1-0.7-0.3-1.7-0.3-2.1c-0.1-0.8-0.1-0.8,0.3-0.9c0.3,0,0.5,0.1,0.7,0.5
	c0.8,1.7,2.7,3.7,3.4,3.7c0.2,0,0.4-2.1,0.3-2.9c-0.1-0.7-0.3-1-1-1.5c-1.4-1-1.9-2.5-1.4-4.4C29.3,36.7,29.4,36.4,29.5,36.4z
	 M36.8,38.9L36.8,38.9c0.1,0.1,0,0.3-0.2,0.6c-0.2,0.3-0.3,0.4-0.3,0.3C36.3,39.5,36.7,38.8,36.8,38.9z M31,40.3
	c-0.1,0,0,0.2,0.2,0.4c0.4,0.5,0.6,0.5,0.2,0C31.3,40.5,31.1,40.3,31,40.3z M26.9,40.4c0,0,0.1,0.1,0.2,0.2c0.1,0.2,0.3,0.3,0.4,0.3
	c0.1,0,0.1,0.1,0.1,0.2s-0.2,0.2-0.4,0.3c-0.3,0.1-0.4,0-0.4-0.5C26.9,40.5,26.9,40.4,26.9,40.4z M36,40.6
	C36.1,40.6,36.1,40.6,36,40.6c0.1,0.2,0,0.3-0.1,0.3s-0.1,0-0.1-0.1C35.8,40.8,35.8,40.7,36,40.6C35.9,40.6,36,40.6,36,40.6z
	 M26.2,40.8c0.1,0,0.1,0.2,0.1,0.7c0,1.4,0,1.5,0.2,1.8c0.1,0.2,0.1,0.3,0,0.4s-0.2,0.3-0.2,0.5c-0.2,0.8-0.4,0.3-0.3-1.3
	C26,41.7,26.1,40.8,26.2,40.8z M34.2,41.3c-0.1,0-0.1,0.1-0.1,0.3c0,0.2,0.1,0.3,0.1,0.3c0.1,0,0.2-0.1,0.2-0.3
	C34.3,41.4,34.3,41.3,34.2,41.3z M27.8,42.3c-0.1,0-0.2,0.3-0.3,0.6c-0.1,0.3-0.2,0.6-0.1,0.6c0.1,0,0.2-0.3,0.3-0.6
	S27.8,42.3,27.8,42.3z M27.9,43.4c-0.1,0-0.3,0.2-0.4,0.6c-0.1,0.4-0.1,0.6,0.1,0.9c0.1,0.2,0.3,0.4,0.3,0.4
	c0.1,0.1,0.6-1.7,0.5-1.8c0-0.1-0.2,0-0.3,0.2c0,0.3-0.1,0.2-0.1,0S28,43.4,27.9,43.4z M26.6,44c0.1,0,0.1,0.3,0,0.8
	c-0.1,0.8-0.1,0.9,0.2,0.5c0.2-0.4,0.2-0.4,0.2,0.5c-0.1,0.6,0,1,0.1,1.1s0.1,0.2,0.1,0.3c-0.1,0.3-0.5,0.2-0.7-0.3
	c-0.4-0.8-0.4-1.3-0.2-1.7c0.1-0.2,0.2-0.5,0.2-0.7C26.4,44.4,26.5,44.1,26.6,44C26.6,44.1,26.6,44,26.6,44z M29.1,44.8
	c-0.2,0-0.6,0.2-0.7,0.5c-0.3,0.6-0.3,1.1,0,0.9c0.2-0.1,0.2,0,0.2,0.2s0,0.3,0.1,0.3c0.2,0,0.7-1.3,0.7-1.7
	C29.3,44.8,29.2,44.7,29.1,44.8z M29.6,45.2c-0.1,0-0.3,0.3-0.4,0.7c-0.1,0.4-0.2,0.8-0.2,0.9c0,0.3,0.4,0.3,0.4,0
	c0-0.1,0.1-0.1,0.2,0.1c0.2,0.4,0.4,0.5,0.4,0.2c0-0.1,0.1-0.1,0.3-0.1c0.2,0.1,0.3,0,0.3-0.4c0-0.3-0.1-0.5-0.2-0.5
	c-0.1,0-0.1,0.1-0.1,0.2s-0.1,0.2-0.2,0.2c-0.1,0-0.1-0.1-0.1-0.3c0-0.2-0.1-0.3-0.1-0.3c-0.1,0-0.2-0.1-0.2-0.3
	C29.7,45.3,29.7,45.2,29.6,45.2z M37.1,46.1C37.2,46.1,37.2,46.1,37.1,46.1c0.1,0.2,0,0.3-0.1,0.3s-0.1,0-0.1-0.1
	C36.9,46.3,37,46.2,37.1,46.1L37.1,46.1z M31,46.2c-0.1,0-0.2,0.2-0.2,0.5s0.1,0.5,0.2,0.5c0.1,0,0.1-0.2,0.1-0.5
	C31.2,46.4,31.1,46.2,31,46.2z M32.1,46.3c-0.1,0-0.2,0.5,0,1.1l0.2,0.6l0.1-0.7c0-0.4,0-0.8-0.1-0.9S32.1,46.3,32.1,46.3z
	 M31.6,46.4c-0.1,0-0.1,0.1-0.1,0.3c0,0.2,0.1,0.3,0.1,0.3c0.1,0,0.1-0.1,0.1-0.3C31.8,46.5,31.7,46.4,31.6,46.4z M32.7,46.4
	c-0.1,0-0.2,1.3,0,1.5c0.2,0.3,0.3,0.1,0.2-0.7C32.9,46.8,32.8,46.4,32.7,46.4z M27.9,47.2c-0.1,0-0.5,0.9-0.5,1.2
	c0,0.4,0.2,0.2,0.4-0.4C28.1,47.5,28.1,47.2,27.9,47.2z M28.5,47.4c-0.1,0-0.3,0.4-0.4,1.1c-0.1,0.6-0.1,0.8,0.1,0.8
	C28.3,49.3,28.7,47.7,28.5,47.4C28.5,47.5,28.5,47.4,28.5,47.4z M30.2,48.3c-0.1,0-0.2,0.3-0.2,0.7c-0.1,0.4-0.1,0.8-0.2,1
	c0,0.2,0,0.3,0.2,0.3c0.1,0,0.2-0.2,0.2-0.4c0-0.2,0-0.7,0.1-1C30.3,48.5,30.3,48.3,30.2,48.3z M30.9,48.5L30.9,48.5
	c-0.2,0.1-0.5,1.1-0.3,1.3c0.1,0.2,0.5-0.5,0.5-1C31,48.6,31,48.5,30.9,48.5z M32.1,49.1c-0.2,0-0.4,1.3-0.3,1.7
	c0.1,0.1,0.2-0.1,0.3-0.6C32.4,49.2,32.4,49.1,32.1,49.1z M40.1,49.5c-0.2,0-0.6,0.6-0.6,0.9s0.2,0.1,0.5-0.4
	C40.2,49.7,40.2,49.5,40.1,49.5z M43.2,49.5c0.2,0,0.3,0.2,0.2,0.4c-0.1,0.2-0.1,0.2-0.2,0c0-0.2-0.1-0.2-0.3,0.1
	c-0.1,0.2-0.3,0.2-0.3,0.1s0.1-0.3,0.2-0.5C43,49.6,43.1,49.5,43.2,49.5z M42.1,50.1c0.1,0,0,0.2,0,0.5c0,0.2-0.2,0.3-0.2,0.3
	c-0.2,0-0.1-0.3,0.1-0.6C42,50.2,42,50.1,42.1,50.1z M43.7,50.3c0.1,0,0,0.2-0.1,0.5s-0.3,0.5-0.4,0.5s0-0.2,0.1-0.5
	C43.5,50.5,43.6,50.3,43.7,50.3z M42.5,50.5c0.1,0,0,0.2-0.1,0.6c-0.1,0.3-0.2,0.6-0.3,0.6s0-0.5,0.1-0.9
	C42.4,50.6,42.5,50.5,42.5,50.5z M43.7,51.1c0.1,0,0.2,0.2,0.2,0.5s-0.1,0.5-0.1,0.4c-0.1-0.1-0.2,0-0.3,0.1c-0.2,0.3-0.3-0.1,0-0.7
	C43.5,51.2,43.6,51.1,43.7,51.1z M42.3,52.4c0.1,0,0.1,0.1,0,0.2c0,0.2-0.1,0.4-0.1,0.5s-0.1,0.2-0.2,0.2c-0.2,0-0.2-0.8,0.1-0.9
	C42.2,52.4,42.3,52.4,42.3,52.4z M42.8,53.3c0.2,0,0.3,0.2,0.2,0.5c-0.1,0.4-0.3,0.4-0.3-0.1C42.7,53.5,42.7,53.3,42.8,53.3z
	 M37.1,56.1c0.1,0,0.1,0,0.2,0.1c0.1,0.2,0,0.3-0.3,0.5c-0.5,0.4-1,0.4-0.5,0.1c0.2-0.1,0.4-0.4,0.5-0.5C37,56.1,37,56.1,37.1,56.1z
	 M36.4,56.3c0,0,0,0.1-0.1,0.2c-0.3,0.3-0.2,1,0.1,1s1.1-0.6,1.2-0.9c0.1-0.1,0.2-0.1,0.3,0.1c0.2,0.2,0.2,0.4,0,0.5
	c-0.2,0.3-0.4,0.3-0.3,0c0-0.1,0-0.2-0.1-0.2s-0.2,0.1-0.2,0.2s-0.2,0.2-0.3,0.2s-0.4,0.2-0.6,0.4c-0.3,0.3-0.5,0.3-0.7,0.2
	s-0.3-0.3-0.3-0.4C35.5,57.3,36,56.6,36.4,56.3L36.4,56.3z M37.4,57.6c0.1,0,0.2,0,0.2,0.1c0,0.2-0.3,0.3-0.4,0.1
	C37.2,57.7,37.3,57.6,37.4,57.6z M33.8,62.4c2.5,0,4.6-0.6,6.5-1.9c1.8-1.2,3.4-2.9,4.6-4.9s2.2-4.3,2.8-6.9s0.9-5.3,0.9-8
	c0-2.9-0.4-6.9-1.1-9.7s-1.3-5.1-2.1-6.8c-1.1-2.4-3.2-5.7-5.2-7.3c-4.4-3.5-9.8-2.7-11.4-2.3c-2.7,0.7-3.2,5.3-3.4,6
	c-0.1,0.6-0.2,1.3-0.3,2.3s-0.2,2.2-0.3,3.5s-0.2,2.8-0.2,4.3s-0.1,3.1-0.1,4.8c0,3.7,0,6.9,0,9.4s0.1,4.6,0.1,6.1
	c0,1.6,0.1,2.7,0.2,3.5c0.1,0.8,0.1,1.3,0.2,1.5c0.1,0.7,0.4,1.5,0.9,2.2s1.1,1.4,1.9,2s1.7,1.1,2.7,1.5
	C31.4,62.2,32.5,62.4,33.8,62.4z M14.3,15.1c-0.7,0-1.5,0.1-4.2,2.5c-1.6,1.4-1.7,1.8-0.9,2.3c1.2,0.7,0.5,2.8-1,2.8
	s-2.1-1.4-1.4-3.4C7.1,18.6,7.1,18.2,7,18c-0.1-0.1-0.2-0.6-0.3-0.9c-0.1-0.4-0.3-0.8-0.5-1s-0.4-0.6-0.5-0.8
	c-0.1-0.4-0.1-0.4,1.1-0.4c0.7,0,1.5-0.1,1.9-0.2c0.7-0.2,2.1-1.6,2.1-2c0-0.2-1.7-0.9-2.3-0.9c-0.4,0-1.2-0.9-1.3-1.5
	c-0.1-0.6,0-0.9,0.4-1.5c0.4-0.7,0.8-1,1.4-1c0.2,0,0.4,0,0.6,0.1c1.1,0.2,1.5,1.1,1.2,2.4l-0.2,0.6l0.9-0.1
	c0.5-0.1,1.5-0.3,2.3-0.4c0.9-0.2,3-0.4,5.4-0.4c1.8,0,2.1,1.1,2.8,1.2c1.6,0.2,2.1-0.8,3.8-0.8c8.2-0.7,13.2,0.5,17.4,3
	c2.8,1.7,5.7,4,7.7,6.7c1.7,2.2,3.6,5.6,4.5,8.2c0.9,2.7,1.3,5.4,1.3,8.3c0,3.4-0.6,6.8-1.7,10.2c-1.1,3.4-2.8,6.4-4.9,9.2
	c-2.1,2.7-4.7,4.9-7.7,6.6c-3,1.7-6.4,2.5-10.1,2.5c-0.8,0-1.8-0.1-3-0.2c-1.2-0.2-2.4-0.4-3.7-0.6c-1.3-0.3-2.5-0.6-3.7-0.9
	s-2.2-0.7-3-1c-1,0.6-2.2,1.2-3.6,1.8c-1.5,0.6-1.8-1.4-1.1-2s1.2-1.4,1.6-2.4c0.2-0.6,0.3-1.6,0.5-2.9s0.3-2.9,0.4-4.7
	c0.1-1.8,0.2-3.9,0.3-6.1s0.1-4.6,0.1-7.1c0-5.6-0.1-15-0.4-18.1c-0.3-3.1-0.6-5.1-1.1-5.4C15.3,15.3,14.6,15.1,14.3,15.1z M11,59.8
	c2.5-5.7-2.1-11.3-1.4-11.2c0.9,0.2,0-4.9,0.7-5.4c0.6-0.5,0.7-1,0.6-2.1c-0.1-0.7-0.2-0.9-0.6-1.3c-1-0.8-2.1-0.4-2.3,0.9
	c-0.1,0.3-0.1,0.2-0.1-0.3c0-0.6,0-0.7,0.4-1.2c0.3-0.4,0.6-0.5,1-0.5c1.4,0,1.4,0,0.4-0.7c-0.7-0.5-1.4-0.8-2.4-1.1
	C5.5,36.4,5,35.2,5,35.2s0.6,0.2,1.1,0c1-0.3,0.6-0.3,1.9-0.4c0.6,0.3,1.2,0.5,1.2,0.4c0-0.3-1-1-1.7-1.1c-0.6-0.1-2.2-1.2-2-1.4
	c0.1-0.1,0.5-0.1,1,0c0.8,0.2,1,0.3,2,1.2c0.8,0.7,1.2,1,1.3,0.9c0.2-0.1,0.3,0.1,0.8,0.8c0.6,1,0.6,1.3,0.1,0.9
	c-0.2-0.1-0.6-0.4-1-0.5s-0.9-0.3-1.1-0.5c-0.2-0.1-0.4-0.1-0.4,0s0.6,0.5,1.4,0.8c0.8,0.4,1.6,0.7,1.7,0.8c0.6,0.5,0.9,4.5,0.4,5.2
	c-0.1,0.2-0.2,0.4-0.1,0.4c0.1,0.1,0.3-0.1,0.5-0.4c0.4-0.5,0.4-0.9,0.3-2.5c0-0.4,0-1.2,0-1.7c0.1-0.7,0.1-0.9-0.2-1.2
	c-0.2-0.2-0.5-0.8-0.8-1.7c-0.6-2-0.6-2-0.7-1.5c0,0.2-0.1,0.4-0.1,0.5c-0.2,0.3-0.9-1.1-1.9-3.5c-0.2-0.5-0.4-0.8-0.4-0.7
	c-0.1,0.1,0,0.5,0.2,0.9s0.3,0.9,0.3,1.1c0,0.3,0,0.3-0.5-0.2c-1.1-1.2-0.5,0.1,0.8,1.7c0.4,0.5,0.3,0.4-0.7-0.3
	C7.8,33,7,32.3,6.6,31.9c-0.5-0.6-0.8-0.8-1.4-1c-0.4-0.1-0.9-0.4-0.7-0.7C5.1,30.1,5.1,30,6,30.4c0.7,0.3,1.3-1.8,1.3-2.6
	c0.1-1.3,1-1.8,2.2-3.8c1.4-2.3,1.3-4.3,2.8-5.1c1,0,1.2,0.4,1.6,2.2c0.3,1.6,0.9,2.2,1.4,1.5c0.2-0.3,0.3-0.3,0.5-0.2
	c0.5,0.6-0.4,1.5-1.3,1.2c-0.7-0.2-1-0.5-1.1-1c-0.1-0.4-0.4-0.5-0.3-0.1c0,0.4-0.1,0.5-0.3,0.3c-0.1-0.1-0.2-0.5-0.2-0.9
	c-0.1-0.8-0.5-1.3-0.9-1C10,22.5,10,26,10.9,26.7c0.4,0.3,0.5,0.5,0.4,0.7c-0.2,0.5-0.3,0.5-0.5,0s-0.5-0.7-1.2-0.8
	c-0.5-0.1-0.7,0-0.9,0.4c-0.5,0.6-0.3,1.9,0.3,2.4c0.2,0.2,0.7,0.8,1,1.4c0.3,0.6,0.8,1.3,0.9,1.5l0.3,0.4l0.4-0.6
	c0.4-0.6,1.2-1.2,1.5-1c0.1,0.1-0.1,0.4-0.4,0.8c-0.6,0.8-0.6,1.4-0.2,2.6c0.2,0.6,0.3,0.9,0.1,1.4c-0.1,0.3-0.2,0.8-0.2,1
	c0,0.4,0,0.4,0.2,0.1c0.1-0.2,0.3-0.5,0.4-0.9c0.2-0.7,1-1.7,1.4-1.8c0.5-0.1,0.7,0.2,0.3,0.6c-0.5,0.5-0.8,1.7-0.7,2.7
	c0.1,0.8,0,0.9-0.7,1.8s-0.9,1.3-0.6,1.5c0.1,0.1,0.2-0.1,0.4-0.4c0.6-1.2,1.2-1.1,2-0.4c0.2,0.2,0.3,0.3,0.3,0.4c0,0-0.5,0-1,0
	c-0.6,0-1,1.4-1,1.4c-0.6,0.7-0.8,0.9-1.3,1.2c-0.4,0.3-0.5,4-0.8,4.3c-1.1,0.9,3,6.9,0.9,12.5"/>
</svg>
