<?xml version="1.0" encoding="utf-8"?>
<!-- Generator: Adobe Illustrator 21.1.0, SVG Export Plug-In . SVG Version: 6.00 Build 0)  -->
<svg version="1.1" id="Layer_1" xmlns="http://www.w3.org/2000/svg" xmlns:xlink="http://www.w3.org/1999/xlink" x="0px" y="0px"
	 viewBox="0 0 501 147.8" style="enable-background:new 0 0 501 147.8;" xml:space="preserve">
<style type="text/css">
	.st0{fill:#FFFFFF;}
	.st1{fill:#7F1416;}
	.st2{fill:#878787;}
	.st3{font-family:'Avenir-Light';}
	.st4{font-size:65px;}
</style>
<rect x="20" y="21.1" class="st0" width="92.1" height="103.9"/>
<g>
	<path class="st0" d="M140.8,89.9c0.3-0.1,1-0.2,2.1-0.4c2.1-0.4,3.5-0.9,4.2-1.5c0.4-0.4,0.7-1.1,0.8-2.2c0-0.3,0.1-3.7,0.2-10.4
		v-3.8v-4.5L148,55.4V54c0-0.6-0.2-1-0.5-1.4c-0.2-0.2-0.6-0.2-1.3-0.2c-0.6,0-1.3,0.1-2.1,0.2c-1,0-1.9,0.1-2.7,0.3
		c-0.1,0-0.4,0.1-0.6,0.1v-3c1.3-0.4,3.3-0.9,5.8-1.3c4.1-0.7,9.3-1,15.3-1c5.1,0,8.8,0.3,11.1,0.9c3.6,0.9,6.4,2.2,8.7,4
		c3,2.3,5.2,5.1,6.7,8.1c1.5,3.1,2.2,6.4,2.2,10.1c0,4.6-1,8.5-3,11.8s-4.9,5.9-8.6,7.9c-2.6,1.4-6.2,2.1-10.8,2.1l-7-0.3l-2.1-0.1
		l-2.8,0.1l-0.8-0.1l-2.9,0.1h-3.8c-0.1,0-1.3,0.1-3.5,0.2c-0.7,0-1.7,0.1-2.9,0.1c-0.7,0-1.3,0-1.6,0
		C140.8,92.1,140.8,91.2,140.8,89.9z M157.4,51.8c0,0.7-0.1,1.2-0.1,1.5l0.1,5.8v5.1c0,1.6,0.1,3.1,0.1,4.3l-0.1,3.2l0.1,5.4
		l-0.1,3.3c0,3.1,0.6,5.2,1.7,6.3c1.7,1.6,4,2.4,7,2.4c2.3,0,3.9-0.2,5-0.6c2.2-0.9,4-2,5.3-3.4s2.3-3.5,3-6.1s1-5.3,1-8.1
		c0-4.6-0.7-8.3-2.2-11.3s-3.5-5.1-6-6.6c-2.6-1.5-5.5-2.2-8.8-2.2C161.1,50.9,159.1,51.2,157.4,51.8z"/>
	<path class="st0" d="M190.3,92.7l0.1-2.3c0.4-0.1,1.2-0.3,2.3-0.5c1.8-0.3,2.8-0.6,3.2-0.9s0.8-0.9,1.4-2l6.9-18.1l8.1-21.2
		c0.8,0,1.5,0,2.2,0h1.5l0.3,0.6l5.9,14.1c1.3,3,2.5,5.9,3.6,8.7c1.1,2.8,2,5.1,2.8,6.9c0.5,1.1,1.1,2.7,1.9,4.8
		c0.4,1.2,1,2.6,1.9,4.4c0.5,1,0.8,1.5,1,1.7c0.4,0.3,1.1,0.6,2,0.7s1.9,0.4,3,0.8c0.1,0.8,0.2,1.3,0.2,1.7c0,0.2,0,0.4,0,0.8
		c-1.7,0-3.5-0.1-5.6-0.2c-2-0.2-3.9-0.2-5.5-0.2c-1.8,0-3.1,0-3.9,0.1l-5.8,0.3l-1.7,0.1c0-0.8,0-1.6,0.1-2.3l3.8-0.8
		c1.1-0.3,1.8-0.5,2-0.7s0.3-0.5,0.3-0.8s-0.1-0.6-0.2-0.9l-1.4-3.3l-2.7-6.7h-13c-0.5,1.1-1.5,3.8-3,8c-0.4,1.2-0.6,2-0.6,2.5
		c0,0.6,0.2,1,0.5,1.3c0.5,0.4,1.5,0.7,3,0.9c0.2,0,1,0.2,2.4,0.4c0,0.8,0,1.4,0,1.7c0,0.3,0,0.5-0.1,0.8c-1.4,0-4.8-0.2-10.1-0.6
		l-1.4,0.2c-1.7,0.3-3.3,0.4-4.8,0.4h-0.6L190.3,92.7L190.3,92.7z M206.4,73.5c5.3,0.1,8.5,0.1,9.4,0.1h0.9c-0.7-2-1.6-4.4-2.7-7.1
		s-2-4.8-2.7-6.2L206.4,73.5z"/>
	<path class="st0" d="M238.7,89.9c0.7-0.2,1.7-0.4,3-0.6s2-0.3,2.3-0.3c0.9,0,1.5-0.2,1.8-0.4c0.1-0.5,0.2-1,0.2-1.4l-0.1-4.4
		l0.2-4.4v-2.8v-3.4l-0.1-3.6l0.1-7.6v-3.5V57c-0.2-2.4-0.3-3.7-0.5-4c-0.1-0.2-0.8-0.5-2-0.9c-0.1,0-0.5-0.2-1.3-0.5
		c-0.6-0.2-1.1-0.4-1.5-0.5c-0.8-0.2-1.4-0.4-1.7-0.7c0-0.6-0.1-1-0.1-1.4c0-0.2,0-0.5,0-0.8c0.2-0.1,0.4-0.2,0.6-0.2
		c0.5,0,2.5,0.1,5.9,0.3h4.9l3.6,0.1c1.6,0,3.6-0.1,6-0.3c0.7-0.1,1.2-0.1,1.3-0.1c0.3,0,0.6,0.1,0.7,0.3c0.2,0.2,0.3,0.7,0.3,1.4
		c0,0.5-0.1,0.9-0.4,1.2c-0.1,0.2-0.6,0.3-1.5,0.4l-4.2,1c-0.1,0-0.3,0.1-0.6,0.3c-0.1,0.2-0.2,0.3-0.2,0.4v1l-0.1,2.2v0.6v0.4
		c0,0.1,0,0.7-0.1,1.9c0,0.3,0,0.6,0,0.9c0,0.4,0,1,0.1,1.8c0.1,1.4,0.1,2.6,0.1,3.6c0,1.2,0,2.5-0.1,4.1c0,0.6,0,1.3,0,2.2
		l-0.1,16.2c0,0.7,0.1,1.1,0.3,1.3l3.2,0.1h2h2.2c3.7,0,6.6-0.4,8.6-1.3c1.6-0.6,2.6-1.3,3.1-1.9c0.8-0.7,1.4-1.4,1.9-2.2
		c0.5-0.8,1-2.1,1.7-4h1.1c0.5,0,1.2,0,1.8,0.1v1c0,1.6-0.2,4.5-0.6,8.6c-0.2,1.6-0.3,2.6-0.5,3c-0.5,0.1-0.9,0.1-1,0.1h-1h-1.8
		c-0.2,0-1.6-0.1-4.1-0.3c-0.5,0-2.6-0.1-6.5-0.2s-7.7-0.2-11.5-0.2l-7,0.2c-2.7,0.1-5.2,0.2-7.6,0.4H239c-0.1,0-0.4,0-0.6,0
		c0-0.3-0.1-0.5-0.1-0.6C238.4,91,238.5,90.3,238.7,89.9z"/>
	<path class="st0" d="M283,92.7l0.1-2.3c2.8-0.4,4.7-0.9,5.4-1.7c0.5-0.5,0.9-2,1.2-4.3l0.4-12.2l0.5-12.4c0-0.8,0.1-1.2,0.1-1.4
		c0-3.2-0.2-5.1-0.6-5.6s-1.8-1-4.4-1.5c-0.6-0.1-1.1-0.3-1.5-0.3c0-0.6-0.1-1-0.1-1.4v-1.1c0.8-0.1,1.8-0.1,3-0.1l10,0.3
		c0.2,0,0.5,0,1,0.1l1.6,0.1c0.4,0.5,0.8,1.1,1.2,1.8c0.8,1.7,1.9,4.1,3.3,7.3l0.4,0.9l5.3,11.6c0.1,0.3,0.3,0.7,0.6,1.2
		c0.4,0.8,0.7,1.6,1.1,2.3s0.7,1.6,1.1,2.4c0.4,0.9,0.8,1.7,1.1,2.4c0.3-0.5,0.6-1.2,0.9-1.8c0.9-2.1,1.8-4,2.7-5.8
		c1.5-3.1,3.5-7.8,6.1-14.2c0.4-1,1.1-2.6,2-4.6c0.9-2.1,1.5-3.1,1.6-3.3c0.2-0.2,0.6-0.3,1.2-0.3c0.2,0,0.6,0,1.1,0
		c1.2-0.1,2.6-0.1,4.3-0.2c2.4,0,4.3-0.1,5.8-0.2c1.4-0.1,2.3-0.2,2.4-0.2c0.2,0,0.5,0,0.8,0.1c0,0.3,0,0.6,0,0.8l-0.1,1
		c0,0.2,0,0.5,0,0.9c-2.1,0.3-3.9,0.8-5.2,1.4c-0.9,0.5-1.4,1-1.4,1.7v0.5l0.6,10.5c0.1,1,0.3,5.7,0.6,14.3c0.1,1.9,0.2,4.3,0.4,7.3
		c0,0.4,0.1,0.6,0.1,0.9c0,0.5,0.1,0.9,0.4,1.1c0.2,0.2,2.3,0.8,6.1,2c0,0.4,0,0.6,0,0.8c0,0.5,0,1,0,1.4c-0.6,0-2.2-0.1-4.6-0.4
		c-2.5-0.3-4.8-0.4-7-0.4c-3.3,0-6.5,0.1-9.6,0.4c-0.4,0-0.8,0.1-1.2,0.1l0.1-2.4c0.9-0.4,2.2-0.7,3.7-0.9c1.1-0.2,1.8-0.5,2.1-0.9
		s0.4-1.6,0.4-3.6c0-0.8,0-1.4,0-2c-0.1-2.4-0.2-5.7-0.2-10l-0.6-12.1c-0.1-1.7-0.1-2.9-0.2-3.6l-8.5,19.6c-0.2,0.5-0.5,1.1-0.9,2
		c-0.5,1.1-0.9,1.9-1.1,2.3c-1.8,4.2-3,7.4-3.7,9.7c-0.2,0.6-0.5,1.3-0.8,2.2h-2.6l-1.8-5.2c-0.5-1.4-1.5-3.4-2.8-6.2
		c-0.8-1.6-1.4-2.9-1.8-3.9c-0.2-0.4-0.4-0.7-0.4-0.9l-0.4-0.9c0-0.1-0.1-0.3-0.1-0.3l-5.1-11l-3.1-6.7L293.7,74l-0.2,10.5
		c0,1.7,0.3,3,1,3.7c0.6,0.7,2,1.4,4.2,1.9l1.6,0.4V93c-1.3,0-2.7-0.1-4.3-0.3c-1.5-0.2-3.5-0.3-6-0.3
		C289.2,92.4,286.9,92.5,283,92.7z"/>
	<path class="st0" d="M347.1,48.5c1.3,0.1,2.4,0.2,3.4,0.3c1.8,0.3,3.9,0.4,6.3,0.4c0.8,0,2.9-0.1,6.3-0.2c5.1-0.2,9.7-0.3,13.8-0.3
		l6.2-0.1c1.4,0,3.4,0.2,6.2,0.5c0.4,0.5,0.6,1.1,0.6,1.8v7l0.1,1.4c0,0.1,0,0.3,0,0.6l-1.4,0.1c-0.2,0-0.6,0-1.2-0.1
		c-0.2-0.5-0.5-1.1-0.8-2l-1.4-2.4c-0.5-1-1.3-2.1-2.2-3.1c-0.6-0.2-1.3-0.3-2.2-0.3c-0.2,0-0.9-0.1-2.1-0.2
		c-2.1-0.2-4.4-0.3-6.8-0.3c-2.8,0-5.3,0-7.5,0.1c-0.1,0.6-0.1,2.8-0.1,6.7v5.7v4.3c0.6,0.1,1.1,0.1,1.5,0.1c4.1,0,7-0.1,8.7-0.2
		c1.7-0.2,2.8-0.4,3.2-0.7c0.4-0.3,0.8-0.8,1.1-1.5c0.2-0.5,0.6-2.2,1.2-5h0.4h2c0.1,2,0.1,3.6,0.1,4.6c0,2.4,0,3.9-0.1,4.6
		s-0.1,1.2-0.1,1.6c0,0.6,0,1.6,0.1,3s0.1,2.4,0.1,3v0.8h-2.4c-0.1-0.4-0.3-1.1-0.5-2.3c-0.5-2.1-0.9-3.4-1.2-4
		c-0.3-0.4-0.7-0.7-1.4-0.9c-0.5-0.2-2.1-0.2-5.1-0.2c-3.4,0-6,0.1-7.8,0.3c0,0.6,0,1,0,1.2c0,2.7,0,5,0.1,6.8l-0.1,7.4
		c0,0.9,0.3,1.5,0.9,1.8c0.9,0.5,3.8,0.7,8.6,0.7c3.2,0,5.9-0.2,8.1-0.7c1.5-0.3,2.9-1.1,4-2.3c1.5-1.5,2.8-3.7,3.9-6.4
		c0.7-0.1,1.3-0.1,1.7-0.1c0.3,0,0.6,0,1.1,0c-0.1,0.6-0.1,1-0.2,1.4l-0.2,1l-1.2,6.5l-0.6,3.9c-1.5,0.1-2.7,0.1-3.5,0.1
		c-1.3,0-4.7-0.1-10.2-0.3c-3.9-0.2-8.6-0.2-14.1-0.2c-2.7,0-6.1,0.1-10.1,0.3h-1.4l-4.1,0.1v-2.4c0.4-0.1,1.3-0.2,2.6-0.4
		c2.4-0.3,4-0.6,4.9-1.1c0.3-0.7,0.4-1.5,0.4-2.5c0-0.4,0-1,0-2v-1.1l-0.1-12.9v-3.9l-0.2-5.5v-3.9l-0.3-4.2c0-0.1,0-0.3-0.1-0.7
		c-0.2-0.3-0.6-0.4-1-0.5c-0.3,0-0.6-0.1-1-0.2c-1.3-0.3-2.6-0.4-3.8-0.5c-0.4,0-0.9-0.1-1.5-0.1L347.1,48.5z"/>
</g>
<path id="path9013_8_" class="st1" d="M20,20.3v0.8v103v0.8h0.8h91.3h0.8v-0.8v-103v-0.8h-0.8H20.8H20z M110.7,21.8h0.6v100.5
	c-0.1,0.5-0.5,0.6-2.1,0.7c-0.7,0.1-6.5,0.1-14.9,0.2H21.7c0-0.1-0.1-0.4-0.1-0.7V71.3c0-2.7,0.1-5.6,0.1-8.9
	c0.1-9.4,0.2-22.2,0.2-28.7L22,22.2l4.5-0.1C29,22,49.1,22,71,22L110.7,21.8L110.7,21.8z M67.1,23.2c-18.9,0-38,0-40.3,0h-3.1
	l-0.2,1.7c-0.4,4-1,86.3-0.6,92.7l0.2,4.2l6.7,0.2c10.8,0.4,67.1,0.2,77-0.1l3.3-0.1V120c0-1,0.1-13,0.1-26.9
	c0-15.1,0-21.2,0.1-23.6v-2.3l-0.1-1.4c-0.2-1.4-0.1-5.9-0.1-20.9l0.1-21.8h-3.5C104.8,23.3,86,23.2,67.1,23.2z M80.6,24.7
	c0.2,0,0.8,0.2,1.7,0.6c1.3,0.7,2.7,1.7,5.2,3.8c0.7,0.6,1.4,1.1,1.5,1.1c0.4-0.4-0.2-2-1.1-3.2c-0.5-0.7-0.8-1.3-0.7-1.3
	c0.6-0.6,4,2.6,5.1,4.9c0.5,0.8,0.8,1.5,0.8,1.4c0,0,0.2-1,0.4-1.9c0.2-1.2,0.5-1.9,1-2.3c1-0.8,1.1-0.6,0.5,0.7
	c-0.4,0.8-0.6,1.4-0.4,2c0.2,1,1.7,2.4,2.6,2.4c0.5,0,0.6,0.1,0.4,0.5c-0.1,0.2-0.2,1.1-0.2,1.7s-0.1,1.1-0.2,1.1s-0.8-0.5-1.7-1.1
	C94.8,34.5,94,34,93.8,34s-0.8-0.5-1.5-1.2c-1.4-1.3-2.1-1.5-1.5-0.6c0.2,0.4,1.2,1.1,2.4,1.8c3.1,1.9,5,4.2,3.7,4.2
	c-0.2,0-0.5,0.2-0.6,0.5c-0.1,0.2-1.1,0.6-2.4,0.8c-2.9,0.6-3.8,0.5-5.6-0.2c-2.9-1.3-2.6-1.9,0.5-1.9c2,0,2.1-0.5,0.2-0.7
	c-1.3-0.2-8.2,0.1-7.7-0.6c1.2-1.4,1-1.7-1.2-1.3c-0.8,0.1-2.5,0.1-3.6,0s-2.1-0.2-2.3-0.1c-0.1,0-0.2-0.1-0.1-0.4
	c0.1-0.4,1.9-1.2,4.2-1.7c0.7-0.1,1.2-0.5,1.2-0.6c0-0.4-2.7-1.2-4.3-1.2c-0.7,0-2,0.2-2.9,0.5c-2.1,0.6-3.9,0.4-6.4-1
	c-2.9-1.5-3.2-1.4-7.3,0.4c-2,1-5.7,0.2-7.5-1.3c-1.3-1.2-2.9-1.4-4.6-0.8c-1.9,0.6-3.7,0.7-4.2,0.2c-0.2-0.2-0.1-0.4,1-0.4
	c0.7,0,1.8-0.2,2.5-0.6c1.7-0.8,3.1-0.6,6.1,1c3.1,1.5,4.9,1.7,7.1,0.1c2.3-1.4,3.7-1.8,6.2-1.3c1.2,0.2,3.1,0.5,4.3,0.7l2.1,0.4
	l1.2-1c2.1-1.8,4-2.1,6.5-1.2c0.8,0.4,1.5,0.5,1.5,0.5c0.1-0.1-0.1-0.5-0.4-1C80.3,25.2,80.2,24.7,80.6,24.7z M107.7,26.4
	L107.7,26.4c0.5,0.2,0.4,2.3-0.1,3.1c-0.6,1.1-0.5,1.4,0.6,1.7c1.2,0.2,1.2,0.6,0,1.2c-0.5,0.2-1.4,1.1-2,1.8
	c-0.7,0.7-1.3,1.3-1.7,1.3c-0.6,0-2.7-1.5-2.6-2c0-0.1,0.5-0.5,1-0.8c1.1-0.8,1.8-2.5,1.5-3.9c-0.1-0.6-0.1-0.8,0.1-0.7
	c0.1,0.1,0.4,0.7,0.5,1.4l0.2,1.2l1-1.2c0.5-0.6,1.1-1.5,1.3-2.1C107.3,26.7,107.6,26.4,107.7,26.4z M76.5,28.5
	c-0.4,0-0.5,0-0.6,0.1s0.7,0.4,2,0.5c1.4,0.1,2.7,0.5,3.8,1c1.8,0.8,7.5,4.3,10.8,6.3c1.2,0.8,2.4,1.4,2.6,1.4
	c0.7,0-1.9-1.9-4.3-3.1c-1.4-0.7-3.6-2-4.8-2.9c-3.8-2.5-4.5-2.9-7.3-3.2C77.9,28.5,77.1,28.4,76.5,28.5z M104.2,32.7
	c-0.1,0.1,0.1,0.4,0.5,0.7c0.5,0.4,1,0.7,1,0.6C105.9,33.9,104.7,32.7,104.2,32.7C104.2,32.8,104.2,32.7,104.2,32.7z M99.5,33.1
	c0.7,0,1.7,0.6,2.5,1.5c0.4,0.5,1.2,1,1.7,1.2c2,0.8,2.4,1.8,1.4,3.2c-0.5,0.6-0.8,0.8-1.8,0.8c-2,0-4.5-1.9-5-3.7
	c-0.4-1.3,0.1-2.6,0.8-3C99.4,33.1,99.4,33.1,99.5,33.1z M98.3,39.2l1.9,3.9c2.1,4.5,2.6,5.7,3.2,8c0.5,1.8,0.8,2.4,0.6,0.7
	c-0.4-2.1-1.3-4.8-3-8.3c-1-2-1.7-3.9-1.7-4.2c0.1-0.5,2.4,2.7,3.1,4.4c0.2,0.7,1,2.4,1.4,3.7c0.5,1.4,1,2.4,1,2.1
	c0.2-0.6-0.8-3.6-2.1-6.2c-0.7-1.4-1.2-2.6-1.2-2.7c0-0.2,2.6-0.2,3.1,0c0.4,0.2,2.1,4.2,2.5,5.5c0.1,0.6,0.1,0.8-0.4,1
	c-0.7,0.2-0.7,0.7-0.1,1c0.7,0.2,1.4,1.9,1,2.3c-0.5,0.5-0.4,1.2,0.4,1.9c0.8,0.8,1,1.2,0.1,1.2c-0.6,0-0.6,0,0,1.3
	c0.7,1.7,0.7,4.3,0.1,5.5c-0.2,0.6-0.4,1.1-0.2,1.5c0.6,1.7,0.8,3.3,1,6.5c0,1.9,0.1,3.5,0,3.5s-0.2-0.4-0.4-0.7
	c-0.1-0.4-0.6-1.4-1-2.4c-1.1-2.4-1.7-4.5-1.7-6.7c-0.1-2.4-0.1-2.4-0.4-2.4c-0.1,0-0.5,0.5-0.6,1.1l-0.5,1.2l-0.2-0.8
	c-0.1-0.5-0.1-2.1-0.1-3.7c0.1-2.6,0.1-2.7-0.4-2.7c-0.6,0.1-1.4-0.6-1.4-1.2c0-0.2-0.1-1-0.2-1.5c-0.2-1.1-0.4-1.1-0.8-0.6
	c-0.5,0.5-0.6,0.5-1-0.5c-0.4-0.7-0.5-1.8-0.6-3.6c0-1.4-0.1-2.7-0.2-2.7c-0.1-0.1-0.5,0.1-0.8,0.4c-0.6,0.4-1,0.5-1.4,0.2
	c-0.6-0.2-0.7-0.5-0.5-1.1c0.2-0.8,0-1-0.8-0.2c-0.7,0.6-2.9,0.6-3.1,0c-0.1-0.2-0.1-0.6,0-0.7c0.4-0.6,2.3-1.2,3.1-1l0.8,0.1
	L96,41.8c-0.5-0.2-0.7-0.6-0.7-0.7c0-0.5,1.4-1.3,2.4-1.4L98.3,39.2z M104.9,50.5c-0.1,0-0.1,0.8,0.4,3.3c0.1,0.5,0.2,1,0.4,1
	C106,54.8,105.4,50.9,104.9,50.5C105.1,50.5,105.1,50.5,104.9,50.5z M108.9,72.3C109,72.3,109,72.3,108.9,72.3
	c0.1,0.1,0.1,0.4,0.1,0.6c-0.1,0.2-0.1,0.1-0.2-0.1C108.9,72.5,108.9,72.4,108.9,72.3z M109,74C109,74,109,74,109,74
	c0.1,0.3,0.1,0.9,0,1.3c-0.1,0.4-0.1,0.1-0.1-0.5C108.9,74.3,108.9,74,109,74z M108.4,79.4c0.1,0,0.1,0.1,0.1,0.5
	c0,0.7-0.1,0.8-0.4,0.5c-0.1-0.1,0-0.5,0.1-0.7C108.3,79.6,108.4,79.4,108.4,79.4z M25.9,80.4c0,0,0.1,0.1,0.2,0.2
	c0.2,0.4,0.8,1.2,1.5,1.8c2,2.1,2.7,3.3,3.1,5.1c0.2,1.2,0.4,2,0.1,2.7c-0.4,1.3-0.4,3,0,3c0.1,0,0.4-0.2,0.5-0.5
	c0.1-0.2,0.2-0.5,0.4-0.5c0.5,0,0.5,1.4,0.1,3.5c-0.6,2.7-0.6,2.6,0.6,1.9c0.6-0.4,1.1-0.6,1.2-0.6c0.1,0,0.1,0.5,0,1.1
	c-0.2,1.2-1.2,3-1.9,3.7c-1.1,1-0.2,1.7,0.8,0.7c0.6-0.5,1.5-0.6,1.5-0.2c0,0.1-0.4,0.7-0.7,1.4c-0.6,1.1-0.7,1.4-0.4,1.7
	c0.4,0.5,0.1,1.8-0.7,3.9c-0.4,0.8-0.5,1-0.7,0.7c-0.4-0.6-0.5-0.4-0.6,1.1c-0.1,0.7,0,1.2,0.2,1.3c0.2,0.1,0.4-0.1,0.4-0.6
	c0-0.4,0.2-1,0.5-1.1c1.4-1.4,2-4,2.4-5.1h1.5c-0.5,1.5-1.5,4.4-1.8,4.9c-0.2,0.5-0.5,0.8-0.5,1c0,0.1,0.5,0.2,1,0.4
	c0.6,0.1,1,0.2,1,0.5c0,0.1-0.7,1-1.4,1.9c-1.4,1.5-2.6,2.3-3,1.9c-0.2-0.2-1.2,0.7-1.2,1.1c0,0.5,1,0.2,3.5-1
	c1.4-0.6,2.9-1.2,3.3-1.2c0.5,0,1.1-0.2,1.3-0.5c0.6-0.7,2.3-2.6,1.8-1.1c-0.2,1-0.4,1.8-0.4,1.9c0,0,1,0,2-0.2c1.1-0.1,2-0.2,2-0.1
	c0.1,0.1-0.2,0.6-0.8,1.1c-0.7,0.6-0.8,0.8-0.5,1c0.5,0.2,4.3-0.6,5.1-1.1s1-0.1,0.2,0.5c-0.4,0.2-0.6,0.6-0.6,0.8
	c0,0.4,3.3,0,4.9-0.5c0.7-0.2,1.2-0.4,1.3-0.2c0.1,0.1,0,0.6-0.4,1.2c-0.2,0.6-0.5,1.2-0.5,1.3c0,0.5,0.6,0.4,1.3-0.4
	c0.6-0.6,1-0.7,4.5-0.7c3.3,0,3.8,0.1,4.2,0.5c0.2,0.2,0.6,0.5,0.8,0.5s0.7,0.1,1.1,0.4c0.4,0.2,1.3,0.6,2.1,0.8
	c0.8,0.2,1.7,0.6,1.7,0.7c0.4,0.8-4.8,1.2-7.4,0.6c-1-0.2-3.1-0.5-4.8-0.5c-2.9-0.1-2.9-0.1-3.8-1c-1.5-1.5-1.9-1.2-1.2,1
	c0.1,0.4,0,0.5-0.4,0.5c-1,0-3.2-0.8-4.4-1.5c-1.2-0.8-2.7-1.3-2.7-0.8c0,0.1,0.2,0.8,0.4,1.3c0.2,0.6,0.4,1.2,0.2,1.2
	c-0.4,0.2-3.8-0.8-5.4-1.5c-1.3-0.7-2.4-0.8-2.6-0.4c-0.1,0.1,0,0.6,0.2,1c0.2,0.5,0.4,0.8,0.2,1c-0.4,0.4-3.2,0.1-4.2-0.2
	c-1-0.4-1.1-0.4-1.7,0c-0.5,0.4-1,0.5-1.9,0.2c-0.6-0.1-1.7-0.1-2.4,0.1c-0.6,0.1-1.3,0.2-1.3,0.1c-0.1-0.1-0.1-0.8-0.1-1.5
	c0-1.3,0-1.4,0.8-1.8c1-0.4,1-0.7,0.4-2.5c-0.1-0.5,0-1,0.6-1.5c0.4-0.5,0.7-1.1,0.7-1.2c0-0.2-0.5-1-1-1.5
	c-0.5-0.7-1.1-1.5-1.3-1.9c-0.4-0.8-0.5-8.3-0.1-8.3c0.1,0,0.6,0.5,1,1c0.7,1,1.1,1.4,1.4,1.4c0.4,0,0.2-1.9-0.2-3.7
	c-0.5-1.8-0.4-3,0.4-5.6c0.4-1.3,0.4-1.8,0.1-2c-0.5-0.5-0.4-3,0.1-4.2c0.7-1.8,0.6-3-0.5-4.3c-0.6-0.7-1-1.5-1.1-2.3
	C25.9,80.7,25.9,80.4,25.9,80.4z M108.4,81.7c0,0,0.1,0.1,0.1,0.2c0.1,0.4,0.1,1.3,0.1,2c-0.1,0.7-0.2,1.4-0.5,1.5
	c-0.2,0.1-0.2,0-0.1-0.4c0.1-0.2,0.2-1.3,0.2-2.1C108.3,82,108.3,81.7,108.4,81.7z M105.2,84.4c0.4,0,0.6,0.6,0.7,2
	c0.1,1,0.2,2.9,0.5,4.3c0.2,1.4,0.2,3.5,0.1,4.4c-0.2,2.5-1.2,6.1-1.8,6.4c-0.4,0.2-0.4,0.4-0.2,0.6c0.5,0.6,0.5,1.4,0.1,2.3
	c-0.2,0.5-0.2,1.1-0.2,1.3c0.2,0.5,0.2,0.5,0.6-0.1s0.4-0.5,0.2,0.5c-0.4,2-1.3,3.6-2.4,3.9c-0.6,0.2-1.7,0.7-2.4,1.1
	c-1.3,0.7-1.4,0.8-1.3,1.8c0,0.6,0,1.3-0.1,1.7c-0.2,0.7-0.4,0.6-1.8-1.2l-1.5-1.8l-1.3,0.1c-0.7,0.1-1.7,0.2-2.1,0.4
	c-0.7,0.1-0.7,0,1.2-1.9c1.9-1.9,2.4-2.7,1.8-2.7c-0.1,0-0.5,0.2-0.8,0.6c-0.2,0.4-1.1,1.1-1.8,1.4l-1.2,0.8l-0.1-0.7
	c-0.1-1.1,0.4-2,1-1.9c0.2,0.1,0.6,0,0.6-0.2c0.1-0.2,0.4-0.4,0.6-0.2c0.4,0.1,0.5-0.1,0.6-0.7c0.2-1.1,0.6-1.2,0.7-0.4
	c0.1,0.2,0.1,0.1,0.1-0.5c0-1.4,0.4-2.4,0.7-2.4c0.1,0,0.2,0.2,0.1,0.5c-0.4,0.7-0.2,1.9,0.1,2.3c0.2,0.2,0.4,0.2,0.2-0.4
	c-0.1-0.7,0.2-3.1,0.7-3.5c0.2-0.2,0.2,0.1,0.1,1.1c-0.1,1.2-0.1,1.3,0.2,0.7c0.2-0.4,0.5-0.8,0.5-1.1s0.1-0.6,0.2-0.7
	s0.2,0,0.2,0.2s0.1,0.5,0.2,0.5s0.2-0.4,0.2-0.7c0-0.4,0.1-0.7,0.2-0.7s0.2,0.5,0.1,1.1s-0.1,1.1,0,1.1c0.2,0,1-1.8,0.8-2
	c-0.2-0.4,1.1-0.7,2.1-0.5c0.6,0.1,0.8,0.1,0.7-0.2c-0.1-0.6-2.5-0.6-3.8-0.1c-1.4,0.6-1.7,0.6-1.1-0.4c0.5-0.7,0.7-0.8,2.7-0.7
	c1.2,0,2.1-0.1,2.1-0.2c0-0.5-1.1-0.6-2.6-0.5c-1.2,0.1-1.4,0.1-1.4-0.2c0-0.6,0.7-1.1,1.4-0.8c0.2,0.1,0.6,0,0.7-0.2s0-0.4-0.4-0.4
	c-0.7,0-0.7-0.1,0.1-1.4c1-1.5,1.9-4.2,2.9-7.6c0-0.2,0.4-0.4,0.7-0.4c0.4,0,0.6-0.1,0.7-0.4c0.1-0.1-0.1-0.2-0.4-0.2
	c-0.4,0-0.6-0.2-0.6-0.6s0.1-0.6,0.4-0.6c0.2,0,0.5-0.1,0.5-0.4c0-0.1-0.1-0.2-0.2-0.2c-0.4,0-0.4-1.1,0-1.3
	C104.9,84.4,105.1,84.4,105.2,84.4z M105.2,89.4c-0.4,0-0.6,0.1-0.6,0.2s0.2,0.4,0.6,0.4s0.6-0.1,0.6-0.4
	C105.7,89.5,105.4,89.4,105.2,89.4z M105.1,91.4c-0.4,0-0.7,0.1-0.7,0.2s0.4,0.2,0.7,0.2c0.4,0,0.7-0.1,0.7-0.2
	C105.7,91.6,105.4,91.4,105.1,91.4z M104.6,93.6c-0.4,0-0.6,0.1-0.6,0.2s0.2,0.4,0.6,0.4s0.6-0.1,0.6-0.4
	C105.2,93.7,104.9,93.6,104.6,93.6z M103.8,95.6c-0.4,0-0.5,0.1-0.4,0.4c0.1,0.1,0.4,0.2,0.6,0.2s0.4-0.1,0.4-0.2
	C104.4,95.7,104,95.6,103.8,95.6z M102.9,97.6c-0.5,0-0.8,0.1-0.8,0.2s0.4,0.4,0.8,0.4s0.8-0.1,0.8-0.4
	C103.8,97.9,103.4,97.6,102.9,97.6z M101.4,101.8c0,0-0.2,0.2-0.5,0.7c-0.4,0.6-0.6,1.5-0.6,2c0.1,1.3,0.4,1.1,0.6-0.4
	c0.1-0.7,0.2-1.5,0.4-2C101.4,101.9,101.4,101.8,101.4,101.8z M102.5,102.8c-0.2,0-0.5,0.1-0.7,0.4c-0.4,0.4-0.4,2.1-0.1,2.7
	c0.1,0.1,0.2,0.1,0.2-0.1c0.1-0.2,0.4-0.8,0.5-1.3c0.2-0.5,0.4-1.1,0.4-1.3C102.9,102.8,102.7,102.8,102.5,102.8z M104,103.1
	c-0.1,0-0.2,0.1-0.5,0.4c-0.4,0.4-0.6,1-0.6,1.5s0.1,1,0.1,1c0.1,0,0.5-1,0.8-2.3C104,103.2,104,103,104,103.1z M98.3,105.5
	l-1.5,1.8c-1.3,1.5-1.7,2.5-1,2.5c0.1,0,0.6-0.4,1.1-0.8c0.5-0.5,1-0.8,1.2-0.8s0.4,0.1,0,0.4c-0.6,0.6-0.4,1,0.5,1.3
	c0.5,0.1,0.8,0.4,0.8,0.4c0.4,0.1,1.2-0.6,1.2-1.1c0-0.2,0.2-0.4,0.5-0.4c0.2,0.1,0.6-0.1,1-0.6c0.6-0.7,0.6-0.8,0.1-1.3
	c-0.2-0.2-1.2-0.7-2.1-0.8L98.3,105.5z M90.8,109.2c0.1,0,0.2,0.4,0.1,0.8c-0.1,0.5-0.4,1-0.5,1.1c-0.2,0.2-0.2,0-0.1-0.5
	c0.1-0.4,0.1-1,0.1-1.1S90.6,109.2,90.8,109.2z M98.2,109.9L98.2,109.9c-0.2,0.1-0.4,0.4-0.4,0.5s0.1,0.2,0.2,0.2s0.2-0.2,0.2-0.5
	C98.4,110,98.3,109.9,98.2,109.9z M89.2,110.1C89.4,110.1,89.4,110.1,89.2,110.1c0.2,0,0.4,0.2,0.2,0.6c-0.2,0.5-1,1-1,0.6
	c0-0.1,0.2-0.5,0.4-0.8C89,110.2,89.1,110.1,89.2,110.1z M100.5,110.2c-0.1,0-0.5,0.1-0.7,0.2c-0.5,0.2-0.8,0.5-0.8,0.6
	c0,0.2,0.6,0.1,1.2-0.1c0.4-0.1,0.6-0.5,0.6-0.6C100.7,110.4,100.5,110.2,100.5,110.2z M102.2,111.1
	C102.3,111.1,102.3,111.1,102.2,111.1c0.1,0.2-0.1,0.5-0.2,0.6c-0.2,0.1-0.5,0.1-0.5,0.1s0.2-0.2,0.5-0.5
	C102,111.2,102.1,111.1,102.2,111.1z M87.6,111.3c0.1,0-0.1,0.2-0.4,0.6c-0.5,0.5-1.8,0.8-1.8,0.5C85.4,112.2,87.3,111.3,87.6,111.3
	z M103.5,111.4c0.1,0,0.1,0,0.2,0.1c0.2,0.2,0.2,0.4-0.1,0.4c-0.6,0-1.7,1.4-1.4,1.8c0.1,0.1,0.7-0.2,1.3-0.8
	c1.1-1.1,1.1-1.1,1.5-0.6c0.7,0.8,2.3,3.2,2.5,3.8c0.1,0.4,0,0.7-0.4,1.1c-0.7,0.7-1.1,0.7-2.6-0.5c-0.7-0.6-1.5-1.1-1.7-1.1
	c-0.2-0.1,0.1-0.6,0.8-1.4c0.7-0.7,1.2-1.3,1.1-1.4c-0.4-0.4-1.3,0.4-2,1.4l-0.7,1.2l-0.1-0.8c-0.1-0.5-0.2-1.1-0.2-1.3
	C101.5,112.7,102.9,111.4,103.5,111.4z M87.3,113L87.3,113c1.1,0.2,1.8,3.1,0.9,3.5c-0.2,0.1-0.5,0.4-0.5,0.6s-0.5,0.7-1.1,1.2
	c-1.2,0.8-2.6,1.1-4.5,0.5c-0.6-0.1-1.7-0.2-2.5-0.2h-1.5l1.3-0.5c0.7-0.2,1.8-0.4,2.5-0.4c1.5,0,3.6-0.6,3.1-1
	c-0.2-0.1-0.7-0.1-1.2,0c-1.2,0.2-0.7-0.2,1.1-0.8c0.8-0.4,1.1-0.5,0.7-0.4l-0.8,0.1l0.7-0.6l0.7-0.6l-0.7,0.1
	c-0.4,0.1-1.2,0.2-1.7,0.4c-1,0.1-1,0.1-0.2-0.1c0.4-0.2,1.3-0.6,2.1-1.1C86.3,113.1,87,112.9,87.3,113z M93.5,113.7
	c0.2,0,0.5,0.4,0.8,1.1c0.2,0.6,1,1.7,1.7,2.3c1.2,1.3,2.9,1.9,4.9,1.9c0.4,0,0.7,0.1,0.7,0.2c0,0.5-3.7,0.4-4.8-0.1
	c-1.8-0.8-4-3.9-3.7-5C93.2,113.8,93.3,113.7,93.5,113.7z M90.2,114.2c0.1,0,0.5,0.7,0.8,1.5c0.4,0.8,1.1,2,1.5,2.6
	c0.5,0.6,1,1.2,1,1.4s-0.4,0.4-0.8,0.2c-0.5,0-0.6-0.1-0.5-0.2c0.6-0.2,0.4-0.7-0.2-0.7c-0.4,0-0.6-0.1-0.5-0.5
	c0.1-0.2,0-0.5-0.1-0.5s-0.2-0.2-0.2-0.6c0-0.5-0.1-0.6-0.6-0.5s-0.5,0.1-0.2-0.1c0.5-0.5,0.4-0.8-0.1-0.8c-0.4,0-0.4-0.1-0.2-0.5
	c0.1-0.2,0-0.6-0.1-0.7C89.6,114.9,89.7,114.2,90.2,114.2z M104.7,114.2c-0.5,0-1.5,0.8-1.5,1.2c0,0.4,0.2,0.2,1.2-0.5
	C104.9,114.4,105.1,114.2,104.7,114.2z M82.3,114.8c0.2,0,0.4,0.1,0.1,0.4c-0.4,0.4-2,1-2,0.7c0-0.1,0.4-0.4,0.8-0.6
	C81.6,115,82.1,114.9,82.3,114.8z M105.5,114.8c-0.6,0-1.2,0.5-1.2,1.1c0,0.5,0.8,0.1,1.4-0.6C106,114.9,106,114.8,105.5,114.8z
	 M105.7,116c-0.4,0-0.6,0.1-0.6,0.4s0.2,0.2,0.4,0.2c0.2,0,0.5-0.1,0.6-0.2C106.3,116.2,106,116,105.7,116z M76,116.9
	c0.5,0,0.6,0.2,0.6,0.6s0.1,0.6,0.4,0.5c0.2-0.1,0.6-0.2,1-0.4c0.5-0.1,0.5-0.1,0.1,0.1c-0.2,0.1-0.4,0.4-0.1,0.4
	c0.1,0,0.1,0.1-0.1,0.2c-0.6,0.5-2.1,0.4-3.1-0.1c-0.5-0.2-1.5-0.5-2.5-0.6c-1.5-0.1-1.7-0.1-2.5,0.7c-1,1-1.3,1.1-2.6,0.5l-0.8-0.4
	h1.2c0.7,0,1.4-0.2,1.8-0.6c0.7-0.7,1.9-1,3.6-0.7c0.7,0.1,1.7,0.1,2,0C75.4,117,75.8,116.9,76,116.9z M29.4,117.4
	c-0.1,0-0.4,0.1-0.6,0.2c-0.4,0.2-0.5,0.5-0.2,0.5C28.9,118.1,29.6,117.5,29.4,117.4L29.4,117.4z M39.5,117.4c-1,0-2.7,0.2-3,0.6
	c-0.1,0.1,0.4,0.1,1,0s1.5-0.2,2.1-0.2c0.7,0,0.8-0.1,0.6-0.2C40.1,117.4,39.9,117.4,39.5,117.4z M56.5,118.2
	c-0.5,0-2.5,1.1-2.5,1.3c0,0.1,0.2,0.2,0.5,0.2C55.1,119.9,56.8,118.5,56.5,118.2L56.5,118.2z M54.1,118.5c-0.5,0-1,0.6-0.8,1
	c0.1,0.1,0.5,0,0.7-0.2c0.4-0.4,0.5-0.6,0.2-0.6C54.3,118.5,54.3,118.5,54.1,118.5z M58.3,118.5c-0.5,0.1-1.8,1-1.8,1.2
	c0,0.1,0.1,0.2,0.1,0.2C56.8,119.9,58.5,118.7,58.3,118.5C58.4,118.5,58.4,118.5,58.3,118.5z M34.2,118.7c-0.4,0-1,0.1-1.4,0.4
	c-0.5,0.2-1.8,0.4-3.1,0.5c-2,0.1-2.4,0.1-2.4-0.4c-0.1-0.5-0.1-0.5-1,0.1c-0.5,0.4-1,0.8-1,1.1c0,0.2,0.1,0.4,0.5,0.1
	c0.2-0.1,1.8-0.4,3.3-0.5c3.1-0.2,4.3-0.5,5.1-1.1C34.8,118.7,34.8,118.7,34.2,118.7z M60.1,118.8c-0.1,0-0.4,0.1-0.7,0.2
	c-0.5,0.2-0.8,0.6-0.8,0.7c0,0.4,0.4,0.4,1.1-0.1C60.3,119.2,60.5,118.8,60.1,118.8z M61.8,119.6c-0.2,0-0.5,0.2-0.6,0.5
	c-0.1,0.2,0.1,0.2,0.4,0.1c0.2-0.1,0.5-0.2,0.5-0.5C62,119.6,61.9,119.6,61.8,119.6z M63.1,120.1c-0.4,0-0.6,0.1-0.6,0.4
	s0.2,0.2,0.4,0.2s0.5-0.1,0.6-0.2C63.7,120.2,63.4,120.1,63.1,120.1z M65.1,42.3c0.1,0,0.5,0.4,1,1c0.7,0.8,1,1,2.7,1.1
	c1.2,0.1,2.4,0.4,3.1,0.7c0.6,0.4,1.5,0.7,2,1c1.8,0.6,3.3,2.6,4,5.4c0.5,1.8,0.4,5.4-0.4,8.9c-0.2,1.3-0.4,2.4-0.4,2.5
	s0.4-0.4,0.7-1c0.4-0.6,0.7-1.1,0.7-1c0.1,0.1-0.5,2.1-0.8,3c-0.7,1.7,1.5,0.1,2.9-2c0.5-0.8,1-1.3,1-1.1c0.1,1.8-0.5,3.6-1.5,4.9
	c-0.8,1.1-1.4,1.4-1.9,1s-1.1,0.1-0.8,0.5c0.1,0.1,0.6,0.5,1.2,0.8c1.7,0.8,1.7,1.2,0.1,2.1c-1.7,1.1-2.1,1.7-3,3.9
	c-0.4,1-0.8,2.3-1.1,2.9c-0.6,1.7-1.7,3.7-2.5,4.8c-0.7,1.1-1.8,3.2-1.4,3.2c0.1,0,0.4-0.5,0.7-1.1c0.8-1.7,3.3-5.2,4.4-6.1
	c0.5-0.5,1.2-0.8,1.5-0.8c1,0,2-0.8,2.3-1.5c0.4-1.2,0.6-1,0.6,0.5c0,1.9-0.8,3.3-2.4,3.8c-2.1,0.7-5.9,3.7-5.9,4.8
	c0,0.1-0.1,0.7-0.4,1.2c-0.4,0.8-0.2,1,0.1,1.3c0.4,0.4,0.4,0.4,0.6-0.1c0.4-0.8,1.4-2.5,2-2.9c0.4-0.2,1.1-0.4,1.5-0.4
	c0.8,0,1.3,0.1,2.9,1.1c0.4,0.1,0.4,0.1,0.2-0.1c-0.1-0.2-0.8-0.7-1.4-1.1c-1-0.6-1.1-0.7-0.6-0.7c0.4,0,0.5-0.1,0.5-0.2
	c-0.1-0.1-0.5-0.4-0.8-0.4c-1,0-1-0.5,0.1-0.8c1.1-0.5,1.5-0.4,2.1,0.2c1.7,1.8,3.2,2,4,0.6c0.7-1.2,0.8-1.1,0.7,0.1
	c-0.5,3.1-2.9,4.4-5.4,2.9c-1.2-0.7-3.1-0.8-3.6-0.2c-0.2,0.4-0.1,0.4,0.5,0.2c1.5-0.4,3,1.3,2.4,2.7c-0.2,0.6-0.6,0.7-0.6,0.2
	c0-0.2,0.1-0.5,0.1-0.5c0.1,0,0.2-0.1,0.2-0.4c0-0.1-0.1-0.2-0.2-0.2s-0.2-0.1-0.4-0.4c-0.1-0.2,0-0.4,0.1-0.2s0.2,0.1,0.1-0.1
	s-0.5-0.4-1.3-0.4c-1.2,0-1.2,0.1-2.1,1.4c-0.5,0.7-1.1,1.4-1.2,1.4c-0.6,0-3.7-2.4-3.7-2.9c0-0.2,0.2-1.1,0.5-1.7
	c0.2-0.7,0.7-2,1-2.9c0.2-1,1-2.6,1.5-3.8c1.3-2.7,4.4-8.1,4.6-8.2c0.5-0.4,1.3-1.5,1.1-1.7c-0.2-0.2-2.7,3.5-4.2,6.1
	c-0.5,0.8-0.8,1.5-1,1.4c0-0.1,0.4-1.4,1-3c1.8-4.8,3.2-10.1,2.5-9.5c-0.1,0.1-0.2,0.5-0.4,1c-0.2,1.1-2.5,8-3.2,9.4
	c-0.8,1.9-1.1,2.3-1.5,3.8c-0.7,1.8-0.8,1.9-1.2,0.7c-0.2-0.8-0.2-1-0.5-0.5c-0.1,0.4-0.1,0.6,0,1c0.7,1.3,0.6,4.4-0.4,6.3
	c-0.7,1.5-1.1,2-1.3,2c-0.5,0-0.5-0.6-0.2-2.1c0.2-1.2,0.2-1.9,0-3c-0.5-3-0.5-3,0-3.5c0.2-0.2,0.7-1,1-1.5c3.6-10,5.4-15.3,5.7-17
	c0.2-1.1,0.5-2,0.6-2c0.1-0.1,0.2,1.1,0.4,3.1l0.1,3.2l0.6-1.7c0.8-2.5,1.1-4,1.1-6.9c0-2.1-0.1-3-0.5-4c-0.5-1.7-1.4-2.7-2.5-3.2
	c-1-0.4-1.5,0-2.6,1.4c-0.7,0.8-0.8,1.2-0.8,2.3c0,2.3,1.3,3.5,2.7,2.5c0.4-0.2,0.2-0.1-0.1,0.5c-0.5,0.6-0.8,0.7-1.5,0.6
	s-1.1-0.4-1.3-0.8c-1.1-2-1.1-2-1,0.2c0.1,1.4,0.2,2.9,0.8,4.8c0.8,3.2,1.2,4.6,1,6.1l-0.1,1l-0.5-0.7c-0.2-0.4-1-1.2-1.5-1.8
	c-1.2-1.2-1.2-1.2-1.5-3.5c-0.2-1.3-0.5-2.3-0.6-2.1c-0.4,0.2-0.1,2.6,0.2,3.6c0.5,1.1,0.6,4.5,0.2,4.5c-0.1,0-0.5-0.6-0.7-1.4
	c-0.5-1.3-0.5-1.7-0.4-4.2c0.1-1.9,0-2.7-0.1-3c-0.2-0.1-0.1-0.7,0.2-2c0.5-1.9,0.8-2.4,0.8-1.1c0,0.4,0.1,1.3,0.2,2
	s0.4,1.7,0.5,2.1c0.1,0.5,0.2,0.7,0.4,0.7c0.1-0.1,0-1.4-0.4-3.1c-0.2-1.5-0.5-3.1-0.5-3.3c0-1.4,3.8-6.2,4.9-6.2
	c0.2,0,0.5-0.1,0.5-0.2c0-0.1-0.4-0.4-0.8-0.4c-0.8,0-1.3,0.4-2.7,2.3c-0.4,0.6-1.2,1.3-1.7,1.8c-0.8,0.6-1,1-1,1.5s-0.5,1.7-1.1,3
	c-1.5,3-1.5,3-1,2.6c0.2-0.2,0.5-0.4,0.6-0.4c0.5,0-0.4,2.5-2,6.5c-0.4,0.7-0.5,1.4-0.4,1.4s0.5-0.6,0.7-1.3s0.7-1.4,0.8-1.7
	c0.4-0.4,0.4-0.2,0.2,0.8c-0.4,2.4,0.5,0,1.1-3.6c0.1-1.1,0.2-0.8,0.2,1.3c0,1.4-0.1,3.3-0.2,4.3c-0.2,1.4-0.1,1.9,0.1,3.1
	c0.2,0.7,0.6,1.7,1,2.1c0.5,0.8,0.5,0.8,0.1,0.8c-0.7,0-1.8-1.8-2-3.6c-0.2-1.4-0.1,0.4-1,1.2c-2.7,2.6-4.5,1.8-6.5-1.9
	c-1.3-2.4-1.2-5,0.4-7.4c1.4-2.3,1.5-3.7,0.4-3.7c-0.5,0-0.6-0.1-0.6-0.5c0.2-1.5,1.8-1.1,2.3,0.6c0.4,1.3,0.4,2-0.1,2.6
	c-0.4,0.6-0.2,1.2,0.2,0.6c0.4-0.5,0.6-0.5,0.6,0.1c0,0.2-0.4,0.8-0.7,1.3c-2.3,2.9-2.3,2.9-2.1,4.3c0.2,2.5,1.3,3.7,1.3,1.4
	c0-1,0.1-1.2,0.5-1.3c0.6-0.2,0.7,0,0.5,0.7c-0.4,0.8-0.4,1.4,0.1,2.6c0.4,0.8,0.6,1,1.2,1c1.1,0,1.2-1.1,1.2-2.5
	c0-0.6-1.3-2.5-1.3-4.2c0-1.2,1.8-3.7,1.9-4.2l0.4-1.9l-1,0.2c-1,0.1-1.3,0.1-1.3-0.5c0-0.1,0.7-0.5,1.3-0.5c1.3,0,1-1.1,1.4-2.1
	c0.5-1,0.7-1.4,1.3-1.5c0.5-0.1,1-0.5,1.2-0.7c0.4-0.5,0.4-0.5,0-0.5c-0.2,0-0.7,0.1-1.2,0.4c-0.8,0.5-2.5,0.5-3-0.1
	c-0.6-0.7-0.4-1.2,0.4-1c1,0.2,2.4-0.6,3.3-1.8c0.8-1,0.8-1.1,2.4-1c1.5,0,2-0.1,2-0.7c0-0.1-0.4-0.2-0.7-0.1
	c-1.7,0.5-3.7-1.2-3.7-3.1C65,42.7,65,42.3,65.1,42.3z M79.4,64.8L79.4,64.8c-0.2,0.1-0.2,0.4-0.2,0.5s0.1,0.2,0.2,0.1
	s0.2-0.4,0.2-0.5C79.5,64.8,79.5,64.8,79.4,64.8z M67.7,71.2c0.1,0,0,0.4-0.5,1.2c-0.7,1.2-1.5,3.9-1.3,4.5c0.1,0.1,0,0.5,0,0.8
	c-0.1,0.8-0.5,0.7-0.8-0.1c-0.4-0.7-0.4-0.8,0-2.3c0.4-1.7,1.1-3,2-3.7C67.5,71.3,67.6,71.2,67.7,71.2z M61,71.8
	c0.1,0,0.1,0.4,0,1.1c-0.2,2.3,0.1,2.9,2,3.5c1,0.2,2.4,2.3,3,4c0.5,1.4,0.6,3.7,0.2,4.4C66,85.3,66,85.1,66,83.5c0-1.3-0.5-3.1-1-4
	c-0.6-0.8-0.7-0.6-0.4,0.5c0.5,1.2,0.8,4.5,0.5,4.8c-0.5,0.4-0.2,1,0.6,1.3c0.7,0.2,0.7,0.4,0.7,1c-0.1,0.8,0,2,0.2,2
	c0.1,0,0.2-0.6,0.2-1.2c0-0.8,0.1-1.2,0.2-1.1s0.2,0.4,0.2,0.7c0,0.4,0,1,0.1,1.4c0.2,1,0.7,1.1,0.6,0.2c-0.1-0.7,0.2-0.8,0.5-0.1
	c0.1,0.2,0.2,0.5,0.4,0.6c0.2,0.1,0.2,0,0.1-0.8c0-1.4,0.1-1.6,1.1-0.8c0.8,0.7,0.8,0.8,0.5,1.7c-0.2,0.6-0.2,1,0.1,1
	c0.1,0,0.2-0.4,0.4-0.7c0.1-0.4,0.4-0.7,0.5-0.7s0.1,0.4,0.1,0.7c-0.1,1,0.4,1.1,0.6,0.1c0.1-0.4,0.2-0.6,0.5-0.6
	c0.2,0,0.2,0.1,0.1,0.4c-0.1,0.2-0.2,0.5-0.2,0.7c0,0.6,0.5,0.5,0.6-0.2c0.1-0.4,0.2-0.6,0.4-0.6c0.2,0,0.2,0.1,0.1,0.6
	c-0.1,0.4-0.2,0.7-0.2,0.8c0,0.6,0.5,0.4,0.7-0.4c0.1-0.4,0.4-0.7,0.5-0.7c0.4,0,0.4,0.5,0.1,0.7c-0.2,0.2-0.2,1.1,0,1.1
	c0.1,0,0.2-0.4,0.4-0.7c0.1-0.4,0.2-0.7,0.4-0.7c0.4,0,0.4,0.5,0.1,0.7c-0.2,0.2-0.2,1.1,0,1.1c0.1,0,0.4-0.4,0.5-0.8
	c0.2-0.7,0.4-0.8,0.8-0.7c0.7,0.1,0.7,0.1,0.2,1.1c-0.2,0.4-0.2,0.8-0.2,1c0.2,0.2,1-1,1-1.5c0-0.2,0.1-0.5,0.2-0.5
	c0.4,0,0.2,0.5-0.1,1.3c-0.2,0.4-0.2,0.8-0.2,1c0.2,0.2,0.7-0.5,1-1.4c0.1-0.5,0.4-0.8,0.5-0.8c0.4,0,0.2,0.6-0.2,1.5
	c-0.4,0.8-0.4,1-0.1,1.4c0.4,0.6,0.5,3.9,0.2,3.9c-0.1,0-0.1-0.4-0.1-0.7c0.1-0.5,0-0.7-0.2-0.8c-0.5-0.2-0.7,0-0.7,0.7
	c0,0.4-0.1,0.6-0.2,0.6s-0.1-0.4-0.1-1c0.1-1.2-0.2-1.8-0.5-0.7c-0.1,0.6-0.2,0.6-0.4-0.4L77,94.4l-0.4,1.1l-0.4,1.1l0.1-1.1
	c0.1-1.4-0.2-1.5-0.5-0.1l-0.7,0.5v-1c0-1.2-0.5-1.2-0.7,0c-0.1,0.6-0.1,0.5-0.2-0.7c-0.1-1.5-0.6-1.7-0.6-0.2S73,94.8,73,93.3v-0.6
	L72.4,93c-0.2,1-0.5,0.8-0.7-0.2c-0.1-0.7-0.2-0.8-0.2-0.5c-0.1,0.6-0.6,0.6-0.6-0.1s-0.1-0.7-0.7-0.2l-0.5,0.5l0.5,0.6l0.5,0.6
	l-0.5-0.1l-0.5-0.1l0.5,0.6c0.2,0.4,0.6,0.7,0.7,0.7c0.2,0.1,0.2,0.2,0,0.4c-0.2,0.2,0,0.5,0.6,1.1c0.5,0.5,0.7,0.7,0.5,0.6
	c-0.6-0.2-0.6,0.4,0,0.7c0.2,0.1,0.5,0.5,0.5,0.6c0,0.2,0.1,0.6,0.4,0.8c0.2,0.5,0.2,0.5-0.2,0.4c-0.4-0.1-0.5-0.2-0.5-0.6
	c0.1-0.7-0.7-1.3-1.5-1L70.1,98l0.5-0.6c0.6-0.7,0.5-1.3-0.1-0.8s-0.8,0.4-0.4-0.1c0.5-0.6,0.2-1-0.4-0.5c-0.6,0.4-0.7-0.1-0.1-0.6
	c0.2-0.2,0.4-0.5,0.2-0.6c-0.1-0.2-0.4-0.1-0.7,0.2c-0.4,0.2-0.6,0.4-0.6,0.2c0-0.1,0.1-0.4,0.2-0.5s0.2-0.2,0.1-0.4
	c-0.1-0.1-0.2-0.1-0.5,0.1c-0.1,0.2-0.4,0.4-0.5,0.2c-0.1-0.1,0-0.4,0.1-0.5s0.2-0.4,0.1-0.5s-0.4,0-0.7,0.2
	c-0.8,0.7-0.8,0.6-0.1-0.4c0.8-1.1,0.7-1.4-0.4-0.8C66.4,93,66,93.1,66,93s0.1-0.4,0.4-0.5c0.5-0.2,0.4-0.8-0.1-0.7
	c-0.2,0.1-0.5,0-0.7-0.2c0-0.2-0.1-0.2-0.4,0.2c-0.5,1-0.4,2.3,0.4,3.3c0.6,1,1,2,0.8,2.3c0,0.1-0.5-0.2-0.8-0.6
	c-0.5-0.4-0.8-0.7-1-0.7c-0.1,0-0.1,0.8-0.1,1.9c0,1.4,0.2,2.3,0.5,3c0.2,0.6,0.5,1.1,0.4,1.2c0,0.1-0.4-0.1-0.7-0.5
	c-0.5-0.5-0.7-1-1.1-2.5c-0.6-2.7-0.6-4.8,0.1-6.1c0.6-1.2,0.8-2.9,0.4-3.1c-0.1-0.1-0.2,0.1-0.2,0.4c0,0.2-0.2,1.4-0.5,2.7
	c-0.5,2.1-0.5,2.5-0.4,4.5c0.1,1.7,0.4,2.5,0.8,3.5c0.4,0.7,0.6,1.3,0.6,1.4c0,0-0.4-0.2-0.8-0.5c-1.2-0.8-1.9-2.5-1.9-4.4v-1.5
	l-1.1,0.2c-1.2,0.2-2.7-0.5-3.1-1.4c-0.4-0.8-0.1-1,0.5-0.4c1,1.1,2.7-0.1,2.9-2c0-0.4,0.1-1.3,0.4-2c0.2-0.7,0.4-1.3,0.2-1.4
	c-0.2-0.4-0.6,0.2-0.7,1.2c-0.1,0.6-0.2,1.1-0.5,1.1c-0.2,0-0.2-0.2,0.1-1.3c0.4-1.3,0.2-1.9-0.1-1.5c-0.1,0.1-0.2,0.7-0.4,1.3
	c-0.1,1.4-0.6,1.5-1.5,0.4c-0.7-0.8-0.7-0.8-0.4-3.6c0.1-0.5,0-1.8-0.2-2.9c-0.1-1.1-0.4-2.4-0.5-3.1c-0.1-1.2-0.1-1.2,0.5-1.2
	c0.5,0,0.7,0.1,1,0.7c1.2,2.4,3.8,5.4,4.9,5.4c0.4,0,0.6-3,0.4-4.2c-0.2-1.1-0.5-1.4-1.5-2.1c-2-1.4-2.7-3.7-2.1-6.4
	C60.8,72.2,60.9,71.8,61,71.8z M71.6,75.3C71.6,75.3,71.6,75.4,71.6,75.3c0.1,0.1,0,0.5-0.2,0.8c-0.2,0.4-0.4,0.6-0.4,0.5
	C70.9,76.2,71.5,75.3,71.6,75.3z M63.2,77.4c-0.1,0,0,0.2,0.2,0.6c0.6,0.7,0.8,0.7,0.4,0C63.5,77.6,63.3,77.4,63.2,77.4z M57.4,77.5
	c0,0,0.1,0.1,0.4,0.4c0.2,0.2,0.5,0.5,0.6,0.5s0.2,0.1,0.1,0.2c-0.1,0.1-0.4,0.4-0.6,0.4c-0.5,0.1-0.5,0-0.5-0.7
	C57.2,77.8,57.2,77.5,57.4,77.5z M70.4,77.8C70.5,77.8,70.5,77.8,70.4,77.8c0.1,0.2,0,0.5-0.1,0.5s-0.2,0-0.2-0.1
	C70.1,78.1,70.2,78,70.4,77.8C70.3,77.9,70.4,77.8,70.4,77.8z M56.3,78.1c0.1,0,0.1,0.2,0.1,1.1c0.1,2,0.1,2.3,0.2,2.6
	c0.1,0.2,0.1,0.5,0,0.6s-0.2,0.5-0.4,0.7c-0.4,1.2-0.5,0.4-0.5-1.8C55.9,79.4,56.2,78.2,56.3,78.1z M67.8,78.8
	c-0.1,0-0.2,0.2-0.2,0.5s0.1,0.5,0.2,0.5s0.2-0.2,0.2-0.5C68.1,79.1,67.9,78.8,67.8,78.8z M58.5,80.4c-0.1,0-0.4,0.4-0.5,0.8
	c-0.2,0.5-0.2,0.8,0,0.8c0.1,0,0.4-0.4,0.5-0.8C58.5,80.7,58.5,80.4,58.5,80.4z M58.8,81.9c-0.1,0-0.4,0.4-0.5,0.8
	c-0.1,0.6-0.1,1,0.2,1.3c0.2,0.4,0.4,0.6,0.4,0.6c0.1,0.1,0.8-2.5,0.8-2.6s-0.2,0-0.4,0.2c-0.2,0.4-0.4,0.2-0.4-0.1
	C58.9,82,58.9,81.9,58.8,81.9z M56.9,82.9c0.1,0,0.1,0.4,0,1.1c-0.1,1.2-0.1,1.3,0.2,0.7c0.4-0.6,0.4-0.6,0.2,0.7
	c-0.1,0.8,0,1.4,0.1,1.5s0.1,0.4,0.1,0.5c-0.2,0.5-0.7,0.2-1-0.4c-0.6-1.2-0.6-1.9-0.2-2.5c0.2-0.2,0.4-0.7,0.4-1.1
	S56.8,83,56.9,82.9L56.9,82.9z M60.6,83.8c-0.4,0-0.8,0.4-1.1,0.7c-0.5,0.8-0.5,1.5,0,1.3c0.2-0.1,0.4,0,0.2,0.2
	c-0.1,0.2,0,0.5,0.1,0.5c0.2,0,1-1.9,1-2.5C60.8,84,60.7,83.8,60.6,83.8z M61.3,84.4c-0.1,0-0.4,0.4-0.6,1.1
	c-0.1,0.6-0.2,1.2-0.2,1.3c0,0.5,0.6,0.4,0.6-0.1c0-0.2,0.1-0.1,0.2,0.1c0.2,0.6,0.6,0.7,0.6,0.2c0-0.1,0.2-0.2,0.5-0.1
	c0.4,0.1,0.5,0,0.5-0.6c0-0.5-0.1-0.7-0.2-0.7c-0.1,0-0.2,0.1-0.2,0.2s-0.1,0.4-0.2,0.4c-0.1,0-0.2-0.2-0.2-0.5
	c0-0.2-0.1-0.5-0.2-0.5c-0.1,0-0.2-0.2-0.2-0.5C61.4,84.7,61.3,84.4,61.3,84.4z M72.1,85.7C72.2,85.7,72.2,85.7,72.1,85.7
	c0.1,0.2,0,0.5-0.1,0.5s-0.2-0.1-0.2-0.1S71.9,86,72.1,85.7C72,85.7,72.1,85.7,72.1,85.7z M63.3,86c-0.1,0-0.2,0.4-0.2,0.7
	s0.1,0.7,0.2,0.7c0.1,0,0.2-0.4,0.2-0.7C63.5,86.3,63.4,86,63.3,86z M64.7,86.1c-0.2,0-0.2,0.8,0,1.5l0.2,0.8l0.1-1
	c0-0.6,0-1.1-0.1-1.3C64.9,86.1,64.9,86.1,64.7,86.1z M64.1,86.3c-0.1,0-0.2,0.2-0.2,0.5c0,0.2,0.1,0.5,0.2,0.5
	c0.1,0,0.2-0.2,0.2-0.5C64.3,86.5,64.3,86.3,64.1,86.3z M65.8,86.3c-0.2,0-0.2,1.9,0,2.1c0.4,0.5,0.4,0.1,0.4-1
	C65.9,86.8,65.8,86.3,65.8,86.3z M58.8,87.4c-0.2,0-0.7,1.3-0.7,1.8c0,0.6,0.4,0.2,0.6-0.5C58.9,87.8,59,87.4,58.8,87.4z M59.5,87.8
	c-0.2,0-0.5,0.6-0.6,1.5c-0.1,0.8-0.1,1.1,0.1,1.1C59.4,90.4,59.9,88.1,59.5,87.8C59.6,87.8,59.6,87.8,59.5,87.8z M62.1,88.9
	c-0.1,0-0.2,0.5-0.4,1c-0.1,0.5-0.2,1.2-0.2,1.4c-0.1,0.4,0,0.5,0.2,0.5s0.4-0.2,0.4-0.6s0.1-1,0.1-1.4
	C62.2,89.3,62.2,88.9,62.1,88.9z M63.1,89.3L63.1,89.3c-0.4,0.1-0.7,1.5-0.5,1.9c0.2,0.2,0.7-0.7,0.7-1.4
	C63.3,89.4,63.2,89.3,63.1,89.3z M64.9,90.1c-0.4,0-0.6,1.9-0.4,2.4c0.1,0.2,0.2-0.2,0.5-0.8C65.2,90.3,65.2,90.1,64.9,90.1z
	 M76.4,90.7c-0.2,0-0.8,0.8-0.8,1.2c0,0.5,0.4,0.2,0.7-0.5C76.5,91,76.5,90.7,76.4,90.7z M80.9,90.7c0.2,0,0.5,0.2,0.4,0.6
	c-0.1,0.2-0.1,0.2-0.2,0s-0.2-0.2-0.5,0.1c-0.2,0.2-0.4,0.4-0.4,0.2s0.1-0.5,0.4-0.7C80.6,90.9,80.8,90.7,80.9,90.7z M79.3,91.7
	c0.1,0,0,0.2-0.1,0.7c-0.1,0.2-0.2,0.5-0.4,0.5c-0.2,0-0.2-0.5,0.1-0.8C79.1,91.7,79.3,91.7,79.3,91.7z M81.6,91.9
	c0.1,0,0,0.4-0.1,0.7c-0.2,0.4-0.5,0.7-0.6,0.7s0-0.4,0.1-0.7C81.3,92.2,81.5,91.9,81.6,91.9z M80,92.2c0.1,0,0.1,0.2-0.1,0.8
	c-0.1,0.5-0.4,0.8-0.4,0.8c-0.2,0-0.1-0.7,0.2-1.3C79.7,92.4,79.8,92.2,80,92.2z M81.5,93.1c0.1,0,0.2,0.2,0.2,0.7s-0.1,0.7-0.1,0.6
	c-0.1-0.1-0.2,0-0.4,0.1c-0.4,0.4-0.4-0.1-0.1-1C81.3,93.2,81.4,93.1,81.5,93.1z M79.6,94.9c0.1,0,0.1,0.1,0,0.4
	c0,0.2-0.1,0.6-0.1,0.8c0,0.1-0.1,0.2-0.2,0.2c-0.4,0-0.2-1.1,0.1-1.3C79.5,95,79.5,95,79.6,94.9z M80.3,96.3c0.2,0,0.5,0.4,0.4,0.7
	c-0.1,0.6-0.5,0.5-0.5-0.1C80.1,96.6,80.2,96.3,80.3,96.3z M72,100.3c0.1,0,0.1,0,0.2,0.1c0.1,0.2,0.1,0.5-0.4,0.8
	c-0.7,0.5-1.4,0.6-0.7,0.1c0.2-0.1,0.5-0.5,0.7-0.7C71.9,100.4,72,100.3,72,100.3z M71,100.6c0.1,0,0,0.1-0.1,0.2
	c-0.4,0.5-0.2,1.4,0.2,1.4c0.4,0,1.5-0.8,1.8-1.3c0.1-0.2,0.2-0.1,0.5,0.1c0.2,0.4,0.2,0.5,0.1,0.7c-0.2,0.4-0.6,0.5-0.5,0
	c0.1-0.1,0-0.2-0.1-0.2s-0.2,0.1-0.4,0.2c-0.1,0.1-0.2,0.2-0.5,0.2c-0.1,0-0.6,0.2-0.8,0.6c-0.5,0.5-0.7,0.5-1.1,0.2
	c-0.2-0.1-0.5-0.5-0.5-0.6C69.7,102,70.4,101,71,100.6L71,100.6z M72.5,102.5c0.1,0,0.4,0,0.4,0.1c0,0.4-0.4,0.5-0.5,0.1
	C72.2,102.6,72.4,102.5,72.5,102.5z M67.2,109.4c3.6,0,6.7-1,9.4-2.7c2.6-1.8,4.9-4.2,6.7-7c1.8-3,3.1-6.3,4-10
	c1-3.8,1.3-7.6,1.3-11.7c0-4.2-0.5-10-1.5-14c-1-4.2-1.9-7.4-3.1-9.8c-1.7-3.5-4.6-8.2-7.5-10.5c-6.4-5-14.2-3.9-16.5-3.3
	c-3.9,1.1-4.8,7.7-5,8.8c-0.2,0.8-0.4,1.9-0.5,3.5c-0.1,1.4-0.4,3.1-0.5,5s-0.2,4-0.4,6.2c-0.1,2.3-0.1,4.5-0.1,6.9
	c0,5.4,0,10,0,13.6c0,3.7,0.1,6.5,0.1,8.9c0,2.3,0.1,3.9,0.2,5c0.1,1.1,0.1,1.8,0.2,2.3c0.2,1.1,0.6,2.1,1.3,3.2s1.5,2,2.7,2.9
	c1.1,0.8,2.4,1.5,3.9,2.1C63.8,109.1,65.4,109.4,67.2,109.4z M39,40.9c-1,0-2.1,0.2-6.1,3.6c-2.3,2-2.5,2.6-1.3,3.5
	c1.8,1.1,0.7,4-1.4,4s-3-2-2-5c0.4-1.1,0.4-1.7,0.2-1.9c-0.1-0.1-0.4-0.7-0.5-1.3s-0.5-1.2-0.7-1.5C27,42,26.7,41.4,26.5,41
	c-0.1-0.6-0.1-0.6,1.5-0.6c1,0,2.3-0.1,2.7-0.2c1.1-0.4,3.1-2.3,3.1-2.9c0-0.4-2.5-1.3-3.3-1.3c-0.6,0-1.8-1.3-1.9-2.3
	c-0.1-0.8,0-1.3,0.5-2.1c0.6-1,1.2-1.4,2-1.4c0.2,0,0.6,0,0.8,0.1c1.7,0.4,2.3,1.5,1.7,3.6l-0.2,0.8l1.2-0.1
	c0.7-0.1,2.1-0.4,3.3-0.6c1.3-0.2,4.3-0.6,7.9-0.6c2.6-0.1,3.1,1.5,4,1.7c2.3,0.2,3.1-1.1,5.5-1.2c12-0.6,19.3,1.2,25.5,4.9
	c4,2.4,8.2,5.8,11.2,9.6c2.5,3.2,5.2,8.1,6.5,11.9c1.3,3.9,1.9,7.9,1.9,12c0,4.9-0.8,9.8-2.5,14.8c-1.7,4.9-4,9.3-7.1,13.2
	c-3.1,3.9-6.8,7.1-11.2,9.5c-4.4,2.4-9.3,3.7-14.6,3.7c-1.2,0-2.6-0.1-4.3-0.4c-1.7-0.2-3.5-0.5-5.4-1c-1.8-0.4-3.6-0.8-5.4-1.3
	c-1.7-0.5-3.2-1-4.3-1.4c-1.4,0.8-3.1,1.7-5.2,2.5c-2.1,0.8-2.6-2-1.7-2.9c1.1-0.8,1.8-2,2.3-3.5c0.2-0.8,0.5-2.3,0.7-4.2
	s0.5-4.2,0.6-6.8c0.1-2.6,0.2-5.6,0.4-8.8s0.1-6.7,0.1-10.2c0-8.2-0.2-21.7-0.6-26.2c-0.5-4.5-0.8-7.4-1.7-7.9
	C40.5,41.1,39.5,40.9,39,40.9z M34.3,105.6c3.7-8.2-3-16.4-2-16.2c1.3,0.4,0-7,1-7.7c0.8-0.7,1.1-1.4,0.8-3.1
	c-0.1-1.1-0.2-1.3-1-1.8c-1.4-1.2-3-0.5-3.3,1.3c-0.1,0.4-0.1,0.4-0.1-0.4s0-1.1,0.6-1.8c0.5-0.6,1-0.7,1.4-0.7c2,0,2,0,0.5-1
	c-1-0.7-1.9-1.2-3.5-1.5c-2.6-0.7-3.3-2.4-3.3-2.4s0.8,0.2,1.7,0c1.5-0.5,0.8-0.4,2.7-0.5c1,0.5,1.7,0.7,1.8,0.6
	c0-0.5-1.5-1.4-2.4-1.5c-1-0.1-3.2-1.7-3-2c0.1-0.1,0.7-0.1,1.4,0c1.2,0.2,1.4,0.4,2.9,1.7c1.2,1.1,1.7,1.4,1.9,1.3s0.5,0.2,1.1,1.2
	c0.8,1.4,0.8,1.9,0.1,1.3c-0.2-0.2-0.8-0.5-1.4-0.7c-0.6-0.2-1.3-0.5-1.5-0.6c-0.4-0.1-0.6-0.2-0.6,0c0,0.1,1,0.7,2.1,1.2
	c1.2,0.5,2.3,1.1,2.4,1.2c1,0.7,1.3,6.4,0.6,7.5c-0.1,0.2-0.2,0.5-0.1,0.6c0.1,0.1,0.5-0.2,0.7-0.6c0.6-0.7,0.6-1.3,0.4-3.6
	c-0.1-0.6,0-1.8,0-2.5c0.1-1.1,0.1-1.3-0.4-1.7c-0.4-0.2-0.7-1.2-1.2-2.5c-0.8-2.9-0.8-2.9-1-2.3c0,0.4-0.1,0.6-0.1,0.7
	c-0.2,0.4-1.3-1.5-2.7-5.1c-0.2-0.7-0.6-1.2-0.6-1.1c-0.1,0.1,0.1,0.7,0.4,1.3c0.3,0.6,0.5,1.3,0.5,1.7c0,0.5,0,0.5-0.7-0.2
	c-1.5-1.7-0.7,0.2,1.2,2.5c0.5,0.7,0.5,0.6-1-0.5c-0.8-0.7-2-1.7-2.5-2.3c-0.8-0.8-1.1-1.1-2-1.4c-0.6-0.2-1.3-0.6-1.1-1
	c0.8-0.1,0.8-0.2,2.1,0.4c1.1,0.5,1.8-2.6,1.9-3.8c0.1-1.8,1.5-2.6,3.2-5.6c2-3.3,1.9-6.3,4-7.5c1.4,0,1.8,0.6,2.3,3.1
	c0.5,2.4,1.3,3.2,2,2.1c0.4-0.5,0.5-0.5,0.7-0.2c0.8,1-0.5,2.1-1.9,1.7c-1.1-0.4-1.4-0.7-1.5-1.4c-0.1-0.6-0.6-0.7-0.5-0.1
	c0.1,0.5-0.1,0.7-0.5,0.5c-0.1-0.1-0.2-0.7-0.4-1.2c-0.1-1.1-0.8-1.9-1.3-1.4C32.6,52,32.6,57,34,58c0.6,0.5,0.7,0.6,0.5,1.1
	c-0.2,0.7-0.5,0.7-0.7,0s-0.7-1.1-1.7-1.2c-0.7-0.1-1,0-1.4,0.6c-0.7,1-0.5,2.7,0.5,3.5c0.4,0.2,1,1.2,1.5,2s1.1,1.8,1.4,2.1
	l0.5,0.6l0.5-1c0.5-1,1.8-1.8,2.1-1.5c0.1,0.1-0.1,0.6-0.6,1.2c-0.8,1.2-1,2-0.2,3.8c0.4,0.8,0.4,1.3,0.1,2
	c-0.2,0.5-0.4,1.1-0.4,1.4c0,0.6,0,0.6,0.4,0.2c0.1-0.2,0.4-0.8,0.5-1.3c0.2-1,1.4-2.5,2-2.6c0.8-0.2,1,0.2,0.4,0.8
	c-0.7,0.7-1.2,2.4-1.1,3.9c0.1,1.2,0.1,1.3-1,2.6c-1.1,1.3-1.3,1.9-1,2.1c0.1,0.1,0.4-0.1,0.6-0.6c0.8-1.8,1.7-1.5,2.9-0.6
	c0.2,0.2,0.5,0.5,0.5,0.5s-0.7,0-1.4,0c-0.8,0-1.4,2-1.4,2c-0.8,1.1-1.2,1.3-1.9,1.8c-0.6,0.4-0.7,5.8-1.2,6.2
	c-1.5,1.3,4.4,9.9,1.3,18.1"/>
<text transform="matrix(1 0 0 1 445.4004 93)" class="st2 st3 st4">B</text>
<g>
	<text transform="matrix(1 0 0 1 399.5 93)" class="st2 st3 st4">D</text>
</g>
</svg>
