<svg id="icon-expandable-text" xmlns="http://www.w3.org/2000/svg" viewBox="0 0 545.8 512">
<path d="M174,32.4h64h160c17.7,0,32,14.3,32,32s-14.3,32-32,32h-32h-64h-32v352c0,17.7-14.3,32-32,32s-32-14.3-32-32v-96h-32
	c-88.4,0-160-71.6-160-160S85.6,32.4,174,32.4z"/>
<path d="M425.4,7.7C420.8,2.8,414.5,0,407.8,0c-6.7,0-13,2.8-17.6,7.7l-104,112c-6.5,7-8.2,17.2-4.4,25.9c3.8,8.7,12.5,14.4,22,14.4
	h56v192h-56c-9.5,0-18.2,5.7-22,14.4c-3.8,8.7-2.1,18.9,4.4,25.9l104,112c4.5,4.9,10.9,7.7,17.6,7.7c6.7,0,13-2.8,17.6-7.7l104-112
	c6.5-7,8.2-17.2,4.4-25.9c-3.8-8.7-12.5-14.4-22-14.4h-56V160h56c9.5,0,18.2-5.7,22-14.4s2.1-18.9-4.4-25.9
	C529.4,119.7,425.4,7.7,425.4,7.7z"/>
</svg>
